<svg width="117" height="117" viewBox="0 0 117 117" fill="none" xmlns="http://www.w3.org/2000/svg">
<rect y="42.4644" width="84.9291" height="84.9291" rx="10.3772" transform="rotate(-30 0 42.4644)" fill="#5CA293"/>
<g clip-path="url(#clip0_204_5254)">
<path d="M68.5469 32.8205L62.7376 31.2639C62.0431 31.0777 61.3292 31.4899 61.1431 32.1844C60.957 32.8789 61.3692 33.5928 62.0637 33.7789L63.6515 34.2043L63.0156 36.5777L60.005 35.771C59.3106 35.5849 58.5967 35.9971 58.4105 36.6915C58.2244 37.386 58.6366 38.0999 59.3311 38.286L59.9706 38.4573L58.1116 45.3953C57.9254 46.0897 58.3376 46.8036 59.0321 46.9897L60.1458 47.288L59.146 51.0194C60.0844 50.6997 61.0447 50.4935 62.0083 50.3968L62.6607 47.962L63.7744 48.2604C64.4688 48.4466 65.1827 48.0344 65.3688 47.3399L67.2278 40.402L67.8673 40.5734C68.5618 40.7595 69.2756 40.3473 69.4617 39.6528C69.6478 38.9584 69.2357 38.2445 68.5411 38.0584L65.5305 37.2517L66.1665 34.8782L67.873 35.3355C68.5676 35.5216 69.2814 35.1094 69.4675 34.4149C69.6536 33.7204 69.2414 33.0065 68.5469 32.8205V32.8205Z" fill="white"/>
<path d="M72.6298 57.1816L71.9375 57.5814C68.9575 53.0512 62.904 51.5725 58.1487 54.318C55.2476 55.9929 52.7163 58.2953 50.603 61.1775C49.1135 59.6765 46.7424 59.3 44.827 60.4058C42.5475 61.7219 41.7637 64.6471 43.0798 66.9265L44.9363 70.1421L43.8423 77.5792C43.7851 77.9682 43.9067 78.3622 44.1733 78.6513C44.3006 78.7893 47.3566 81.9954 53.004 78.7348L69.2392 69.3614C72.9113 67.2413 73.9347 63.2244 73.0303 59.957L73.9317 59.4365C75.9625 58.2641 78.5686 58.9623 79.7411 60.9931C80.9136 63.024 80.2152 65.6301 78.1845 66.8025L67.9623 72.7043C67.3396 73.0638 67.1263 73.86 67.4858 74.4827C67.8453 75.1053 68.6415 75.3187 69.2641 74.9592L79.4863 69.0574C82.7605 67.1671 83.8863 62.9654 81.996 59.6913C80.1057 56.4172 75.904 55.2913 72.6298 57.1816ZM50.0932 72.9992C49.4706 73.3587 48.6743 73.1453 48.3148 72.5227C47.9553 71.9 48.1687 71.1038 48.7913 70.7443C49.4139 70.3848 50.2102 70.5981 50.5697 71.2208C50.9292 71.8434 50.7158 72.6397 50.0932 72.9992Z" fill="white"/>
</g>
<defs>
<clipPath id="clip0_204_5254">
<rect width="44.4369" height="44.4369" fill="white" transform="translate(27.3389 49.5571) rotate(-30)"/>
</clipPath>
</defs>
</svg>
