<svg width="203" height="229" viewBox="0 0 203 229" fill="none" xmlns="http://www.w3.org/2000/svg">
<g filter="url(#filter0_d_210_1174)">
<rect x="17" y="61.8584" width="123.717" height="123.717" rx="10.3772" transform="rotate(-30 17 61.8584)" fill="white" fill-opacity="0.2" stroke="url(#paint0_linear_210_1174)" stroke-width="0.648577"/>
<rect x="38.125" y="67.519" width="92.7874" height="92.7874" rx="10.3772" transform="rotate(-30 38.125 67.519)" fill="white"/>
<path d="M110.711 52.398C105.296 50.947 99.6393 51.6916 94.783 54.4954C89.9279 57.2985 86.4547 61.8251 85.0037 67.2403C83.5525 72.6562 84.2975 78.3127 87.1015 83.1694C89.6098 87.5139 93.4979 90.751 98.1675 92.4248L96.6135 98.2219C94.1693 98.3381 91.9674 100.014 91.3011 102.502L87.5319 116.568C87.1322 118.06 87.3377 119.618 88.1101 120.956C88.8824 122.294 90.1289 123.251 91.6209 123.65C93.1611 124.063 94.7257 123.81 96.0074 123.071C97.2902 122.33 98.2902 121.102 98.7028 119.562L102.472 105.495C102.871 104.003 102.666 102.445 101.894 101.107C101.425 100.295 100.779 99.6222 100.01 99.1294L101.563 93.3346C106.444 94.2217 111.43 93.3607 115.774 90.8528C120.63 88.049 124.103 83.5225 125.554 78.1068C127.005 72.6909 126.26 67.0345 123.457 62.1793C120.653 57.3226 116.127 53.8492 110.711 52.398ZM102.838 82.7441C103.323 83.5845 103.037 84.6598 102.195 85.1457C101.355 85.6307 100.279 85.3424 99.7935 84.5019L96.9803 79.6293C96.4953 78.7893 96.7837 77.7131 97.6237 77.2281C98.4653 76.7422 99.5397 77.0311 100.025 77.8715L102.838 82.7441ZM107.912 79.8144C108.398 80.6549 108.111 81.7301 107.269 82.216C106.429 82.701 105.353 82.4127 104.868 81.5722L99.125 71.6253C98.6397 70.7848 98.9281 69.7087 99.7682 69.2237C100.61 68.7378 101.684 69.027 102.17 69.8675L107.912 79.8144ZM112.987 76.8847C113.472 77.7252 113.185 78.8004 112.344 79.2863C111.504 79.7713 110.427 79.483 109.942 78.6425L105.371 70.7253C104.886 69.8849 105.175 68.8091 106.015 68.3241C106.856 67.8382 107.931 68.1271 108.416 68.9675L112.987 76.8847ZM118.061 73.955C118.546 74.7955 118.26 75.8707 117.418 76.3567C116.578 76.8417 115.502 76.5533 115.017 75.7129L107.516 62.7209C107.031 61.8808 107.319 60.8047 108.159 60.3197C109.001 59.8338 110.075 60.1226 110.56 60.9631L118.061 73.955Z" fill="#187287"/>
</g>
<defs>
<filter id="filter0_d_210_1174" x="-3" y="0" width="209" height="269" filterUnits="userSpaceOnUse" color-interpolation-filters="sRGB">
<feFlood flood-opacity="0" result="BackgroundImageFix"/>
<feColorMatrix in="SourceAlpha" type="matrix" values="0 0 0 0 0 0 0 0 0 0 0 0 0 0 0 0 0 0 127 0" result="hardAlpha"/>
<feOffset dy="20"/>
<feGaussianBlur stdDeviation="10"/>
<feComposite in2="hardAlpha" operator="out"/>
<feColorMatrix type="matrix" values="0 0 0 0 0 0 0 0 0 0 0 0 0 0 0 0 0 0 0.6 0"/>
<feBlend mode="normal" in2="BackgroundImageFix" result="effect1_dropShadow_210_1174"/>
<feBlend mode="normal" in="SourceGraphic" in2="effect1_dropShadow_210_1174" result="shape"/>
</filter>
<linearGradient id="paint0_linear_210_1174" x1="17" y1="61.8584" x2="140.717" y2="185.575" gradientUnits="userSpaceOnUse">
<stop stop-color="white"/>
<stop offset="1" stop-color="white" stop-opacity="0"/>
</linearGradient>
</defs>
</svg>
