<svg width="89" height="89" viewBox="0 0 89 89" fill="none" xmlns="http://www.w3.org/2000/svg">
<rect x="32.458" width="64.9155" height="64.9155" rx="10.3772" transform="rotate(30 32.458 0)" fill="#187287"/>
<path d="M53.8939 30.5671C54.9979 31.2045 56.4096 30.8263 57.047 29.7223C57.6844 28.6183 57.3061 27.2066 56.2021 26.5692C55.0981 25.9318 53.6864 26.31 53.049 27.414C52.4116 28.518 52.7899 29.9297 53.8939 30.5671Z" fill="white"/>
<path d="M59.5055 30.0823C60.3888 30.5923 61.5184 30.2896 62.0284 29.4063C62.5384 28.5229 62.2357 27.3934 61.3524 26.8834C60.469 26.3734 59.3395 26.6761 58.8295 27.5594C58.3195 28.4428 58.6221 29.5723 59.5055 30.0823Z" fill="white"/>
<path d="M52.3151 58.0497L51.6759 39.9495L53.9817 35.9558L56.3808 37.341L57.9967 34.5423L44.402 26.6934L42.7862 29.4921L45.1854 30.8773L42.8796 34.8709L26.8848 43.3675C26.2535 43.7568 25.7059 44.3024 25.3085 44.9908C24.0337 47.1988 24.7898 50.0228 26.9985 51.298L45.3909 61.9168C47.5989 63.1916 50.4229 62.4355 51.6981 60.2268C52.0955 59.5384 52.2943 58.7914 52.3151 58.0497ZM36.082 42.1412L45.2148 37.2896L47.9844 32.4925L51.1833 34.3394L48.4137 39.1365L48.7786 49.4715L36.082 42.1412Z" fill="white"/>
</svg>
