<svg width="141" height="144" viewBox="0 0 141 144" fill="none" xmlns="http://www.w3.org/2000/svg">
<g filter="url(#filter0_d_35_449)">
<rect x="56.2051" width="78.4113" height="78.4113" rx="10.3772" transform="rotate(30 56.2051 0)" fill="white" fill-opacity="0.2" stroke="url(#paint0_linear_35_449)" stroke-width="0.648577"/>
<rect x="59.793" y="13.3892" width="58.8085" height="58.8085" rx="10.3772" transform="rotate(30 59.793 13.3892)" fill="white"/>
<path d="M71.2976 37.0462L78.3407 36.9232L78.3202 35.7493C78.3089 35.1015 77.7741 34.5846 77.1259 34.596L72.4304 34.6779C71.7825 34.6891 71.2657 35.224 71.277 35.8722L71.2976 37.0462Z" fill="#5CA293"/>
<path d="M81.2358 68.4133C81.2214 67.7651 80.6842 67.2507 80.0361 67.2651L72.372 67.4359C72.268 68.239 72.0425 69.0351 71.6887 69.7997L80.088 69.6124C80.7368 69.5983 81.2502 69.0614 81.2358 68.4133Z" fill="#5CA293"/>
<path d="M70.5591 74.1728L67.5089 72.4118L69.3091 69.2938C70.9275 66.4906 69.9636 62.8934 67.1604 61.275C64.3573 59.6566 60.7601 60.6204 59.1417 63.4236L57.3415 66.5416L54.2912 64.7806C53.7297 64.4564 53.0117 64.6488 52.6875 65.2103C52.3633 65.7718 52.5557 66.4899 53.1172 66.814L69.3851 76.2063C69.9466 76.5305 70.6647 76.3381 70.9888 75.7766C71.313 75.2151 71.1206 74.497 70.5591 74.1728ZM63.6383 67.3754C63.0768 67.0512 62.8844 66.3332 63.2086 65.7717C63.5328 65.2102 64.2509 65.0177 64.8124 65.3419C65.3739 65.6661 65.5663 66.3842 65.2421 66.9457C64.9179 67.5072 64.1999 67.6996 63.6383 67.3754Z" fill="#5CA293"/>
<path d="M69.0112 40.6086L69.0531 43.0129L71.9789 42.9536C75.4469 42.8835 78.261 45.6631 78.3469 49.0371C78.435 52.51 75.6792 55.383 72.2053 55.4385L69.2708 55.4854L69.298 57.0426C69.3094 57.6935 69.8484 58.2095 70.4964 58.1959C70.5396 58.1952 70.998 58.1871 71.6902 58.175L71.7512 61.6717C71.7625 62.3211 72.2991 62.8365 72.9455 62.8251L77.6409 62.7431C78.2892 62.7318 78.8055 62.1971 78.7943 61.5488L78.7333 58.0521C79.4342 58.0399 79.8832 58.0321 79.8832 58.0321C80.5315 58.0207 81.0479 57.486 81.0366 56.8377C81.0357 56.7832 80.7506 40.3867 80.7464 40.3324C80.6978 39.7137 80.176 39.2396 79.5554 39.2505L70.1645 39.4142C69.5162 39.4256 68.9998 39.9603 69.0112 40.6086Z" fill="#5CA293"/>
<path d="M57.1079 62.2495C58.2567 60.2598 60.1177 58.9327 62.1847 58.4023L61.0598 57.7528C59.3779 56.7818 58.7995 54.6234 59.7706 52.9415C60.7416 51.2596 62.9 50.6813 64.5814 51.6521C64.5819 51.6524 66.9272 53.0078 66.9271 53.0077C67.1112 53.1139 67.3205 53.1682 67.5329 53.1648L72.1676 53.0906C74.3347 53.056 76.0544 51.2636 75.9994 49.0968C75.945 46.9605 74.1625 45.258 72.0263 45.3012L67.8102 45.3866C62.81 42.7054 56.5275 44.4703 53.6701 49.4194C50.9554 54.1215 52.2777 60.0641 56.5537 63.2094L57.1079 62.2495Z" fill="#5CA293"/>
</g>
<defs>
<filter id="filter0_d_35_449" x="-3" y="0" width="147" height="180" filterUnits="userSpaceOnUse" color-interpolation-filters="sRGB">
<feFlood flood-opacity="0" result="BackgroundImageFix"/>
<feColorMatrix in="SourceAlpha" type="matrix" values="0 0 0 0 0 0 0 0 0 0 0 0 0 0 0 0 0 0 127 0" result="hardAlpha"/>
<feOffset dy="20"/>
<feGaussianBlur stdDeviation="10"/>
<feComposite in2="hardAlpha" operator="out"/>
<feColorMatrix type="matrix" values="0 0 0 0 0 0 0 0 0 0 0 0 0 0 0 0 0 0 0.6 0"/>
<feBlend mode="normal" in2="BackgroundImageFix" result="effect1_dropShadow_35_449"/>
<feBlend mode="normal" in="SourceGraphic" in2="effect1_dropShadow_35_449" result="shape"/>
</filter>
<linearGradient id="paint0_linear_35_449" x1="56.2051" y1="0" x2="134.616" y2="78.4113" gradientUnits="userSpaceOnUse">
<stop stop-color="white"/>
<stop offset="1" stop-color="white" stop-opacity="0"/>
</linearGradient>
</defs>
</svg>
