<svg width="1440" height="468" viewBox="0 0 1440 468" fill="none" xmlns="http://www.w3.org/2000/svg">
<path d="M0 318.296C16.9128 318.296 145.45 463.745 315.544 463.745C551.839 463.745 679.065 -66.1141 1011.87 82.0004C1275.7 199.423 1391.68 211.987 1440 130.323" stroke="#C1DEEF" stroke-opacity="0.2" stroke-width="0.648577"/>
<path d="M0 192.658C14.9799 203.772 145.45 463.745 315.544 463.745C551.839 463.745 717.723 -8.12779 1050.52 139.987C1314.36 257.41 1355.92 238.564 1440 178.645" stroke="#C1DEEF" stroke-opacity="0.2" stroke-width="0.648577"/>
<path d="M0 395.611C16.9128 395.611 145.45 467.611 315.544 467.611C551.839 467.611 681.825 -152.593 992.537 37.5439C1219.17 176.228 1353.02 231.316 1440 168.98" stroke="#C1DEEF" stroke-opacity="0.2" stroke-width="0.648577"/>
</svg>
