<svg width="535" height="664" viewBox="0 0 535 664" fill="none" xmlns="http://www.w3.org/2000/svg">
<path fill-rule="evenodd" clip-rule="evenodd" d="M384.446 330.009C384.446 330.009 454.222 373.353 482.326 390.163L478.354 410.701L524.576 660.55L53.4868 661.995C53.4868 661.995 18.7643 620.413 17.8348 587.183C16.1729 527.607 41.9384 440.601 70.2319 378.323L70.0207 356.405C70.0207 356.405 173.146 288.298 240.88 263.259C316.233 235.375 384.446 330.009 384.446 330.009Z" fill="url(#paint0_linear_207_5693)"/>
<mask id="mask0_207_5693" style="mask-type:alpha" maskUnits="userSpaceOnUse" x="17" y="258" width="508" height="404">
<path fill-rule="evenodd" clip-rule="evenodd" d="M384.446 330.009C384.446 330.009 454.222 373.353 482.325 390.163L478.354 410.701L524.575 660.55L53.4864 661.995C53.4864 661.995 18.7638 620.413 17.8343 587.183C16.1724 527.607 41.938 440.601 70.2315 378.323L70.0202 356.405C70.0202 356.405 173.146 288.298 240.88 263.259C316.233 235.375 384.446 330.009 384.446 330.009Z" fill="url(#paint1_linear_207_5693)"/>
</mask>
<g mask="url(#mask0_207_5693)">
<path fill-rule="evenodd" clip-rule="evenodd" d="M480.353 415.512L503.281 435.27C503.281 435.27 489 361.628 485.395 359.96C481.79 358.291 384.445 329.98 384.445 329.98L417.541 350.474L448.595 372.681C451.707 374.907 454.337 377.77 456.319 381.089C458.301 384.407 459.593 388.111 460.113 391.966C460.632 395.822 460.369 399.746 459.34 403.492C458.31 407.239 456.536 410.726 454.13 413.735L449.201 419.933C447.152 422.506 445.654 425.493 444.805 428.699C443.955 431.905 443.774 435.259 444.272 438.542L448.659 467.734C449.303 472.013 448.79 476.391 447.176 480.39C445.562 484.39 442.908 487.859 439.504 490.418C435.351 493.533 432.333 497.983 430.93 503.061C429.526 508.138 429.818 513.552 431.758 518.44L481.205 642.62L543.749 634.63L480.353 415.512Z" fill="white"/>
</g>
<path fill-rule="evenodd" clip-rule="evenodd" d="M221.466 396.939L327.95 394.013L355.082 286.629L342.984 272.036L215.649 244.13L221.466 396.939Z" fill="url(#paint2_linear_207_5693)"/>
<path fill-rule="evenodd" clip-rule="evenodd" d="M342.991 272.037C342.991 272.037 364.651 290.328 391.973 334.647L371.32 380.628L340.935 363.76L356.835 397.192C356.835 397.192 304.726 419.811 260.124 477.516C260.124 477.516 300.318 367.097 343.505 282.468C345.293 278.928 346.814 276.14 342.991 272.037Z" fill="url(#paint3_linear_207_5693)"/>
<path fill-rule="evenodd" clip-rule="evenodd" d="M216.184 258.101C216.184 258.101 199.594 274.543 168.301 297.515L189.468 380.591L219.874 363.759L203.946 397.192L260.124 477.515L274.285 417.419C274.285 417.419 244.738 294.907 216.184 258.101Z" fill="url(#paint4_linear_207_5693)"/>
<path fill-rule="evenodd" clip-rule="evenodd" d="M268.314 273.214C268.314 273.214 264.004 269.255 263.385 271.719C262.765 274.182 262.582 274.204 268.314 273.214Z" fill="#603440"/>
<path fill-rule="evenodd" clip-rule="evenodd" d="M70.2311 378.294L77.2306 355.857C77.2306 355.857 149.697 311.711 168.301 297.516C134.064 316.399 101.304 336.019 70.0199 356.377L70.2311 378.294Z" fill="url(#paint5_linear_207_5693)"/>
<path d="M335.466 61.8372C335.466 61.8372 317.148 25.2715 293.406 27.6959C269.664 30.1203 211.944 64.3662 177.065 47.1399C142.186 29.9136 317.211 -10.5841 334.035 14.5909C350.858 39.766 335.466 61.8372 335.466 61.8372Z" fill="url(#paint6_linear_207_5693)"/>
<path fill-rule="evenodd" clip-rule="evenodd" d="M193.294 184.493C184.034 179.567 174.46 178.651 173.805 190.944C173.15 203.237 183.593 227.864 211.518 228.609C239.443 229.354 193.294 184.493 193.294 184.493Z" fill="url(#paint7_linear_207_5693)"/>
<path fill-rule="evenodd" clip-rule="evenodd" d="M365.513 160.245C371.804 151.757 380.069 146.751 385.802 157.572C391.535 168.392 392.525 195.201 367.582 208.065C342.639 220.929 365.478 160.248 365.478 160.248" fill="url(#paint8_linear_207_5693)"/>
<path fill-rule="evenodd" clip-rule="evenodd" d="M294.589 321.257C307.433 320.299 342.216 295.107 358.757 242.806C362.184 231.98 366.997 130.819 365.876 105.757C364.755 80.6945 350.339 36.4354 266.142 42.0036C181.946 47.5717 170.203 100.822 181.025 141.641C191.847 182.46 210.113 250.681 220.14 263.578C230.167 276.475 272.734 322.883 294.589 321.257Z" fill="url(#paint9_linear_207_5693)"/>
<mask id="mask1_207_5693" style="mask-type:alpha" maskUnits="userSpaceOnUse" x="177" y="41" width="190" height="281">
<path fill-rule="evenodd" clip-rule="evenodd" d="M294.589 321.257C307.433 320.299 342.216 295.107 358.757 242.806C362.184 231.98 366.997 130.819 365.876 105.757C364.755 80.6945 350.339 36.4354 266.142 42.0036C181.946 47.5717 170.203 100.822 181.025 141.641C191.847 182.46 210.113 250.681 220.14 263.578C230.167 276.475 272.734 322.883 294.589 321.257Z" fill="url(#paint10_linear_207_5693)"/>
</mask>
<g mask="url(#mask1_207_5693)">
<path fill-rule="evenodd" clip-rule="evenodd" d="M365.514 160.245C357.205 129.374 322.054 121.049 323.914 131.576C325.775 142.102 356.426 203.394 343.717 224.427C331.008 245.459 336.793 271.255 333.188 277.452C329.582 283.649 311.97 316.227 312.85 317.486C313.731 318.746 321.397 341.29 321.397 341.29L383.895 265.534L365.514 160.245Z" fill="url(#paint11_linear_207_5693)"/>
</g>
<path fill-rule="evenodd" clip-rule="evenodd" d="M290.312 236.951C293.036 237.27 303.137 252.03 301.924 256.309C300.711 260.589 294.048 275.306 293.075 268.811C292.102 262.316 288.796 236.754 290.312 236.951Z" fill="url(#paint12_linear_207_5693)"/>
<path fill-rule="evenodd" clip-rule="evenodd" d="M273.063 278.323C277.688 279.79 282.493 280.569 287.33 280.637C290.24 280.689 293.145 280.4 295.988 279.775C297.886 279.35 299.736 278.73 301.512 277.926C305.674 276.036 309.549 273.544 313.019 270.526C316.45 267.491 319.343 263.871 321.571 259.825C321.586 259.798 321.597 259.768 321.602 259.737C321.606 259.707 321.605 259.675 321.598 259.644C321.59 259.614 321.577 259.585 321.559 259.56C321.541 259.535 321.519 259.513 321.492 259.497C321.439 259.466 321.375 259.459 321.316 259.475C321.257 259.491 321.206 259.529 321.174 259.583C318.847 263.486 315.89 266.954 312.431 269.841C308.969 272.7 305.134 275.05 301.036 276.821C299.325 277.593 297.546 278.196 295.721 278.62C292.962 279.248 290.145 279.57 287.317 279.581C282.584 279.614 277.866 278.981 273.297 277.699C273.254 277.685 273.208 277.679 273.163 277.682C273.117 277.685 273.073 277.698 273.033 277.718C272.992 277.739 272.956 277.768 272.926 277.803C272.897 277.839 272.874 277.88 272.86 277.924C272.845 278.004 272.857 278.087 272.894 278.16C272.93 278.232 272.99 278.29 273.063 278.323Z" fill="#603440"/>
<path fill-rule="evenodd" clip-rule="evenodd" d="M319.728 259.722C320.011 259.674 320.298 259.655 320.585 259.665C320.758 259.69 320.927 259.737 321.089 259.806C321.215 259.861 321.332 259.936 321.435 260.029C321.601 260.15 321.744 260.3 321.86 260.472C321.957 260.622 322.045 260.778 322.123 260.939C322.269 261.244 322.389 261.56 322.482 261.886C322.484 261.926 322.494 261.966 322.51 262.003C322.527 262.04 322.551 262.074 322.58 262.101C322.61 262.129 322.644 262.151 322.682 262.165C322.719 262.179 322.759 262.185 322.798 262.183C322.838 262.182 322.877 262.172 322.913 262.155C322.949 262.138 322.982 262.113 323.008 262.083C323.035 262.053 323.056 262.018 323.07 261.98C323.083 261.942 323.089 261.901 323.088 261.86C323.179 261.382 323.209 260.893 323.175 260.406C323.157 260.18 323.112 259.957 323.039 259.742C322.934 259.389 322.746 259.069 322.49 258.808C322.343 258.658 322.17 258.536 321.98 258.451C321.712 258.316 321.418 258.244 321.119 258.24C320.852 258.234 320.585 258.268 320.329 258.343C319.973 258.462 319.635 258.63 319.324 258.844C319.271 258.87 319.223 258.906 319.184 258.951C319.145 258.996 319.115 259.049 319.096 259.107C319.078 259.164 319.071 259.225 319.076 259.285C319.08 259.346 319.097 259.404 319.125 259.458C319.146 259.517 319.179 259.571 319.222 259.616C319.264 259.662 319.315 259.698 319.371 259.723C319.428 259.748 319.489 259.76 319.55 259.76C319.611 259.76 319.672 259.747 319.728 259.722Z" fill="#603440"/>
<path style="mix-blend-mode:screen" opacity="0.97" fill-rule="evenodd" clip-rule="evenodd" d="M238.054 229.8C238.054 229.8 248.186 241.727 260.193 239.319C269.505 237.45 268.824 231.957 268.824 231.957C268.824 231.957 251.206 225.817 238.054 229.8Z" fill="url(#paint13_linear_207_5693)"/>
<mask id="mask2_207_5693" style="mask-type:alpha" maskUnits="userSpaceOnUse" x="238" y="228" width="31" height="12">
<path style="mix-blend-mode:screen" opacity="0.97" fill-rule="evenodd" clip-rule="evenodd" d="M238.054 229.8C238.054 229.8 248.186 241.727 260.193 239.319C269.505 237.45 268.824 231.957 268.824 231.957C268.824 231.957 251.206 225.817 238.054 229.8Z" fill="url(#paint14_linear_207_5693)"/>
</mask>
<g mask="url(#mask2_207_5693)">
<path d="M260.322 245.574C265.311 244.944 268.846 240.303 268.217 235.207C267.588 230.111 263.034 226.491 258.045 227.121C253.055 227.751 249.52 232.392 250.149 237.488C250.778 242.583 255.332 246.204 260.322 245.574Z" fill="#421D29"/>
</g>
<path fill-rule="evenodd" clip-rule="evenodd" d="M269.544 231.845C266.855 230.235 263.916 229.114 260.857 228.531C258.837 228.104 256.793 227.811 254.737 227.655C253.318 227.546 251.782 227.481 250.117 227.482C248.678 227.486 247.141 227.544 245.506 227.657C240.922 228.012 236.362 228.625 231.845 229.494C231.765 229.506 231.694 229.55 231.646 229.617C231.598 229.683 231.578 229.766 231.59 229.848C231.602 229.93 231.645 230.003 231.71 230.053C231.775 230.102 231.856 230.123 231.935 230.111C236.459 229.541 241.008 229.204 245.566 229.101C247.18 229.067 248.69 229.068 250.103 229.083C251.742 229.105 253.241 229.158 254.623 229.248C256.624 229.361 258.617 229.584 260.595 229.917C263.568 230.352 266.452 231.284 269.133 232.675C269.241 232.73 269.365 232.738 269.478 232.699C269.591 232.659 269.684 232.575 269.737 232.465C269.79 232.355 269.797 232.228 269.759 232.112C269.72 231.996 269.638 231.9 269.53 231.846L269.544 231.845Z" fill="#421D29"/>
<path fill-rule="evenodd" clip-rule="evenodd" d="M220.385 218.502C223.177 219.432 227.319 220.599 231.89 221.738C233.942 222.246 236.042 222.73 238.141 223.206C239.573 223.517 240.934 223.825 242.287 224.112C243.475 224.362 244.624 224.595 245.734 224.811C246.942 225.042 248.091 225.234 249.15 225.454C251.891 225.924 254.47 226.507 256.975 227.029C259.735 227.57 262.375 228.12 264.992 228.526C267.325 228.898 269.678 229.122 272.037 229.196C272.157 229.215 272.279 229.208 272.396 229.176C272.514 229.145 272.623 229.09 272.719 229.014C272.815 228.937 272.895 228.842 272.954 228.734C273.012 228.625 273.049 228.506 273.062 228.382C273.075 228.258 273.063 228.133 273.028 228.014C272.992 227.895 272.934 227.785 272.855 227.689C272.777 227.594 272.681 227.515 272.573 227.459C272.465 227.402 272.347 227.368 272.226 227.36C270.74 227.081 269.289 226.707 267.823 226.297C264.947 225.495 262.122 224.502 259.103 223.464C256.274 222.521 253.336 221.622 250.132 220.777C249.036 220.531 247.84 220.263 246.556 220.051C244.879 219.778 243.072 219.557 241.205 219.384C238.471 219.123 235.643 218.948 232.889 218.819C227.934 218.589 223.45 218.545 220.411 218.261C220.38 218.255 220.347 218.261 220.321 218.279C220.294 218.297 220.275 218.326 220.269 218.358C220.263 218.39 220.269 218.423 220.287 218.45C220.305 218.478 220.332 218.497 220.363 218.503L220.385 218.502Z" fill="#421D29"/>
<path style="mix-blend-mode:screen" opacity="0.97" d="M262.476 236.272C262.405 237.001 259.211 237.364 255.335 237.019C251.459 236.675 248.372 235.786 248.435 235.029C248.498 234.272 251.694 233.93 255.577 234.274C259.459 234.618 262.518 235.516 262.476 236.272Z" fill="url(#paint15_linear_207_5693)"/>
<path fill-rule="evenodd" clip-rule="evenodd" d="M303.224 227.721C304.479 227.493 308.786 225.08 313.644 221.703C315.749 220.239 317.899 218.598 319.949 216.942C320.993 216.084 321.987 215.208 322.91 214.336C323.574 213.712 324.196 213.085 324.762 212.468C326.298 210.816 327.688 209.028 328.918 207.126C329.173 206.636 329.555 206.228 330.022 205.948C330.49 205.668 331.024 205.527 331.566 205.539C335.71 205.46 341.065 208.328 343.858 207.759C343.893 207.755 343.926 207.738 343.95 207.712C343.974 207.685 343.988 207.65 343.989 207.613C343.987 207.595 343.982 207.578 343.973 207.562C343.964 207.546 343.953 207.532 343.939 207.521C343.925 207.51 343.909 207.502 343.892 207.497C343.875 207.492 343.858 207.491 343.84 207.493C342.036 207.417 339.686 205.719 337.107 204.275C335.489 203.322 333.739 202.63 331.918 202.221C330.654 201.942 329.34 202.028 328.123 202.47C326.906 202.913 325.834 203.694 325.026 204.726C324.191 205.751 322.76 207.048 321.176 208.601C319.937 209.834 318.582 211.219 317.211 212.678C315.231 214.757 313.26 216.965 311.385 219.029C309.089 221.541 307.08 223.824 305.498 225.398C304.783 226.19 303.979 226.892 303.102 227.49C303.085 227.494 303.069 227.503 303.054 227.514C303.04 227.525 303.028 227.539 303.019 227.555C303.01 227.572 303.005 227.589 303.003 227.608C303.001 227.626 303.003 227.645 303.008 227.663C303.018 227.681 303.032 227.697 303.049 227.71C303.065 227.724 303.084 227.733 303.104 227.738C303.124 227.744 303.145 227.745 303.166 227.742C303.186 227.739 303.206 227.732 303.224 227.721Z" fill="#421D29"/>
<path fill-rule="evenodd" clip-rule="evenodd" d="M311.723 227.136C313.733 226.572 315.783 226.173 317.855 225.942C318.666 225.837 319.508 225.753 320.466 225.624C321.424 225.496 322.65 225.364 323.909 225.187C324.608 225.083 325.383 224.959 326.163 224.799C326.713 224.69 327.269 224.559 327.845 224.405C329.093 224.076 330.373 223.68 331.779 223.291C332.895 222.978 333.988 222.652 335.245 222.337C336.942 221.863 338.598 221.392 340.505 220.889C340.539 220.887 340.57 220.871 340.592 220.845C340.614 220.819 340.626 220.785 340.623 220.751C340.621 220.717 340.606 220.684 340.58 220.662C340.555 220.639 340.522 220.627 340.488 220.63C338.517 220.275 336.79 219.991 335.02 219.789C333.712 219.644 332.52 219.557 331.318 219.513C329.872 219.457 328.425 219.481 326.982 219.583C326.363 219.628 325.746 219.708 325.135 219.821C324.324 219.972 323.522 220.17 322.732 220.414C321.541 220.78 320.375 221.23 319.244 221.759C318.109 222.279 317.01 222.877 315.953 223.548C314.349 224.474 312.877 225.622 311.578 226.958C311.563 226.967 311.55 226.979 311.541 226.994C311.531 227.008 311.524 227.025 311.522 227.042C311.519 227.059 311.52 227.077 311.524 227.094C311.528 227.111 311.536 227.127 311.547 227.141C311.573 227.16 311.604 227.169 311.636 227.168C311.668 227.168 311.698 227.156 311.723 227.136Z" fill="#421D29"/>
<path d="M204.798 225.687L203.954 191.592C203.954 191.592 194.974 158.565 211.138 149.974C227.303 141.383 252.91 147.211 278.458 145.522C304.006 143.832 326.825 124.68 340.989 138.034C355.154 151.389 353.71 172.668 357.678 181.665C361.647 190.662 363.476 189.405 363.476 189.405C363.476 189.405 384.855 126.598 380.532 96.8676C376.208 67.1374 357.669 35.8641 330.36 46.1406C330.36 46.1406 318.453 47.5 277.985 53.6369C237.516 59.7738 193.292 47.3284 185.929 80.9083C185.929 80.9083 156.235 91.5019 169.829 134.005C180.534 167.295 204.798 225.687 204.798 225.687Z" fill="#141B1F"/>
<path d="M330.395 46.1379C330.395 46.1379 353.884 49.1602 363.099 63.4357C373.079 78.9421 386.112 114.453 373.771 147.884C373.771 147.884 397.666 121.841 389.389 83.4381C381.112 45.0355 341.727 17.0883 341.727 17.0883L330.396 46.1452" fill="url(#paint16_linear_207_5693)"/>
<path d="M324.469 147.858C349.333 143.716 351.379 101.568 330.443 46.1061C306.427 -17.3984 211.308 48.0699 182.663 39.9517C182.663 39.9517 216.403 59.2659 237.881 51.308C237.881 51.308 191.156 44.2624 170.127 71.7162C170.127 71.7162 192.196 81.5436 202.678 96.6331C207.717 103.887 216.328 119.274 233.39 131.728C242.175 138.106 251.965 142.881 262.326 145.843C278.411 150.571 298.733 152.145 324.469 147.858Z" fill="#141B1F"/>
<path d="M203.544 74.6487C203.544 74.6487 181.103 81.2209 179.016 94.9469C176.929 108.673 158.688 83.5009 158.688 83.5009L171.791 76.2742L203.559 74.6476" fill="url(#paint17_linear_207_5693)"/>
<path d="M259.88 122.316C259.88 122.316 187.709 107.397 222.981 178.693C222.741 155.107 236.565 143.26 270.027 147.809L259.88 122.316Z" fill="#141B1F"/>
<path d="M212.202 130.95C212.202 130.95 214.987 99.6345 259.879 99.2358C259.879 99.2358 235.464 92.3437 220.247 105.65C205.03 118.957 212.202 130.95 212.202 130.95Z" fill="url(#paint18_linear_207_5693)"/>
<path fill-rule="evenodd" clip-rule="evenodd" d="M413.781 663.266L366.194 663.844C367.475 641.898 377.066 613.796 388.84 584.084L399.092 566.024L451.954 630.621L413.781 663.23" fill="url(#paint19_linear_207_5693)"/>
<path fill-rule="evenodd" clip-rule="evenodd" d="M399.092 619.453C399.092 619.453 419.795 650.212 467.058 659.524C529.377 671.805 479.029 581.079 479.029 581.079C479.029 581.079 428.329 576.665 410.831 566.06L399.092 619.453Z" fill="#AA7481"/>
<path fill-rule="evenodd" clip-rule="evenodd" d="M413.112 663.844L451.954 630.657L410.809 566.06L399.092 548.672C399.092 548.672 475.199 560.888 497.204 566.06C519.209 571.232 531.06 635.8 534.637 647.865C538.215 659.929 514.139 663.302 514.139 663.302L413.112 663.844Z" fill="url(#paint20_linear_207_5693)"/>
<path fill-rule="evenodd" clip-rule="evenodd" d="M157.463 452.737C166.111 461.11 178.969 503.435 172.814 505.964C161.604 510.565 139.718 478.26 136.388 463.898C133.057 449.537 148.816 444.372 157.463 452.737Z" fill="url(#paint21_linear_207_5693)"/>
<path fill-rule="evenodd" clip-rule="evenodd" d="M138.008 508.752L172.815 440.081L133.381 412.175L100.743 458.322C100.743 458.322 91.1874 498.913 138.008 508.752Z" fill="#AA7481"/>
<path fill-rule="evenodd" clip-rule="evenodd" d="M127.233 420.908C127.233 420.908 137.796 499.57 172.814 506.108C172.814 506.108 138.373 628.193 123.994 662.204C122.917 664.754 25.4598 661.908 25.4598 661.908L0.173096 595.888C0.173096 595.888 25.1992 547.487 38.9869 532.093C54.0279 515.239 110.023 440.023 127.233 420.908Z" fill="url(#paint22_linear_207_5693)"/>
<path d="M276.447 435.27H230.598V481.929H276.447V435.27Z" fill="url(#paint23_linear_207_5693)"/>
<path d="M309.761 481.929H194.7V498.241H309.761V481.929Z" fill="url(#paint24_linear_207_5693)"/>
<path d="M284.601 498.241H222.444V613.919H284.601V498.241Z" fill="url(#paint25_linear_207_5693)"/>
<path d="M334.921 613.919H172.138V655.341H334.921V613.919Z" fill="url(#paint26_linear_207_5693)"/>
<path fill-rule="evenodd" clip-rule="evenodd" d="M319.26 655.341H298.339C298.339 656.44 298.55 657.529 298.961 658.544C299.371 659.56 299.972 660.482 300.73 661.259C301.488 662.036 302.388 662.652 303.378 663.072C304.368 663.492 305.429 663.708 306.501 663.707H311.106C313.268 663.707 315.343 662.825 316.872 661.257C318.401 659.688 319.26 657.56 319.26 655.341ZM208.706 655.341H187.799C187.799 657.556 188.655 659.681 190.18 661.249C191.704 662.817 193.773 663.701 195.932 663.707H200.537C201.609 663.708 202.67 663.492 203.66 663.072C204.65 662.652 205.55 662.036 206.308 661.259C207.066 660.482 207.667 659.56 208.077 658.544C208.487 657.529 208.699 656.44 208.699 655.341H208.706Z" fill="url(#paint27_linear_207_5693)"/>
<path d="M222.451 592.746H172.138V613.919H222.451V592.746Z" fill="url(#paint28_linear_207_5693)"/>
<path d="M291.142 337.06H212.064V397.365H291.142V337.06Z" fill="url(#paint29_linear_207_5693)"/>
<path d="M291.142 363.456H212.064V369.575H291.142V363.456Z" fill="url(#paint30_linear_207_5693)"/>
<path d="M251.604 432.351C271.92 432.351 288.39 423.078 288.39 411.64C288.39 400.201 271.92 390.929 251.604 390.929C231.288 390.929 214.818 400.201 214.818 411.64C214.818 423.078 231.288 432.351 251.604 432.351Z" fill="#181818"/>
<path d="M251.604 438.715C272.605 438.715 289.629 429.443 289.629 418.004C289.629 406.566 272.605 397.293 251.604 397.293C230.603 397.293 213.579 406.566 213.579 418.004C213.579 429.443 230.603 438.715 251.604 438.715Z" fill="#808080"/>
<path fill-rule="evenodd" clip-rule="evenodd" d="M234.915 595.513C235.091 594.256 237.894 573.971 244.534 567.173H262.525C269.166 573.971 271.968 594.256 272.137 595.513V595.578H234.908L234.915 595.513Z" fill="url(#paint31_linear_207_5693)"/>
<path fill-rule="evenodd" clip-rule="evenodd" d="M284.735 508.586C285.96 508.759 305.733 511.634 312.359 518.446V536.904C305.733 543.723 285.96 546.598 284.735 546.772H284.657V508.571L284.735 508.586Z" fill="url(#paint32_linear_207_5693)"/>
<path fill-rule="evenodd" clip-rule="evenodd" d="M222.614 508.586C221.381 508.759 201.608 511.634 194.982 518.446V536.904C201.608 543.723 221.381 546.598 222.614 546.772H222.691V508.571L222.614 508.586Z" fill="url(#paint33_linear_207_5693)"/>
<path fill-rule="evenodd" clip-rule="evenodd" d="M265.248 413.584C265.268 412.373 265.056 411.17 264.623 410.044C264.191 408.917 263.546 407.889 262.726 407.018C261.905 406.147 260.926 405.451 259.843 404.968C258.761 404.486 257.596 404.227 256.416 404.207L249.292 404.078C246.909 404.039 244.607 404.972 242.893 406.67C241.178 408.369 240.19 410.696 240.145 413.141C239.973 424.242 239.66 442.217 239.54 449.357C239.528 450.32 239.715 451.274 240.088 452.157C240.462 453.04 241.013 453.832 241.707 454.48L247.218 459.634L256.204 459.793L262.194 454.843C262.94 454.22 263.545 453.436 263.964 452.547C264.384 451.659 264.609 450.686 264.623 449.699C264.77 442.476 265.061 424.613 265.248 413.584Z" fill="url(#paint34_linear_207_5693)"/>
<path fill-rule="evenodd" clip-rule="evenodd" d="M281.138 409.298C280.524 408.263 279.718 407.363 278.765 406.648C277.813 405.933 276.732 405.418 275.585 405.132C274.438 404.846 273.247 404.795 272.081 404.981C270.915 405.167 269.795 405.587 268.787 406.217L262.7 410.015C260.665 411.289 259.206 413.339 258.643 415.715C258.079 418.091 258.457 420.6 259.692 422.691C265.332 432.167 274.434 447.529 278.054 453.629C278.545 454.449 279.2 455.153 279.976 455.694C280.752 456.236 281.63 456.603 282.554 456.77L289.897 458.104L297.574 453.309L300.057 445.842C300.363 444.905 300.466 443.911 300.357 442.93C300.249 441.949 299.932 441.003 299.43 440.161C295.789 433.977 286.727 418.721 281.138 409.298Z" fill="url(#paint35_linear_207_5693)"/>
<path d="M334.913 592.746H284.601V613.919H334.913V592.746Z" fill="url(#paint36_linear_207_5693)"/>
<path fill-rule="evenodd" clip-rule="evenodd" d="M133.409 412.174C133.409 412.174 156.457 366.439 161.407 347.794C161.407 347.794 175.166 341.531 186.877 346.935C198.587 352.338 212.346 378.056 212.346 378.056C212.346 378.056 207.91 413.453 198.679 424.838C189.447 436.223 161.428 458.321 161.428 458.321C161.428 458.321 131.029 456.653 133.409 412.174Z" fill="#187287"/>
<path fill-rule="evenodd" clip-rule="evenodd" d="M187.419 372.63C187.419 372.63 203.615 351.031 214.445 347.672C223.902 344.782 231.57 342.564 238.02 339.003C238.392 338.782 238.805 338.648 239.233 338.609C239.66 338.571 240.091 338.629 240.494 338.78C240.897 338.931 241.262 339.171 241.565 339.483C241.868 339.794 242.1 340.171 242.245 340.585C243.837 344.999 245.154 352.866 236.732 356.991C224.599 362.958 217.621 368.152 217.621 368.152L208.185 390.026C208.185 390.026 173.244 392.374 187.419 372.63Z" fill="#187287"/>
<path fill-rule="evenodd" clip-rule="evenodd" d="M374.256 515.839C374.256 515.839 407.352 552.111 412.063 569.614C416.774 587.118 407.373 617.538 397.838 619.286C388.304 621.035 365.954 608.949 355.588 599.969C345.223 590.99 355.609 524.826 374.256 515.839Z" fill="url(#paint37_linear_207_5693)"/>
<path fill-rule="evenodd" clip-rule="evenodd" d="M290.812 512.639C295.037 516.829 308.416 527.809 332.302 526.689C332.302 526.689 356.75 536.688 369.439 536.803C382.128 536.919 374.256 515.854 374.256 515.854C374.256 515.854 346.483 506.672 340.836 506.144C335.189 505.617 311.367 507.531 297.635 499.506C285.15 492.195 285.538 507.409 290.812 512.639Z" fill="url(#paint38_linear_207_5693)"/>
<path fill-rule="evenodd" clip-rule="evenodd" d="M368.968 530.432C368.968 530.432 338.167 533.805 329.844 535.488C321.521 537.172 302.445 533.22 294.495 541.716C290.587 545.884 294.431 556.619 321.253 558.331C348.075 560.043 368.742 555.759 368.742 555.759C368.742 555.759 370.644 541.585 368.968 530.432Z" fill="url(#paint39_linear_207_5693)"/>
<path fill-rule="evenodd" clip-rule="evenodd" d="M309.761 591.38C311.014 597.983 351.194 604.275 369.665 603.726C388.135 603.177 377.657 589.198 374.256 585.406C370.855 581.613 322.619 581.223 319.802 582.155C316.986 583.087 308.874 586.677 309.761 591.38Z" fill="#187287"/>
<path fill-rule="evenodd" clip-rule="evenodd" d="M364.785 553.822C364.785 553.822 316.711 558.402 314.155 566.486C311.599 574.57 311.74 584.055 319.176 585.16C326.612 586.265 365.172 583.325 369.665 582.798C374.157 582.27 379.016 566.739 364.785 553.822Z" fill="#187287"/>
<path fill-rule="evenodd" clip-rule="evenodd" d="M244.469 420.926C244.958 419.823 245.23 418.633 245.27 417.423C245.31 416.213 245.117 415.006 244.702 413.872C244.288 412.739 243.659 411.7 242.853 410.815C242.047 409.931 241.079 409.218 240.005 408.717L233.519 405.69C231.348 404.682 228.875 404.597 226.643 405.456C224.411 406.314 222.602 408.046 221.612 410.27C217.147 420.384 209.887 436.746 207.007 443.248C206.623 444.126 206.424 445.077 206.424 446.04C206.424 447.002 206.623 447.954 207.007 448.832L210.063 455.81L218.246 459.624L225.661 457.53C226.587 457.262 227.446 456.79 228.176 456.146C228.906 455.502 229.489 454.702 229.886 453.802C232.822 447.235 240.019 430.967 244.469 420.926Z" fill="url(#paint40_linear_207_5693)"/>
<path fill-rule="evenodd" clip-rule="evenodd" d="M267.089 260.016C267.089 255.801 265.457 251.758 262.551 248.778C259.646 245.798 255.706 244.123 251.597 244.123C247.488 244.123 243.548 245.798 240.643 248.778C237.738 251.758 236.105 255.801 236.105 260.016V320.748H267.089V260.016Z" fill="url(#paint41_linear_207_5693)"/>
<path fill-rule="evenodd" clip-rule="evenodd" d="M261.342 239.767C260.532 246.586 260.124 330.832 260.124 330.832L271.687 334.61L271.179 241.305L261.342 239.767Z" fill="url(#paint42_linear_207_5693)"/>
<path d="M280.707 320.748H222.493V337.276H280.707V320.748Z" fill="url(#paint43_linear_207_5693)"/>
<path fill-rule="evenodd" clip-rule="evenodd" d="M175.103 359.959C175.103 359.959 189.031 338.035 193.446 330.811C197.862 323.587 223.944 321.781 237.739 314.528C241.837 312.361 245.013 328.607 230.627 334.242C220.768 338.1 210.079 343.286 210.079 343.286L192.193 371.337C192.193 371.337 178.786 386.24 175.103 359.959Z" fill="url(#paint44_linear_207_5693)"/>
<path fill-rule="evenodd" clip-rule="evenodd" d="M161.428 347.794C161.428 347.794 176.174 324.425 185.215 300.838C185.742 299.454 186.607 298.232 187.726 297.29C188.846 296.348 190.183 295.716 191.609 295.456C201.77 293.571 225.775 288.37 237.633 279.491C237.958 279.247 238.331 279.076 238.725 278.992C239.12 278.908 239.528 278.911 239.921 279.002C240.314 279.093 240.683 279.27 241.004 279.52C241.325 279.77 241.59 280.088 241.781 280.452C243.189 283.19 244.513 287.532 241.943 291.859C237.718 298.974 216.234 306.307 209.368 307.029L186.877 349.514C186.877 349.514 164.034 374.133 161.428 347.794Z" fill="url(#paint45_linear_207_5693)"/>
<path fill-rule="evenodd" clip-rule="evenodd" d="M166.786 359.172C166.786 359.172 181.525 335.803 190.573 312.216C191.099 310.832 191.962 309.609 193.08 308.665C194.199 307.722 195.535 307.089 196.96 306.827C207.121 304.949 231.133 299.748 242.985 290.869C243.31 290.625 243.682 290.454 244.076 290.37C244.471 290.286 244.879 290.289 245.272 290.38C245.665 290.471 246.035 290.648 246.355 290.898C246.676 291.148 246.941 291.466 247.132 291.83C248.541 294.568 249.871 298.91 247.301 303.237C243.076 310.345 220.451 321.514 213.586 322.236L192.256 360.863C192.256 360.863 169.413 385.504 166.786 359.172Z" fill="url(#paint46_linear_207_5693)"/>
<path fill-rule="evenodd" clip-rule="evenodd" d="M133.409 412.175C133.409 412.175 156.935 366.519 165.23 347.635L184.031 305.447L161.428 347.794L133.43 412.175" fill="url(#paint47_linear_207_5693)"/>
<defs>
<linearGradient id="paint0_linear_207_5693" x1="231.754" y1="762.358" x2="301.62" y2="493.123" gradientUnits="userSpaceOnUse">
<stop stop-color="#809CB9"/>
<stop offset="0.2" stop-color="#859FBB"/>
<stop offset="0.43" stop-color="#92AAC2"/>
<stop offset="0.66" stop-color="#A8BACE"/>
<stop offset="0.9" stop-color="#C7D2DD"/>
<stop offset="1" stop-color="#D6DDE5"/>
</linearGradient>
<linearGradient id="paint1_linear_207_5693" x1="231.754" y1="762.358" x2="301.619" y2="493.123" gradientUnits="userSpaceOnUse">
<stop stop-color="#809CB9"/>
<stop offset="0.2" stop-color="#859FBB"/>
<stop offset="0.43" stop-color="#92AAC2"/>
<stop offset="0.66" stop-color="#A8BACE"/>
<stop offset="0.9" stop-color="#C7D2DD"/>
<stop offset="1" stop-color="#D6DDE5"/>
</linearGradient>
<linearGradient id="paint2_linear_207_5693" x1="283.728" y1="280.235" x2="272.486" y2="377.045" gradientUnits="userSpaceOnUse">
<stop offset="0.31" stop-color="#141B1F"/>
<stop offset="0.52" stop-color="#263238"/>
<stop offset="0.65" stop-color="#455A64"/>
<stop offset="0.75" stop-color="#455A64"/>
<stop offset="0.84" stop-color="#455A64"/>
<stop offset="0.92" stop-color="#005B77"/>
<stop offset="0.98" stop-color="#007288"/>
</linearGradient>
<linearGradient id="paint3_linear_207_5693" x1="233.908" y1="471.368" x2="362.533" y2="327.545" gradientUnits="userSpaceOnUse">
<stop stop-color="#D3CBE7"/>
<stop offset="0.37" stop-color="#E5E0F1"/>
<stop offset="1" stop-color="white"/>
</linearGradient>
<linearGradient id="paint4_linear_207_5693" x1="168.301" y1="367.79" x2="274.285" y2="367.79" gradientUnits="userSpaceOnUse">
<stop stop-color="#809CB9"/>
<stop offset="0.2" stop-color="#859FBB"/>
<stop offset="0.43" stop-color="#92AAC2"/>
<stop offset="0.66" stop-color="#A8BACE"/>
<stop offset="0.9" stop-color="#C7D2DD"/>
<stop offset="1" stop-color="#D6DDE5"/>
</linearGradient>
<linearGradient id="paint5_linear_207_5693" x1="101.44" y1="398.81" x2="117.479" y2="337.016" gradientUnits="userSpaceOnUse">
<stop stop-color="#809CB9"/>
<stop offset="0.2" stop-color="#859FBB"/>
<stop offset="0.43" stop-color="#92AAC2"/>
<stop offset="0.66" stop-color="#A8BACE"/>
<stop offset="0.9" stop-color="#C7D2DD"/>
<stop offset="1" stop-color="#D6DDE5"/>
</linearGradient>
<linearGradient id="paint6_linear_207_5693" x1="172.564" y1="43.3676" x2="310.831" y2="24.6544" gradientUnits="userSpaceOnUse">
<stop stop-color="#3D4F58"/>
<stop offset="0.124422" stop-color="#263238"/>
<stop offset="0.786458" stop-color="#141B1F"/>
</linearGradient>
<linearGradient id="paint7_linear_207_5693" x1="148.904" y1="260.355" x2="208.648" y2="196.03" gradientUnits="userSpaceOnUse">
<stop offset="0.03" stop-color="#BB7482"/>
<stop offset="0.3" stop-color="#B7717F"/>
<stop offset="0.54" stop-color="#AD6876"/>
<stop offset="0.77" stop-color="#9A5868"/>
<stop offset="0.99" stop-color="#814254"/>
<stop offset="1" stop-color="#7F4052"/>
</linearGradient>
<linearGradient id="paint8_linear_207_5693" x1="354.711" y1="181.622" x2="389.745" y2="179.305" gradientUnits="userSpaceOnUse">
<stop offset="0.22" stop-color="#FF9C9C"/>
<stop offset="0.96" stop-color="#DA949F"/>
</linearGradient>
<linearGradient id="paint9_linear_207_5693" x1="291.141" y1="78.5329" x2="231.903" y2="312.256" gradientUnits="userSpaceOnUse">
<stop offset="0.16" stop-color="#8A495B"/>
<stop offset="0.21" stop-color="#904E60"/>
<stop offset="0.61" stop-color="#BB7482"/>
<stop offset="0.72" stop-color="#B7717F"/>
<stop offset="0.81" stop-color="#AD6876"/>
<stop offset="0.9" stop-color="#9A5868"/>
<stop offset="0.99" stop-color="#814254"/>
<stop offset="1" stop-color="#7F4052"/>
</linearGradient>
<linearGradient id="paint10_linear_207_5693" x1="291.141" y1="78.5329" x2="231.903" y2="312.256" gradientUnits="userSpaceOnUse">
<stop offset="0.16" stop-color="#8A495B"/>
<stop offset="0.21" stop-color="#904E60"/>
<stop offset="0.61" stop-color="#BB7482"/>
<stop offset="0.72" stop-color="#B7717F"/>
<stop offset="0.81" stop-color="#AD6876"/>
<stop offset="0.9" stop-color="#9A5868"/>
<stop offset="0.99" stop-color="#814254"/>
<stop offset="1" stop-color="#7F4052"/>
</linearGradient>
<linearGradient id="paint11_linear_207_5693" x1="341.375" y1="270.214" x2="363.087" y2="153.352" gradientUnits="userSpaceOnUse">
<stop offset="0.22" stop-color="#FF9C9C"/>
<stop offset="0.96" stop-color="#DA949F"/>
</linearGradient>
<linearGradient id="paint12_linear_207_5693" x1="307.605" y1="277.431" x2="278.086" y2="231.257" gradientUnits="userSpaceOnUse">
<stop offset="0.46" stop-color="#FF9C9C"/>
<stop offset="0.96" stop-color="#DA949F"/>
</linearGradient>
<linearGradient id="paint13_linear_207_5693" x1="253.998" y1="225.031" x2="251.724" y2="246.916" gradientUnits="userSpaceOnUse">
<stop offset="0.07"/>
<stop offset="0.25" stop-color="#233C45"/>
<stop offset="0.45" stop-color="#487D8F"/>
<stop offset="0.6" stop-color="#60A5BD"/>
<stop offset="0.67" stop-color="#69B5CF"/>
</linearGradient>
<linearGradient id="paint14_linear_207_5693" x1="253.998" y1="225.031" x2="251.724" y2="246.916" gradientUnits="userSpaceOnUse">
<stop offset="0.07"/>
<stop offset="0.25" stop-color="#233C45"/>
<stop offset="0.45" stop-color="#487D8F"/>
<stop offset="0.6" stop-color="#60A5BD"/>
<stop offset="0.67" stop-color="#69B5CF"/>
</linearGradient>
<linearGradient id="paint15_linear_207_5693" x1="262.441" y1="238.488" x2="253.492" y2="237.372" gradientUnits="userSpaceOnUse">
<stop offset="0.07"/>
<stop offset="0.29" stop-color="#233C45"/>
<stop offset="0.54" stop-color="#487D8F"/>
<stop offset="0.72" stop-color="#60A5BD"/>
<stop offset="0.81" stop-color="#69B5CF"/>
</linearGradient>
<linearGradient id="paint16_linear_207_5693" x1="376.923" y1="157.566" x2="344.787" y2="32.7243" gradientUnits="userSpaceOnUse">
<stop stop-color="#455A64"/>
<stop offset="0.317708" stop-color="#263238"/>
<stop offset="1" stop-color="#141B1F"/>
</linearGradient>
<linearGradient id="paint17_linear_207_5693" x1="159.237" y1="83.9935" x2="185.336" y2="92.9239" gradientUnits="userSpaceOnUse">
<stop stop-color="#455A64"/>
<stop offset="0.244792" stop-color="#263238"/>
<stop offset="0.734375" stop-color="#141B1F"/>
</linearGradient>
<linearGradient id="paint18_linear_207_5693" x1="209.938" y1="115.389" x2="260.725" y2="112.03" gradientUnits="userSpaceOnUse">
<stop stop-color="#455A64"/>
<stop offset="0.265625" stop-color="#263238"/>
<stop offset="0.546875" stop-color="#171F23"/>
<stop offset="1" stop-color="#131F33"/>
</linearGradient>
<linearGradient id="paint19_linear_207_5693" x1="436.371" y1="619.243" x2="322.233" y2="610.578" gradientUnits="userSpaceOnUse">
<stop offset="0.45" stop-color="#809CB9"/>
<stop offset="0.56" stop-color="#859FBB"/>
<stop offset="0.69" stop-color="#92AAC2"/>
<stop offset="0.81" stop-color="#A8BACE"/>
<stop offset="0.95" stop-color="#C7D2DD"/>
<stop offset="1" stop-color="#D6DDE5"/>
</linearGradient>
<linearGradient id="paint20_linear_207_5693" x1="448.989" y1="672.469" x2="476.396" y2="567.841" gradientUnits="userSpaceOnUse">
<stop offset="0.13" stop-color="#D3CBE7"/>
<stop offset="0.35" stop-color="#D8D1EA"/>
<stop offset="0.63" stop-color="#E5E0F1"/>
<stop offset="0.95" stop-color="#FBFBFD"/>
<stop offset="1" stop-color="white"/>
</linearGradient>
<linearGradient id="paint21_linear_207_5693" x1="135.937" y1="477.566" x2="174.427" y2="477.566" gradientUnits="userSpaceOnUse">
<stop stop-color="#557E84"/>
<stop offset="0.15" stop-color="#668B90"/>
<stop offset="0.45" stop-color="#93ADB1"/>
<stop offset="0.86" stop-color="#DBE3E4"/>
<stop offset="1" stop-color="#F5F7F7"/>
</linearGradient>
<linearGradient id="paint22_linear_207_5693" x1="127.994" y1="587.508" x2="57.9316" y2="528.087" gradientUnits="userSpaceOnUse">
<stop stop-color="#809CB9"/>
<stop offset="0.2" stop-color="#859FBB"/>
<stop offset="0.43" stop-color="#92AAC2"/>
<stop offset="0.66" stop-color="#A8BACE"/>
<stop offset="0.9" stop-color="#C7D2DD"/>
<stop offset="1" stop-color="#D6DDE5"/>
</linearGradient>
<linearGradient id="paint23_linear_207_5693" x1="240.449" y1="458.856" x2="311.206" y2="457.531" gradientUnits="userSpaceOnUse">
<stop stop-color="#007288"/>
<stop offset="0.23" stop-color="#4799A9"/>
<stop offset="0.51" stop-color="#95C4CD"/>
<stop offset="0.74" stop-color="#CEE4E8"/>
<stop offset="0.91" stop-color="#F2F8F9"/>
<stop offset="1" stop-color="white"/>
</linearGradient>
<linearGradient id="paint24_linear_207_5693" x1="187.785" y1="498.841" x2="341.119" y2="497.978" gradientUnits="userSpaceOnUse">
<stop stop-color="#187287"/>
<stop offset="0.03" stop-color="#455A64"/>
<stop offset="0.09" stop-color="#263238"/>
<stop offset="0.15" stop-color="#141B1F"/>
<stop offset="0.2" stop-color="#0C0E2C"/>
<stop offset="0.26" stop-color="#070820"/>
<stop offset="0.32" stop-color="#06061C"/>
<stop offset="0.44" stop-color="#06081E"/>
<stop offset="0.51" stop-color="#061124"/>
<stop offset="0.57" stop-color="#051F2E"/>
<stop offset="0.62" stop-color="#05333C"/>
<stop offset="0.66" stop-color="#044D4E"/>
<stop offset="0.71" stop-color="#036D65"/>
<stop offset="0.75" stop-color="#02937F"/>
<stop offset="0.79" stop-color="#01C09E"/>
<stop offset="0.82" stop-color="#00F0C1"/>
<stop offset="0.83" stop-color="#00F8C6"/>
</linearGradient>
<linearGradient id="paint25_linear_207_5693" x1="171.913" y1="577.113" x2="293.283" y2="547.386" gradientUnits="userSpaceOnUse">
<stop stop-color="#007288"/>
<stop offset="0.23" stop-color="#4799A9"/>
<stop offset="0.51" stop-color="#95C4CD"/>
<stop offset="0.74" stop-color="#CEE4E8"/>
<stop offset="0.91" stop-color="#F2F8F9"/>
<stop offset="1" stop-color="white"/>
</linearGradient>
<linearGradient id="paint26_linear_207_5693" x1="134.254" y1="653.868" x2="339.435" y2="622.413" gradientUnits="userSpaceOnUse">
<stop stop-color="#007288"/>
<stop offset="0.23" stop-color="#4799A9"/>
<stop offset="0.51" stop-color="#95C4CD"/>
<stop offset="0.74" stop-color="#CEE4E8"/>
<stop offset="0.91" stop-color="#F2F8F9"/>
<stop offset="1" stop-color="white"/>
</linearGradient>
<linearGradient id="paint27_linear_207_5693" x1="162.808" y1="672.383" x2="452.353" y2="631.693" gradientUnits="userSpaceOnUse">
<stop stop-color="#334299"/>
<stop offset="0.03" stop-color="#2A3680"/>
<stop offset="0.09" stop-color="#1D255C"/>
<stop offset="0.15" stop-color="#131740"/>
<stop offset="0.2" stop-color="#0C0E2C"/>
<stop offset="0.26" stop-color="#070820"/>
<stop offset="0.32" stop-color="#06061C"/>
<stop offset="0.46" stop-color="#06081E"/>
<stop offset="0.55" stop-color="#061124"/>
<stop offset="0.62" stop-color="#051F2E"/>
<stop offset="0.68" stop-color="#05333C"/>
<stop offset="0.74" stop-color="#044D4E"/>
<stop offset="0.79" stop-color="#036D65"/>
<stop offset="0.84" stop-color="#02937F"/>
<stop offset="0.88" stop-color="#01C09E"/>
<stop offset="0.93" stop-color="#00F8C6"/>
</linearGradient>
<linearGradient id="paint28_linear_207_5693" x1="329.264" y1="641.76" x2="131.684" y2="569.98" gradientUnits="userSpaceOnUse">
<stop stop-color="#263238"/>
<stop offset="0.03" stop-color="#455A64"/>
<stop offset="0.09" stop-color="#455A64"/>
<stop offset="0.15" stop-color="#455A64"/>
<stop offset="0.2" stop-color="#263238"/>
<stop offset="0.26" stop-color="#263238"/>
<stop offset="0.32" stop-color="#06061C"/>
<stop offset="0.46" stop-color="#06081E"/>
<stop offset="0.55" stop-color="#061124"/>
<stop offset="0.62" stop-color="#051F2E"/>
<stop offset="0.68" stop-color="#05333C"/>
<stop offset="0.74" stop-color="#044D4E"/>
<stop offset="0.79" stop-color="#036D65"/>
<stop offset="0.84" stop-color="#02937F"/>
<stop offset="0.88" stop-color="#01C09E"/>
<stop offset="0.93" stop-color="#00F8C6"/>
</linearGradient>
<linearGradient id="paint29_linear_207_5693" x1="214.043" y1="372.233" x2="305.612" y2="360.61" gradientUnits="userSpaceOnUse">
<stop stop-color="#007288"/>
<stop offset="0.23" stop-color="#4799A9"/>
<stop offset="0.51" stop-color="#95C4CD"/>
<stop offset="0.74" stop-color="#CEE4E8"/>
<stop offset="0.91" stop-color="#F2F8F9"/>
<stop offset="1" stop-color="white"/>
</linearGradient>
<linearGradient id="paint30_linear_207_5693" x1="101.444" y1="366.797" x2="325.02" y2="366.066" gradientUnits="userSpaceOnUse">
<stop stop-color="#334299"/>
<stop offset="0.03" stop-color="#2A3680"/>
<stop offset="0.09" stop-color="#1D255C"/>
<stop offset="0.15" stop-color="#131740"/>
<stop offset="0.2" stop-color="#0C0E2C"/>
<stop offset="0.26" stop-color="#070820"/>
<stop offset="0.32" stop-color="#06061C"/>
<stop offset="0.44" stop-color="#06081E"/>
<stop offset="0.51" stop-color="#061124"/>
<stop offset="0.57" stop-color="#051F2E"/>
<stop offset="0.62" stop-color="#05333C"/>
<stop offset="0.66" stop-color="#044D4E"/>
<stop offset="0.71" stop-color="#036D65"/>
<stop offset="0.75" stop-color="#02937F"/>
<stop offset="0.79" stop-color="#01C09E"/>
<stop offset="0.82" stop-color="#00F0C1"/>
<stop offset="0.83" stop-color="#00F8C6"/>
</linearGradient>
<linearGradient id="paint31_linear_207_5693" x1="152.224" y1="597.073" x2="441.77" y2="556.383" gradientUnits="userSpaceOnUse">
<stop stop-color="#334299"/>
<stop offset="0.03" stop-color="#2A3680"/>
<stop offset="0.09" stop-color="#1D255C"/>
<stop offset="0.15" stop-color="#131740"/>
<stop offset="0.2" stop-color="#0C0E2C"/>
<stop offset="0.26" stop-color="#070820"/>
<stop offset="0.32" stop-color="#06061C"/>
<stop offset="0.46" stop-color="#06081E"/>
<stop offset="0.55" stop-color="#061124"/>
<stop offset="0.62" stop-color="#051F2E"/>
<stop offset="0.68" stop-color="#05333C"/>
<stop offset="0.74" stop-color="#044D4E"/>
<stop offset="0.79" stop-color="#036D65"/>
<stop offset="0.84" stop-color="#02937F"/>
<stop offset="0.88" stop-color="#01C09E"/>
<stop offset="0.93" stop-color="#00F8C6"/>
</linearGradient>
<linearGradient id="paint32_linear_207_5693" x1="442.659" y1="583.066" x2="237.498" y2="515.395" gradientUnits="userSpaceOnUse">
<stop stop-color="#334299"/>
<stop offset="0.03" stop-color="#2A3680"/>
<stop offset="0.09" stop-color="#1D255C"/>
<stop offset="0.15" stop-color="#131740"/>
<stop offset="0.2" stop-color="#0C0E2C"/>
<stop offset="0.26" stop-color="#070820"/>
<stop offset="0.32" stop-color="#06061C"/>
<stop offset="0.46" stop-color="#06081E"/>
<stop offset="0.55" stop-color="#061124"/>
<stop offset="0.62" stop-color="#051F2E"/>
<stop offset="0.68" stop-color="#05333C"/>
<stop offset="0.74" stop-color="#044D4E"/>
<stop offset="0.79" stop-color="#036D65"/>
<stop offset="0.84" stop-color="#02937F"/>
<stop offset="0.88" stop-color="#01C09E"/>
<stop offset="0.93" stop-color="#00F8C6"/>
</linearGradient>
<linearGradient id="paint33_linear_207_5693" x1="-21.2289" y1="574.605" x2="308.141" y2="516.231" gradientUnits="userSpaceOnUse">
<stop stop-color="#334299"/>
<stop offset="0.03" stop-color="#2A3680"/>
<stop offset="0.09" stop-color="#1D255C"/>
<stop offset="0.15" stop-color="#131740"/>
<stop offset="0.2" stop-color="#0C0E2C"/>
<stop offset="0.26" stop-color="#070820"/>
<stop offset="0.32" stop-color="#06061C"/>
<stop offset="0.46" stop-color="#06081E"/>
<stop offset="0.55" stop-color="#061124"/>
<stop offset="0.62" stop-color="#051F2E"/>
<stop offset="0.68" stop-color="#05333C"/>
<stop offset="0.74" stop-color="#044D4E"/>
<stop offset="0.79" stop-color="#036D65"/>
<stop offset="0.84" stop-color="#02937F"/>
<stop offset="0.88" stop-color="#01C09E"/>
<stop offset="0.93" stop-color="#00F8C6"/>
</linearGradient>
<linearGradient id="paint34_linear_207_5693" x1="238.428" y1="431.025" x2="322.174" y2="435.642" gradientUnits="userSpaceOnUse">
<stop stop-color="#0B0D29"/>
<stop offset="0.03" stop-color="#263238"/>
<stop offset="0.09" stop-color="#263238"/>
<stop offset="0.15" stop-color="#455A64"/>
<stop offset="0.2" stop-color="#263238"/>
<stop offset="0.26" stop-color="#070820"/>
<stop offset="0.32" stop-color="#06061C"/>
<stop offset="0.46" stop-color="#06081E"/>
<stop offset="0.55" stop-color="#061124"/>
<stop offset="0.62" stop-color="#051F2E"/>
<stop offset="0.68" stop-color="#05333C"/>
<stop offset="0.74" stop-color="#044D4E"/>
<stop offset="0.79" stop-color="#036D65"/>
<stop offset="0.84" stop-color="#02937F"/>
<stop offset="0.88" stop-color="#01C09E"/>
<stop offset="0.93" stop-color="#00F8C6"/>
</linearGradient>
<linearGradient id="paint35_linear_207_5693" x1="267.56" y1="438.746" x2="341.729" y2="398.541" gradientUnits="userSpaceOnUse">
<stop stop-color="#0B0D29"/>
<stop offset="0.03" stop-color="#263238"/>
<stop offset="0.09" stop-color="#263238"/>
<stop offset="0.15" stop-color="#455A64"/>
<stop offset="0.2" stop-color="#263238"/>
<stop offset="0.26" stop-color="#070820"/>
<stop offset="0.32" stop-color="#06061C"/>
<stop offset="0.46" stop-color="#06081E"/>
<stop offset="0.55" stop-color="#061124"/>
<stop offset="0.62" stop-color="#051F2E"/>
<stop offset="0.68" stop-color="#05333C"/>
<stop offset="0.74" stop-color="#044D4E"/>
<stop offset="0.79" stop-color="#036D65"/>
<stop offset="0.84" stop-color="#02937F"/>
<stop offset="0.88" stop-color="#01C09E"/>
<stop offset="0.93" stop-color="#00F8C6"/>
</linearGradient>
<linearGradient id="paint36_linear_207_5693" x1="156.287" y1="626.027" x2="363.525" y2="594.716" gradientUnits="userSpaceOnUse">
<stop stop-color="#334299"/>
<stop offset="0.03" stop-color="#2A3680"/>
<stop offset="0.09" stop-color="#1D255C"/>
<stop offset="0.15" stop-color="#131740"/>
<stop offset="0.2" stop-color="#0C0E2C"/>
<stop offset="0.26" stop-color="#070820"/>
<stop offset="0.32" stop-color="#06061C"/>
<stop offset="0.46" stop-color="#06081E"/>
<stop offset="0.55" stop-color="#061124"/>
<stop offset="0.62" stop-color="#051F2E"/>
<stop offset="0.68" stop-color="#05333C"/>
<stop offset="0.74" stop-color="#044D4E"/>
<stop offset="0.79" stop-color="#036D65"/>
<stop offset="0.84" stop-color="#02937F"/>
<stop offset="0.88" stop-color="#01C09E"/>
<stop offset="0.93" stop-color="#00F8C6"/>
</linearGradient>
<linearGradient id="paint37_linear_207_5693" x1="436.152" y1="564.066" x2="382.982" y2="567.623" gradientUnits="userSpaceOnUse">
<stop stop-color="#94CA9D"/>
<stop offset="0.57" stop-color="#73B397"/>
<stop offset="0.65" stop-color="#529B91"/>
<stop offset="0.73" stop-color="#39898D"/>
<stop offset="0.81" stop-color="#267C8A"/>
<stop offset="0.9" stop-color="#1C7588"/>
<stop offset="1" stop-color="#187287"/>
</linearGradient>
<linearGradient id="paint38_linear_207_5693" x1="333.421" y1="498.01" x2="331.591" y2="520.072" gradientUnits="userSpaceOnUse">
<stop offset="0.23" stop-color="#93C99D"/>
<stop offset="0.41" stop-color="#67AA95"/>
<stop offset="0.58" stop-color="#45928F"/>
<stop offset="0.74" stop-color="#2C808B"/>
<stop offset="0.88" stop-color="#1D7688"/>
<stop offset="1" stop-color="#187287"/>
</linearGradient>
<linearGradient id="paint39_linear_207_5693" x1="328.922" y1="526.379" x2="331.37" y2="538.882" gradientUnits="userSpaceOnUse">
<stop offset="0.27" stop-color="#94CA9D"/>
<stop offset="1" stop-color="#187287"/>
</linearGradient>
<linearGradient id="paint40_linear_207_5693" x1="213.098" y1="425.975" x2="288.79" y2="463.067" gradientUnits="userSpaceOnUse">
<stop stop-color="#0B0D29"/>
<stop offset="0.03" stop-color="#263238"/>
<stop offset="0.09" stop-color="#263238"/>
<stop offset="0.15" stop-color="#455A64"/>
<stop offset="0.2" stop-color="#263238"/>
<stop offset="0.26" stop-color="#070820"/>
<stop offset="0.32" stop-color="#06061C"/>
<stop offset="0.46" stop-color="#06081E"/>
<stop offset="0.55" stop-color="#061124"/>
<stop offset="0.62" stop-color="#051F2E"/>
<stop offset="0.68" stop-color="#05333C"/>
<stop offset="0.74" stop-color="#044D4E"/>
<stop offset="0.79" stop-color="#036D65"/>
<stop offset="0.84" stop-color="#02937F"/>
<stop offset="0.88" stop-color="#01C09E"/>
<stop offset="0.93" stop-color="#00F8C6"/>
</linearGradient>
<linearGradient id="paint41_linear_207_5693" x1="236.126" y1="282.439" x2="462.245" y2="282.206" gradientUnits="userSpaceOnUse">
<stop stop-color="#141B1F"/>
<stop offset="0.03" stop-color="#263238"/>
<stop offset="0.09" stop-color="#455A64"/>
<stop offset="0.15" stop-color="#131740"/>
<stop offset="0.2" stop-color="#0C0E2C"/>
<stop offset="0.26" stop-color="#070820"/>
<stop offset="0.32" stop-color="#06061C"/>
<stop offset="0.41" stop-color="#06081E"/>
<stop offset="0.46" stop-color="#061124"/>
<stop offset="0.5" stop-color="#051F2E"/>
<stop offset="0.54" stop-color="#05333C"/>
<stop offset="0.58" stop-color="#044D4E"/>
<stop offset="0.61" stop-color="#036D65"/>
<stop offset="0.64" stop-color="#02937F"/>
<stop offset="0.67" stop-color="#01C09E"/>
<stop offset="0.7" stop-color="#00F8C6"/>
</linearGradient>
<linearGradient id="paint42_linear_207_5693" x1="265.201" y1="249.541" x2="266.372" y2="339.276" gradientUnits="userSpaceOnUse">
<stop offset="0.04" stop-color="#78F9C7"/>
<stop offset="0.1" stop-color="#6BDDB5"/>
<stop offset="0.26" stop-color="#4B9386"/>
<stop offset="0.41" stop-color="#315961"/>
<stop offset="0.598958" stop-color="#455A64"/>
<stop offset="0.765625" stop-color="#263238"/>
<stop offset="1" stop-color="#141B1F"/>
</linearGradient>
<linearGradient id="paint43_linear_207_5693" x1="222.493" y1="329.012" x2="280.714" y2="329.012" gradientUnits="userSpaceOnUse">
<stop stop-color="#007288"/>
<stop offset="0.23" stop-color="#4799A9"/>
<stop offset="0.51" stop-color="#95C4CD"/>
<stop offset="0.74" stop-color="#CEE4E8"/>
<stop offset="0.91" stop-color="#F2F8F9"/>
<stop offset="1" stop-color="white"/>
</linearGradient>
<linearGradient id="paint44_linear_207_5693" x1="201.96" y1="321.889" x2="207.141" y2="336.617" gradientUnits="userSpaceOnUse">
<stop stop-color="#94CA9D"/>
<stop offset="1" stop-color="#187287"/>
</linearGradient>
<linearGradient id="paint45_linear_207_5693" x1="198.925" y1="289.605" x2="200.54" y2="301.658" gradientUnits="userSpaceOnUse">
<stop stop-color="#94CA9D"/>
<stop offset="1" stop-color="#187287"/>
</linearGradient>
<linearGradient id="paint46_linear_207_5693" x1="200.502" y1="293.687" x2="204.399" y2="311.417" gradientUnits="userSpaceOnUse">
<stop stop-color="#94CA9D"/>
<stop offset="1" stop-color="#187287"/>
</linearGradient>
<linearGradient id="paint47_linear_207_5693" x1="168.519" y1="336.72" x2="137.234" y2="400.129" gradientUnits="userSpaceOnUse">
<stop stop-color="#94CA9D"/>
<stop offset="1" stop-color="#187287"/>
</linearGradient>
</defs>
</svg>
