<svg width="749" height="754" viewBox="0 0 749 754" fill="none" xmlns="http://www.w3.org/2000/svg">
<path fill-rule="evenodd" clip-rule="evenodd" d="M598.446 327.009C598.446 327.009 668.222 370.353 696.326 387.163L692.354 407.701L738.576 657.55L267.487 658.995C267.487 658.995 232.764 617.413 231.835 584.183C230.173 524.607 255.938 437.601 284.232 375.323L284.021 353.405C284.021 353.405 387.146 285.298 454.88 260.259C530.233 232.375 598.446 327.009 598.446 327.009Z" fill="url(#paint0_linear_207_5691)"/>
<mask id="mask0_207_5691" style="mask-type:alpha" maskUnits="userSpaceOnUse" x="231" y="255" width="508" height="404">
<path fill-rule="evenodd" clip-rule="evenodd" d="M598.446 327.009C598.446 327.009 668.222 370.353 696.325 387.163L692.354 407.701L738.575 657.55L267.486 658.995C267.486 658.995 232.764 617.413 231.834 584.183C230.172 524.607 255.938 437.601 284.231 375.323L284.02 353.405C284.02 353.405 387.146 285.298 454.88 260.259C530.233 232.375 598.446 327.009 598.446 327.009Z" fill="url(#paint1_linear_207_5691)"/>
</mask>
<g mask="url(#mask0_207_5691)">
<path fill-rule="evenodd" clip-rule="evenodd" d="M694.353 412.512L717.281 432.27C717.281 432.27 703 358.628 699.395 356.96C695.79 355.291 598.445 326.98 598.445 326.98L631.541 347.474L662.595 369.681C665.707 371.907 668.337 374.77 670.319 378.089C672.301 381.407 673.593 385.111 674.113 388.966C674.632 392.822 674.369 396.746 673.34 400.492C672.31 404.239 670.536 407.726 668.13 410.735L663.201 416.933C661.152 419.506 659.654 422.493 658.805 425.699C657.955 428.905 657.774 432.259 658.272 435.542L662.659 464.734C663.303 469.013 662.79 473.391 661.176 477.39C659.562 481.39 656.908 484.859 653.504 487.418C649.351 490.533 646.333 494.983 644.93 500.061C643.526 505.138 643.818 510.552 645.758 515.44L695.205 639.62L757.749 631.63L694.353 412.512Z" fill="white"/>
</g>
<path style="mix-blend-mode:multiply; opacity:0.25" fill-rule="evenodd" clip-rule="evenodd" d="M467.73 232.797C421.724 252.037 344.325 305.648 318.19 319.313C292.055 332.979 265.778 335.094 265.723 339.077C265.668 343.059 -0.325291 702.297 0.504698 719.916C1.33469 737.535 421.072 753.92 459.993 742.933C498.915 731.945 531.518 357.933 539.905 348.856C548.291 339.779 517.733 236.226 517.733 236.226L467.729 232.833" fill="url(#paint2_linear_207_5691)"/>
<path fill-rule="evenodd" clip-rule="evenodd" d="M435.466 393.939L541.95 391.013L569.082 283.629L556.984 269.036L429.649 241.13L435.466 393.939Z" fill="url(#paint3_linear_207_5691)"/>
<path fill-rule="evenodd" clip-rule="evenodd" d="M556.991 269.037C556.991 269.037 578.651 287.328 605.973 331.647L585.32 377.628L554.935 360.76L570.835 394.192C570.835 394.192 518.726 416.811 474.124 474.516C474.124 474.516 514.318 364.097 557.505 279.468C559.293 275.928 560.814 273.14 556.991 269.037Z" fill="url(#paint4_linear_207_5691)"/>
<path fill-rule="evenodd" clip-rule="evenodd" d="M430.184 255.101C430.184 255.101 413.594 271.543 382.301 294.515L403.468 377.591L433.874 360.759L417.946 394.192L474.124 474.515L488.285 414.419C488.285 414.419 458.738 291.907 430.184 255.101Z" fill="url(#paint5_linear_207_5691)"/>
<path fill-rule="evenodd" clip-rule="evenodd" d="M482.314 270.214C482.314 270.214 478.004 266.255 477.385 268.719C476.765 271.182 476.582 271.204 482.314 270.214Z" fill="#603440"/>
<path fill-rule="evenodd" clip-rule="evenodd" d="M284.231 375.294L291.231 352.857C291.231 352.857 363.697 308.711 382.301 294.516C348.064 313.399 315.304 333.019 284.02 353.377L284.231 375.294Z" fill="url(#paint6_linear_207_5691)"/>
<path d="M549.466 58.8372C549.466 58.8372 531.148 22.2715 507.406 24.6959C483.664 27.1203 425.944 61.3662 391.065 44.1399C356.186 26.9136 531.211 -13.5841 548.035 11.5909C564.858 36.766 549.466 58.8372 549.466 58.8372Z" fill="url(#paint7_linear_207_5691)"/>
<path fill-rule="evenodd" clip-rule="evenodd" d="M407.294 181.493C398.034 176.567 388.46 175.651 387.805 187.944C387.15 200.237 397.593 224.864 425.518 225.609C453.443 226.354 407.294 181.493 407.294 181.493Z" fill="url(#paint8_linear_207_5691)"/>
<path fill-rule="evenodd" clip-rule="evenodd" d="M579.513 157.245C585.804 148.757 594.069 143.751 599.802 154.572C605.535 165.392 606.525 192.201 581.582 205.065C556.639 217.929 579.478 157.248 579.478 157.248" fill="url(#paint9_linear_207_5691)"/>
<path fill-rule="evenodd" clip-rule="evenodd" d="M508.589 318.257C521.433 317.299 556.216 292.107 572.757 239.806C576.184 228.98 580.997 127.819 579.876 102.757C578.755 77.6945 564.339 33.4354 480.142 39.0036C395.946 44.5717 384.203 97.8221 395.025 138.641C405.847 179.46 424.113 247.681 434.14 260.578C444.167 273.475 486.734 319.883 508.589 318.257Z" fill="url(#paint10_linear_207_5691)"/>
<mask id="mask1_207_5691" style="mask-type:alpha" maskUnits="userSpaceOnUse" x="391" y="38" width="190" height="281">
<path fill-rule="evenodd" clip-rule="evenodd" d="M508.589 318.257C521.433 317.299 556.216 292.107 572.757 239.806C576.184 228.98 580.997 127.819 579.876 102.757C578.755 77.6945 564.339 33.4354 480.142 39.0036C395.946 44.5717 384.203 97.8221 395.025 138.641C405.847 179.46 424.113 247.681 434.14 260.578C444.167 273.475 486.734 319.883 508.589 318.257Z" fill="url(#paint11_linear_207_5691)"/>
</mask>
<g mask="url(#mask1_207_5691)">
<path fill-rule="evenodd" clip-rule="evenodd" d="M579.514 157.245C571.205 126.374 536.054 118.049 537.914 128.576C539.775 139.102 570.426 200.394 557.717 221.427C545.008 242.459 550.793 268.255 547.188 274.452C543.582 280.649 525.97 313.227 526.85 314.486C527.731 315.746 535.397 338.29 535.397 338.29L597.895 262.534L579.514 157.245Z" fill="url(#paint12_linear_207_5691)"/>
</g>
<path fill-rule="evenodd" clip-rule="evenodd" d="M504.312 233.951C507.036 234.27 517.137 249.03 515.924 253.309C514.711 257.589 508.048 272.306 507.075 265.811C506.102 259.316 502.796 233.754 504.312 233.951Z" fill="url(#paint13_linear_207_5691)"/>
<path fill-rule="evenodd" clip-rule="evenodd" d="M487.063 275.323C491.688 276.79 496.493 277.569 501.33 277.637C504.24 277.689 507.145 277.4 509.988 276.775C511.886 276.35 513.736 275.73 515.512 274.926C519.674 273.036 523.549 270.544 527.019 267.526C530.45 264.491 533.343 260.871 535.571 256.825C535.586 256.798 535.597 256.768 535.602 256.737C535.606 256.707 535.605 256.675 535.598 256.644C535.59 256.614 535.577 256.585 535.559 256.56C535.541 256.535 535.519 256.513 535.492 256.497C535.439 256.466 535.375 256.459 535.316 256.475C535.257 256.491 535.206 256.529 535.174 256.583C532.847 260.486 529.89 263.954 526.431 266.841C522.969 269.7 519.134 272.05 515.036 273.821C513.325 274.593 511.546 275.196 509.721 275.62C506.962 276.248 504.145 276.57 501.317 276.581C496.584 276.614 491.866 275.981 487.297 274.699C487.254 274.685 487.208 274.679 487.163 274.682C487.117 274.685 487.073 274.698 487.033 274.718C486.992 274.739 486.956 274.768 486.926 274.803C486.897 274.839 486.874 274.88 486.86 274.924C486.845 275.004 486.857 275.087 486.894 275.16C486.93 275.232 486.99 275.29 487.063 275.323Z" fill="#603440"/>
<path fill-rule="evenodd" clip-rule="evenodd" d="M533.728 256.722C534.011 256.674 534.298 256.655 534.585 256.665C534.758 256.69 534.927 256.737 535.089 256.806C535.215 256.861 535.332 256.936 535.435 257.029C535.601 257.15 535.744 257.3 535.86 257.472C535.957 257.622 536.045 257.778 536.123 257.939C536.269 258.244 536.389 258.56 536.482 258.886C536.484 258.926 536.494 258.966 536.51 259.003C536.527 259.04 536.551 259.074 536.58 259.101C536.61 259.129 536.644 259.151 536.682 259.165C536.719 259.179 536.759 259.185 536.798 259.183C536.838 259.182 536.877 259.172 536.913 259.155C536.949 259.138 536.982 259.113 537.008 259.083C537.035 259.053 537.056 259.018 537.07 258.98C537.083 258.942 537.089 258.901 537.088 258.86C537.179 258.382 537.209 257.893 537.175 257.406C537.157 257.18 537.112 256.957 537.039 256.742C536.934 256.389 536.746 256.069 536.49 255.808C536.343 255.658 536.17 255.536 535.98 255.451C535.712 255.316 535.418 255.244 535.119 255.24C534.852 255.234 534.585 255.268 534.329 255.343C533.973 255.462 533.635 255.63 533.324 255.844C533.271 255.87 533.223 255.906 533.184 255.951C533.145 255.996 533.115 256.049 533.096 256.107C533.078 256.164 533.071 256.225 533.076 256.285C533.08 256.346 533.097 256.404 533.125 256.458C533.146 256.517 533.179 256.571 533.222 256.616C533.264 256.662 533.315 256.698 533.371 256.723C533.428 256.748 533.489 256.76 533.55 256.76C533.611 256.76 533.672 256.747 533.728 256.722Z" fill="#603440"/>
<path style="mix-blend-mode:screen" opacity="0.97" fill-rule="evenodd" clip-rule="evenodd" d="M452.054 226.8C452.054 226.8 462.186 238.727 474.193 236.319C483.505 234.45 482.824 228.957 482.824 228.957C482.824 228.957 465.206 222.817 452.054 226.8Z" fill="url(#paint14_linear_207_5691)"/>
<mask id="mask2_207_5691" style="mask-type:alpha" maskUnits="userSpaceOnUse" x="452" y="225" width="31" height="12">
<path style="mix-blend-mode:screen" opacity="0.97" fill-rule="evenodd" clip-rule="evenodd" d="M452.054 226.8C452.054 226.8 462.186 238.727 474.193 236.319C483.505 234.45 482.824 228.957 482.824 228.957C482.824 228.957 465.206 222.817 452.054 226.8Z" fill="url(#paint15_linear_207_5691)"/>
</mask>
<g mask="url(#mask2_207_5691)">
<path d="M474.322 242.574C479.311 241.944 482.846 237.303 482.217 232.207C481.588 227.111 477.034 223.491 472.045 224.121C467.055 224.751 463.52 229.392 464.149 234.488C464.778 239.583 469.332 243.204 474.322 242.574Z" fill="#421D29"/>
</g>
<path fill-rule="evenodd" clip-rule="evenodd" d="M483.544 228.845C480.855 227.235 477.916 226.114 474.857 225.531C472.837 225.104 470.793 224.811 468.737 224.655C467.318 224.546 465.782 224.481 464.117 224.482C462.678 224.486 461.141 224.544 459.506 224.657C454.922 225.012 450.362 225.625 445.845 226.494C445.765 226.506 445.694 226.55 445.646 226.617C445.598 226.683 445.578 226.766 445.59 226.848C445.602 226.93 445.645 227.003 445.71 227.053C445.775 227.102 445.856 227.123 445.935 227.111C450.459 226.541 455.008 226.204 459.566 226.101C461.18 226.067 462.69 226.068 464.103 226.083C465.742 226.105 467.241 226.158 468.623 226.248C470.624 226.361 472.617 226.584 474.595 226.917C477.568 227.352 480.452 228.284 483.133 229.675C483.241 229.73 483.365 229.738 483.478 229.699C483.591 229.659 483.684 229.575 483.737 229.465C483.79 229.355 483.797 229.228 483.759 229.112C483.72 228.996 483.638 228.9 483.53 228.846L483.544 228.845Z" fill="#421D29"/>
<path fill-rule="evenodd" clip-rule="evenodd" d="M434.385 215.502C437.177 216.432 441.319 217.599 445.89 218.738C447.942 219.246 450.042 219.73 452.141 220.206C453.573 220.517 454.934 220.825 456.287 221.112C457.475 221.362 458.624 221.595 459.734 221.811C460.942 222.042 462.091 222.234 463.15 222.454C465.891 222.924 468.47 223.507 470.975 224.029C473.735 224.57 476.375 225.12 478.992 225.526C481.325 225.898 483.678 226.122 486.037 226.196C486.157 226.215 486.279 226.208 486.396 226.176C486.514 226.145 486.623 226.09 486.719 226.014C486.815 225.937 486.895 225.842 486.954 225.734C487.012 225.625 487.049 225.506 487.062 225.382C487.075 225.258 487.063 225.133 487.028 225.014C486.992 224.895 486.934 224.785 486.855 224.689C486.777 224.594 486.681 224.515 486.573 224.459C486.465 224.402 486.347 224.368 486.226 224.36C484.74 224.081 483.289 223.707 481.823 223.297C478.947 222.495 476.122 221.502 473.103 220.464C470.274 219.521 467.336 218.622 464.132 217.777C463.036 217.531 461.84 217.263 460.556 217.051C458.879 216.778 457.072 216.557 455.205 216.384C452.471 216.123 449.643 215.948 446.889 215.819C441.934 215.589 437.45 215.545 434.411 215.261C434.38 215.255 434.347 215.261 434.321 215.279C434.294 215.297 434.275 215.326 434.269 215.358C434.263 215.39 434.269 215.423 434.287 215.45C434.305 215.478 434.332 215.497 434.363 215.503L434.385 215.502Z" fill="#421D29"/>
<path style="mix-blend-mode:screen" opacity="0.97" d="M476.476 233.272C476.405 234.001 473.211 234.364 469.335 234.019C465.459 233.675 462.372 232.786 462.435 232.029C462.498 231.272 465.694 230.93 469.577 231.274C473.459 231.618 476.518 232.516 476.476 233.272Z" fill="url(#paint16_linear_207_5691)"/>
<path fill-rule="evenodd" clip-rule="evenodd" d="M517.224 224.721C518.479 224.493 522.786 222.08 527.644 218.703C529.749 217.239 531.899 215.598 533.949 213.942C534.993 213.084 535.987 212.208 536.91 211.336C537.574 210.712 538.196 210.085 538.762 209.468C540.298 207.816 541.688 206.028 542.918 204.126C543.173 203.636 543.555 203.228 544.022 202.948C544.49 202.668 545.024 202.527 545.566 202.539C549.71 202.46 555.065 205.328 557.858 204.759C557.893 204.755 557.926 204.738 557.95 204.712C557.974 204.685 557.988 204.65 557.989 204.613C557.987 204.595 557.982 204.578 557.973 204.562C557.964 204.546 557.953 204.532 557.939 204.521C557.925 204.51 557.909 204.502 557.892 204.497C557.875 204.492 557.858 204.491 557.84 204.493C556.036 204.417 553.686 202.719 551.107 201.275C549.489 200.322 547.739 199.63 545.918 199.221C544.654 198.942 543.34 199.028 542.123 199.47C540.906 199.913 539.834 200.694 539.026 201.726C538.191 202.751 536.76 204.048 535.176 205.601C533.937 206.834 532.582 208.219 531.211 209.678C529.231 211.757 527.26 213.965 525.385 216.029C523.089 218.541 521.08 220.824 519.498 222.398C518.783 223.19 517.979 223.892 517.102 224.49C517.085 224.494 517.069 224.503 517.054 224.514C517.04 224.525 517.028 224.539 517.019 224.555C517.01 224.572 517.005 224.589 517.003 224.608C517.001 224.626 517.003 224.645 517.008 224.663C517.018 224.681 517.032 224.697 517.049 224.71C517.065 224.724 517.084 224.733 517.104 224.738C517.124 224.744 517.145 224.745 517.166 224.742C517.186 224.739 517.206 224.732 517.224 224.721Z" fill="#421D29"/>
<path fill-rule="evenodd" clip-rule="evenodd" d="M525.723 224.136C527.733 223.572 529.783 223.173 531.855 222.942C532.666 222.837 533.508 222.753 534.466 222.624C535.424 222.496 536.65 222.364 537.909 222.187C538.608 222.083 539.383 221.959 540.163 221.799C540.713 221.69 541.269 221.559 541.845 221.405C543.093 221.076 544.373 220.68 545.779 220.291C546.895 219.978 547.988 219.652 549.245 219.337C550.942 218.863 552.598 218.392 554.505 217.889C554.539 217.887 554.57 217.871 554.592 217.845C554.614 217.819 554.626 217.785 554.623 217.751C554.621 217.717 554.606 217.684 554.58 217.662C554.555 217.639 554.522 217.627 554.488 217.63C552.517 217.275 550.79 216.991 549.02 216.789C547.712 216.644 546.52 216.557 545.318 216.513C543.872 216.457 542.425 216.481 540.982 216.583C540.363 216.628 539.746 216.708 539.135 216.821C538.324 216.972 537.522 217.17 536.732 217.414C535.541 217.78 534.375 218.23 533.244 218.759C532.109 219.279 531.01 219.877 529.953 220.548C528.349 221.474 526.877 222.622 525.578 223.958C525.563 223.967 525.55 223.979 525.541 223.994C525.531 224.008 525.524 224.025 525.522 224.042C525.519 224.059 525.52 224.077 525.524 224.094C525.528 224.111 525.536 224.127 525.547 224.141C525.573 224.16 525.604 224.169 525.636 224.168C525.668 224.168 525.698 224.156 525.723 224.136Z" fill="#421D29"/>
<path d="M418.798 222.687L417.954 188.592C417.954 188.592 408.974 155.565 425.138 146.974C441.303 138.383 466.91 144.211 492.458 142.522C518.006 140.832 540.825 121.68 554.989 135.034C569.154 148.389 567.71 169.668 571.678 178.665C575.647 187.662 577.476 186.405 577.476 186.405C577.476 186.405 598.855 123.598 594.532 93.8676C590.208 64.1374 571.669 32.8641 544.36 43.1406C544.36 43.1406 532.453 44.5 491.985 50.6369C451.516 56.7738 407.292 44.3284 399.929 77.9083C399.929 77.9083 370.235 88.5019 383.829 131.005C394.534 164.295 418.798 222.687 418.798 222.687Z" fill="#141B1F"/>
<path d="M544.395 43.1379C544.395 43.1379 567.884 46.1602 577.099 60.4357C587.079 75.9421 600.112 111.453 587.771 144.884C587.771 144.884 611.666 118.841 603.389 80.4381C595.112 42.0355 555.727 14.0883 555.727 14.0883L544.396 43.1452" fill="url(#paint17_linear_207_5691)"/>
<path d="M538.469 144.858C563.333 140.716 565.379 98.5683 544.443 43.1061C520.427 -20.3984 425.308 45.0699 396.663 36.9517C396.663 36.9517 430.403 56.2659 451.881 48.308C451.881 48.308 405.156 41.2624 384.127 68.7162C384.127 68.7162 406.196 78.5436 416.678 93.6331C421.717 100.887 430.328 116.274 447.39 128.728C456.175 135.106 465.965 139.881 476.326 142.843C492.411 147.571 512.733 149.145 538.469 144.858Z" fill="#141B1F"/>
<path d="M417.544 71.6487C417.544 71.6487 395.103 78.2209 393.016 91.9469C390.929 105.673 372.688 80.5009 372.688 80.5009L385.791 73.2742L417.559 71.6476" fill="url(#paint18_linear_207_5691)"/>
<path d="M473.88 119.316C473.88 119.316 401.709 104.397 436.981 175.693C436.741 152.107 450.565 140.26 484.027 144.809L473.88 119.316Z" fill="#141B1F"/>
<path d="M426.202 127.95C426.202 127.95 428.987 96.6345 473.879 96.2358C473.879 96.2358 449.464 89.3437 434.247 102.65C419.03 115.957 426.202 127.95 426.202 127.95Z" fill="url(#paint19_linear_207_5691)"/>
<path fill-rule="evenodd" clip-rule="evenodd" d="M627.781 660.266L580.194 660.844C581.475 638.898 591.066 610.796 602.84 581.084L613.092 563.024L665.954 627.621L627.781 660.23" fill="url(#paint20_linear_207_5691)"/>
<path fill-rule="evenodd" clip-rule="evenodd" d="M613.092 616.453C613.092 616.453 633.795 647.212 681.058 656.524C743.377 668.805 693.029 578.079 693.029 578.079C693.029 578.079 642.329 573.665 624.831 563.06L613.092 616.453Z" fill="#AA7481"/>
<path fill-rule="evenodd" clip-rule="evenodd" d="M627.112 660.844L665.954 627.657L624.809 563.06L613.092 545.672C613.092 545.672 689.199 557.888 711.204 563.06C733.209 568.232 745.06 632.8 748.637 644.865C752.215 656.929 728.139 660.302 728.139 660.302L627.112 660.844Z" fill="url(#paint21_linear_207_5691)"/>
<path fill-rule="evenodd" clip-rule="evenodd" d="M371.463 449.737C380.111 458.11 392.969 500.435 386.814 502.964C375.604 507.565 353.718 475.26 350.388 460.898C347.057 446.537 362.816 441.372 371.463 449.737Z" fill="url(#paint22_linear_207_5691)"/>
<path fill-rule="evenodd" clip-rule="evenodd" d="M352.008 505.752L386.815 437.081L347.381 409.175L314.743 455.322C314.743 455.322 305.187 495.913 352.008 505.752Z" fill="#AA7481"/>
<path fill-rule="evenodd" clip-rule="evenodd" d="M341.233 417.908C341.233 417.908 351.796 496.57 386.814 503.108C386.814 503.108 352.373 625.193 337.994 659.204C336.917 661.754 239.46 658.908 239.46 658.908L214.173 592.888C214.173 592.888 239.199 544.487 252.987 529.093C268.028 512.239 324.023 437.023 341.233 417.908Z" fill="url(#paint23_linear_207_5691)"/>
<path d="M490.447 432.27H444.598V478.929H490.447V432.27Z" fill="url(#paint24_linear_207_5691)"/>
<path d="M523.761 478.929H408.7V495.241H523.761V478.929Z" fill="url(#paint25_linear_207_5691)"/>
<path d="M498.601 495.241H436.444V610.919H498.601V495.241Z" fill="url(#paint26_linear_207_5691)"/>
<path d="M548.921 610.919H386.138V652.341H548.921V610.919Z" fill="url(#paint27_linear_207_5691)"/>
<path fill-rule="evenodd" clip-rule="evenodd" d="M533.26 652.341H512.339C512.339 653.44 512.55 654.529 512.961 655.544C513.371 656.56 513.972 657.482 514.73 658.259C515.488 659.036 516.388 659.652 517.378 660.072C518.368 660.492 519.429 660.708 520.501 660.707H525.106C527.268 660.707 529.343 659.825 530.872 658.257C532.401 656.688 533.26 654.56 533.26 652.341ZM422.706 652.341H401.799C401.799 654.556 402.655 656.681 404.18 658.249C405.704 659.817 407.773 660.701 409.932 660.707H414.537C415.609 660.708 416.67 660.492 417.66 660.072C418.65 659.652 419.55 659.036 420.308 658.259C421.066 657.482 421.667 656.56 422.077 655.544C422.487 654.529 422.699 653.44 422.699 652.341H422.706Z" fill="url(#paint28_linear_207_5691)"/>
<path d="M436.451 589.746H386.138V610.919H436.451V589.746Z" fill="url(#paint29_linear_207_5691)"/>
<path d="M505.142 334.06H426.064V394.365H505.142V334.06Z" fill="url(#paint30_linear_207_5691)"/>
<path d="M505.142 360.456H426.064V366.575H505.142V360.456Z" fill="url(#paint31_linear_207_5691)"/>
<path d="M465.604 429.351C485.92 429.351 502.39 420.078 502.39 408.64C502.39 397.201 485.92 387.929 465.604 387.929C445.288 387.929 428.818 397.201 428.818 408.64C428.818 420.078 445.288 429.351 465.604 429.351Z" fill="#181818"/>
<path d="M465.604 435.715C486.605 435.715 503.629 426.443 503.629 415.004C503.629 403.566 486.605 394.293 465.604 394.293C444.603 394.293 427.579 403.566 427.579 415.004C427.579 426.443 444.603 435.715 465.604 435.715Z" fill="#808080"/>
<path fill-rule="evenodd" clip-rule="evenodd" d="M448.915 592.513C449.091 591.256 451.894 570.971 458.534 564.173H476.525C483.166 570.971 485.968 591.256 486.137 592.513V592.578H448.908L448.915 592.513Z" fill="url(#paint32_linear_207_5691)"/>
<path fill-rule="evenodd" clip-rule="evenodd" d="M498.735 505.586C499.96 505.759 519.733 508.634 526.359 515.446V533.904C519.733 540.723 499.96 543.598 498.735 543.772H498.657V505.571L498.735 505.586Z" fill="url(#paint33_linear_207_5691)"/>
<path fill-rule="evenodd" clip-rule="evenodd" d="M436.614 505.586C435.381 505.759 415.608 508.634 408.982 515.446V533.904C415.608 540.723 435.381 543.598 436.614 543.772H436.691V505.571L436.614 505.586Z" fill="url(#paint34_linear_207_5691)"/>
<path fill-rule="evenodd" clip-rule="evenodd" d="M479.248 410.584C479.268 409.373 479.056 408.17 478.623 407.044C478.191 405.917 477.546 404.889 476.726 404.018C475.905 403.147 474.926 402.451 473.843 401.968C472.761 401.486 471.596 401.227 470.416 401.207L463.292 401.078C460.909 401.039 458.607 401.972 456.893 403.67C455.178 405.369 454.19 407.696 454.145 410.141C453.973 421.242 453.66 439.217 453.54 446.357C453.528 447.32 453.715 448.274 454.088 449.157C454.462 450.04 455.013 450.832 455.707 451.48L461.218 456.634L470.204 456.793L476.194 451.843C476.94 451.22 477.545 450.436 477.964 449.547C478.384 448.659 478.609 447.686 478.623 446.699C478.77 439.476 479.061 421.613 479.248 410.584Z" fill="url(#paint35_linear_207_5691)"/>
<path fill-rule="evenodd" clip-rule="evenodd" d="M495.138 406.298C494.524 405.263 493.718 404.363 492.765 403.648C491.813 402.933 490.732 402.418 489.585 402.132C488.438 401.846 487.247 401.795 486.081 401.981C484.915 402.167 483.795 402.587 482.787 403.217L476.7 407.015C474.665 408.289 473.206 410.339 472.643 412.715C472.079 415.091 472.457 417.6 473.692 419.691C479.332 429.167 488.434 444.529 492.054 450.629C492.545 451.449 493.2 452.153 493.976 452.694C494.752 453.236 495.63 453.603 496.554 453.77L503.897 455.104L511.574 450.309L514.057 442.842C514.363 441.905 514.466 440.911 514.357 439.93C514.249 438.949 513.932 438.003 513.43 437.161C509.789 430.977 500.727 415.721 495.138 406.298Z" fill="url(#paint36_linear_207_5691)"/>
<path d="M548.913 589.746H498.601V610.919H548.913V589.746Z" fill="url(#paint37_linear_207_5691)"/>
<path fill-rule="evenodd" clip-rule="evenodd" d="M347.409 409.174C347.409 409.174 370.457 363.439 375.407 344.794C375.407 344.794 389.166 338.531 400.877 343.935C412.587 349.338 426.346 375.056 426.346 375.056C426.346 375.056 421.91 410.453 412.679 421.838C403.447 433.223 375.428 455.321 375.428 455.321C375.428 455.321 345.029 453.653 347.409 409.174Z" fill="#187287"/>
<path fill-rule="evenodd" clip-rule="evenodd" d="M401.419 369.63C401.419 369.63 417.615 348.031 428.445 344.672C437.902 341.782 445.57 339.564 452.02 336.003C452.392 335.782 452.805 335.648 453.233 335.609C453.66 335.571 454.091 335.629 454.494 335.78C454.897 335.931 455.262 336.171 455.565 336.483C455.868 336.794 456.1 337.171 456.245 337.585C457.837 341.999 459.154 349.866 450.732 353.991C438.599 359.958 431.621 365.152 431.621 365.152L422.185 387.026C422.185 387.026 387.244 389.374 401.419 369.63Z" fill="#187287"/>
<path fill-rule="evenodd" clip-rule="evenodd" d="M588.256 512.839C588.256 512.839 621.352 549.111 626.063 566.614C630.774 584.118 621.373 614.538 611.838 616.286C602.304 618.035 579.954 605.949 569.588 596.969C559.223 587.99 569.609 521.826 588.256 512.839Z" fill="url(#paint38_linear_207_5691)"/>
<path fill-rule="evenodd" clip-rule="evenodd" d="M504.812 509.639C509.037 513.829 522.416 524.809 546.302 523.689C546.302 523.689 570.75 533.688 583.439 533.803C596.128 533.919 588.256 512.854 588.256 512.854C588.256 512.854 560.483 503.672 554.836 503.144C549.189 502.617 525.367 504.531 511.635 496.506C499.15 489.195 499.538 504.409 504.812 509.639Z" fill="url(#paint39_linear_207_5691)"/>
<path fill-rule="evenodd" clip-rule="evenodd" d="M582.968 527.432C582.968 527.432 552.167 530.805 543.844 532.488C535.521 534.172 516.445 530.22 508.495 538.716C504.587 542.884 508.431 553.619 535.253 555.331C562.075 557.043 582.742 552.759 582.742 552.759C582.742 552.759 584.644 538.585 582.968 527.432Z" fill="url(#paint40_linear_207_5691)"/>
<path fill-rule="evenodd" clip-rule="evenodd" d="M523.761 588.38C525.014 594.983 565.194 601.275 583.665 600.726C602.135 600.177 591.657 586.198 588.256 582.406C584.855 578.613 536.619 578.223 533.802 579.155C530.986 580.087 522.874 583.677 523.761 588.38Z" fill="#187287"/>
<path fill-rule="evenodd" clip-rule="evenodd" d="M578.785 550.822C578.785 550.822 530.711 555.402 528.155 563.486C525.599 571.57 525.74 581.055 533.176 582.16C540.612 583.265 579.172 580.325 583.665 579.798C588.157 579.27 593.016 563.739 578.785 550.822Z" fill="#187287"/>
<path fill-rule="evenodd" clip-rule="evenodd" d="M458.469 417.926C458.958 416.823 459.23 415.633 459.27 414.423C459.31 413.213 459.117 412.006 458.702 410.872C458.288 409.739 457.659 408.7 456.853 407.815C456.047 406.931 455.079 406.218 454.005 405.717L447.519 402.69C445.348 401.682 442.875 401.597 440.643 402.456C438.411 403.314 436.602 405.046 435.612 407.27C431.147 417.384 423.887 433.746 421.007 440.248C420.623 441.126 420.424 442.077 420.424 443.04C420.424 444.002 420.623 444.954 421.007 445.832L424.063 452.81L432.246 456.624L439.661 454.53C440.587 454.262 441.446 453.79 442.176 453.146C442.906 452.502 443.489 451.702 443.886 450.802C446.822 444.235 454.019 427.967 458.469 417.926Z" fill="url(#paint41_linear_207_5691)"/>
<path fill-rule="evenodd" clip-rule="evenodd" d="M481.089 257.016C481.089 252.801 479.457 248.758 476.551 245.778C473.646 242.798 469.706 241.123 465.597 241.123C461.488 241.123 457.548 242.798 454.643 245.778C451.738 248.758 450.105 252.801 450.105 257.016V317.748H481.089V257.016Z" fill="url(#paint42_linear_207_5691)"/>
<path fill-rule="evenodd" clip-rule="evenodd" d="M475.342 236.767C474.532 243.586 474.124 327.832 474.124 327.832L485.687 331.61L485.179 238.305L475.342 236.767Z" fill="url(#paint43_linear_207_5691)"/>
<path d="M494.707 317.748H436.493V334.276H494.707V317.748Z" fill="url(#paint44_linear_207_5691)"/>
<path fill-rule="evenodd" clip-rule="evenodd" d="M389.103 356.959C389.103 356.959 403.031 335.035 407.446 327.811C411.862 320.587 437.944 318.781 451.739 311.528C455.837 309.361 459.013 325.607 444.627 331.242C434.768 335.1 424.079 340.286 424.079 340.286L406.193 368.337C406.193 368.337 392.786 383.24 389.103 356.959Z" fill="url(#paint45_linear_207_5691)"/>
<path fill-rule="evenodd" clip-rule="evenodd" d="M375.428 344.794C375.428 344.794 390.174 321.425 399.215 297.838C399.742 296.454 400.607 295.232 401.726 294.29C402.846 293.348 404.183 292.716 405.609 292.456C415.77 290.571 439.775 285.37 451.633 276.491C451.958 276.247 452.331 276.076 452.725 275.992C453.12 275.908 453.528 275.911 453.921 276.002C454.314 276.093 454.683 276.27 455.004 276.52C455.325 276.77 455.59 277.088 455.781 277.452C457.189 280.19 458.513 284.532 455.943 288.859C451.718 295.974 430.234 303.307 423.368 304.029L400.877 346.514C400.877 346.514 378.034 371.133 375.428 344.794Z" fill="url(#paint46_linear_207_5691)"/>
<path fill-rule="evenodd" clip-rule="evenodd" d="M380.786 356.172C380.786 356.172 395.525 332.803 404.573 309.216C405.099 307.832 405.962 306.609 407.08 305.665C408.199 304.722 409.535 304.089 410.96 303.827C421.121 301.949 445.133 296.748 456.985 287.869C457.31 287.625 457.682 287.454 458.076 287.37C458.471 287.286 458.879 287.289 459.272 287.38C459.665 287.471 460.035 287.648 460.355 287.898C460.676 288.148 460.941 288.466 461.132 288.83C462.541 291.568 463.871 295.91 461.301 300.237C457.076 307.345 434.451 318.514 427.586 319.236L406.256 357.863C406.256 357.863 383.413 382.504 380.786 356.172Z" fill="url(#paint47_linear_207_5691)"/>
<path fill-rule="evenodd" clip-rule="evenodd" d="M347.409 409.175C347.409 409.175 370.935 363.519 379.23 344.635L398.031 302.447L375.428 344.794L347.43 409.175" fill="url(#paint48_linear_207_5691)"/>
<defs>
<linearGradient id="paint0_linear_207_5691" x1="445.754" y1="759.358" x2="515.62" y2="490.123" gradientUnits="userSpaceOnUse">
<stop stop-color="#809CB9"/>
<stop offset="0.2" stop-color="#859FBB"/>
<stop offset="0.43" stop-color="#92AAC2"/>
<stop offset="0.66" stop-color="#A8BACE"/>
<stop offset="0.9" stop-color="#C7D2DD"/>
<stop offset="1" stop-color="#D6DDE5"/>
</linearGradient>
<linearGradient id="paint1_linear_207_5691" x1="445.754" y1="759.358" x2="515.619" y2="490.123" gradientUnits="userSpaceOnUse">
<stop stop-color="#809CB9"/>
<stop offset="0.2" stop-color="#859FBB"/>
<stop offset="0.43" stop-color="#92AAC2"/>
<stop offset="0.66" stop-color="#A8BACE"/>
<stop offset="0.9" stop-color="#C7D2DD"/>
<stop offset="1" stop-color="#D6DDE5"/>
</linearGradient>
<linearGradient id="paint2_linear_207_5691" x1="440.457" y1="456.039" x2="232.437" y2="674.833" gradientUnits="userSpaceOnUse">
<stop stop-color="#809CB9"/>
<stop offset="0.16" stop-color="#85A0BC"/>
<stop offset="0.34" stop-color="#92AAC3"/>
<stop offset="0.53" stop-color="#A8BBCF"/>
<stop offset="0.73" stop-color="#C7D4E0"/>
<stop offset="0.93" stop-color="#EFF3F6"/>
<stop offset="1" stop-color="white"/>
</linearGradient>
<linearGradient id="paint3_linear_207_5691" x1="497.728" y1="277.235" x2="486.486" y2="374.045" gradientUnits="userSpaceOnUse">
<stop offset="0.31" stop-color="#141B1F"/>
<stop offset="0.52" stop-color="#263238"/>
<stop offset="0.65" stop-color="#455A64"/>
<stop offset="0.75" stop-color="#455A64"/>
<stop offset="0.84" stop-color="#455A64"/>
<stop offset="0.92" stop-color="#005B77"/>
<stop offset="0.98" stop-color="#007288"/>
</linearGradient>
<linearGradient id="paint4_linear_207_5691" x1="447.908" y1="468.368" x2="576.533" y2="324.545" gradientUnits="userSpaceOnUse">
<stop stop-color="#D3CBE7"/>
<stop offset="0.37" stop-color="#E5E0F1"/>
<stop offset="1" stop-color="white"/>
</linearGradient>
<linearGradient id="paint5_linear_207_5691" x1="382.301" y1="364.79" x2="488.285" y2="364.79" gradientUnits="userSpaceOnUse">
<stop stop-color="#809CB9"/>
<stop offset="0.2" stop-color="#859FBB"/>
<stop offset="0.43" stop-color="#92AAC2"/>
<stop offset="0.66" stop-color="#A8BACE"/>
<stop offset="0.9" stop-color="#C7D2DD"/>
<stop offset="1" stop-color="#D6DDE5"/>
</linearGradient>
<linearGradient id="paint6_linear_207_5691" x1="315.44" y1="395.81" x2="331.479" y2="334.016" gradientUnits="userSpaceOnUse">
<stop stop-color="#809CB9"/>
<stop offset="0.2" stop-color="#859FBB"/>
<stop offset="0.43" stop-color="#92AAC2"/>
<stop offset="0.66" stop-color="#A8BACE"/>
<stop offset="0.9" stop-color="#C7D2DD"/>
<stop offset="1" stop-color="#D6DDE5"/>
</linearGradient>
<linearGradient id="paint7_linear_207_5691" x1="386.564" y1="40.3676" x2="524.831" y2="21.6544" gradientUnits="userSpaceOnUse">
<stop stop-color="#3D4F58"/>
<stop offset="0.124422" stop-color="#263238"/>
<stop offset="0.786458" stop-color="#141B1F"/>
</linearGradient>
<linearGradient id="paint8_linear_207_5691" x1="362.904" y1="257.355" x2="422.648" y2="193.03" gradientUnits="userSpaceOnUse">
<stop offset="0.03" stop-color="#BB7482"/>
<stop offset="0.3" stop-color="#B7717F"/>
<stop offset="0.54" stop-color="#AD6876"/>
<stop offset="0.77" stop-color="#9A5868"/>
<stop offset="0.99" stop-color="#814254"/>
<stop offset="1" stop-color="#7F4052"/>
</linearGradient>
<linearGradient id="paint9_linear_207_5691" x1="568.711" y1="178.622" x2="603.745" y2="176.305" gradientUnits="userSpaceOnUse">
<stop offset="0.22" stop-color="#FF9C9C"/>
<stop offset="0.96" stop-color="#DA949F"/>
</linearGradient>
<linearGradient id="paint10_linear_207_5691" x1="505.141" y1="75.5329" x2="445.903" y2="309.256" gradientUnits="userSpaceOnUse">
<stop offset="0.16" stop-color="#8A495B"/>
<stop offset="0.21" stop-color="#904E60"/>
<stop offset="0.61" stop-color="#BB7482"/>
<stop offset="0.72" stop-color="#B7717F"/>
<stop offset="0.81" stop-color="#AD6876"/>
<stop offset="0.9" stop-color="#9A5868"/>
<stop offset="0.99" stop-color="#814254"/>
<stop offset="1" stop-color="#7F4052"/>
</linearGradient>
<linearGradient id="paint11_linear_207_5691" x1="505.141" y1="75.5329" x2="445.903" y2="309.256" gradientUnits="userSpaceOnUse">
<stop offset="0.16" stop-color="#8A495B"/>
<stop offset="0.21" stop-color="#904E60"/>
<stop offset="0.61" stop-color="#BB7482"/>
<stop offset="0.72" stop-color="#B7717F"/>
<stop offset="0.81" stop-color="#AD6876"/>
<stop offset="0.9" stop-color="#9A5868"/>
<stop offset="0.99" stop-color="#814254"/>
<stop offset="1" stop-color="#7F4052"/>
</linearGradient>
<linearGradient id="paint12_linear_207_5691" x1="555.375" y1="267.214" x2="577.087" y2="150.352" gradientUnits="userSpaceOnUse">
<stop offset="0.22" stop-color="#FF9C9C"/>
<stop offset="0.96" stop-color="#DA949F"/>
</linearGradient>
<linearGradient id="paint13_linear_207_5691" x1="521.605" y1="274.431" x2="492.086" y2="228.257" gradientUnits="userSpaceOnUse">
<stop offset="0.46" stop-color="#FF9C9C"/>
<stop offset="0.96" stop-color="#DA949F"/>
</linearGradient>
<linearGradient id="paint14_linear_207_5691" x1="467.998" y1="222.031" x2="465.724" y2="243.916" gradientUnits="userSpaceOnUse">
<stop offset="0.07"/>
<stop offset="0.25" stop-color="#233C45"/>
<stop offset="0.45" stop-color="#487D8F"/>
<stop offset="0.6" stop-color="#60A5BD"/>
<stop offset="0.67" stop-color="#69B5CF"/>
</linearGradient>
<linearGradient id="paint15_linear_207_5691" x1="467.998" y1="222.031" x2="465.724" y2="243.916" gradientUnits="userSpaceOnUse">
<stop offset="0.07"/>
<stop offset="0.25" stop-color="#233C45"/>
<stop offset="0.45" stop-color="#487D8F"/>
<stop offset="0.6" stop-color="#60A5BD"/>
<stop offset="0.67" stop-color="#69B5CF"/>
</linearGradient>
<linearGradient id="paint16_linear_207_5691" x1="476.441" y1="235.488" x2="467.492" y2="234.372" gradientUnits="userSpaceOnUse">
<stop offset="0.07"/>
<stop offset="0.29" stop-color="#233C45"/>
<stop offset="0.54" stop-color="#487D8F"/>
<stop offset="0.72" stop-color="#60A5BD"/>
<stop offset="0.81" stop-color="#69B5CF"/>
</linearGradient>
<linearGradient id="paint17_linear_207_5691" x1="590.923" y1="154.566" x2="558.787" y2="29.7243" gradientUnits="userSpaceOnUse">
<stop stop-color="#455A64"/>
<stop offset="0.317708" stop-color="#263238"/>
<stop offset="1" stop-color="#141B1F"/>
</linearGradient>
<linearGradient id="paint18_linear_207_5691" x1="373.237" y1="80.9935" x2="399.336" y2="89.9239" gradientUnits="userSpaceOnUse">
<stop stop-color="#455A64"/>
<stop offset="0.244792" stop-color="#263238"/>
<stop offset="0.734375" stop-color="#141B1F"/>
</linearGradient>
<linearGradient id="paint19_linear_207_5691" x1="423.938" y1="112.389" x2="474.725" y2="109.03" gradientUnits="userSpaceOnUse">
<stop stop-color="#455A64"/>
<stop offset="0.265625" stop-color="#263238"/>
<stop offset="0.546875" stop-color="#171F23"/>
<stop offset="1" stop-color="#131F33"/>
</linearGradient>
<linearGradient id="paint20_linear_207_5691" x1="650.371" y1="616.243" x2="536.233" y2="607.578" gradientUnits="userSpaceOnUse">
<stop offset="0.45" stop-color="#809CB9"/>
<stop offset="0.56" stop-color="#859FBB"/>
<stop offset="0.69" stop-color="#92AAC2"/>
<stop offset="0.81" stop-color="#A8BACE"/>
<stop offset="0.95" stop-color="#C7D2DD"/>
<stop offset="1" stop-color="#D6DDE5"/>
</linearGradient>
<linearGradient id="paint21_linear_207_5691" x1="662.989" y1="669.469" x2="690.396" y2="564.841" gradientUnits="userSpaceOnUse">
<stop offset="0.13" stop-color="#D3CBE7"/>
<stop offset="0.35" stop-color="#D8D1EA"/>
<stop offset="0.63" stop-color="#E5E0F1"/>
<stop offset="0.95" stop-color="#FBFBFD"/>
<stop offset="1" stop-color="white"/>
</linearGradient>
<linearGradient id="paint22_linear_207_5691" x1="349.937" y1="474.566" x2="388.427" y2="474.566" gradientUnits="userSpaceOnUse">
<stop stop-color="#557E84"/>
<stop offset="0.15" stop-color="#668B90"/>
<stop offset="0.45" stop-color="#93ADB1"/>
<stop offset="0.86" stop-color="#DBE3E4"/>
<stop offset="1" stop-color="#F5F7F7"/>
</linearGradient>
<linearGradient id="paint23_linear_207_5691" x1="341.994" y1="584.508" x2="271.932" y2="525.087" gradientUnits="userSpaceOnUse">
<stop stop-color="#809CB9"/>
<stop offset="0.2" stop-color="#859FBB"/>
<stop offset="0.43" stop-color="#92AAC2"/>
<stop offset="0.66" stop-color="#A8BACE"/>
<stop offset="0.9" stop-color="#C7D2DD"/>
<stop offset="1" stop-color="#D6DDE5"/>
</linearGradient>
<linearGradient id="paint24_linear_207_5691" x1="454.449" y1="455.856" x2="525.206" y2="454.531" gradientUnits="userSpaceOnUse">
<stop stop-color="#007288"/>
<stop offset="0.23" stop-color="#4799A9"/>
<stop offset="0.51" stop-color="#95C4CD"/>
<stop offset="0.74" stop-color="#CEE4E8"/>
<stop offset="0.91" stop-color="#F2F8F9"/>
<stop offset="1" stop-color="white"/>
</linearGradient>
<linearGradient id="paint25_linear_207_5691" x1="401.785" y1="495.841" x2="555.119" y2="494.978" gradientUnits="userSpaceOnUse">
<stop stop-color="#187287"/>
<stop offset="0.03" stop-color="#455A64"/>
<stop offset="0.09" stop-color="#263238"/>
<stop offset="0.15" stop-color="#141B1F"/>
<stop offset="0.2" stop-color="#0C0E2C"/>
<stop offset="0.26" stop-color="#070820"/>
<stop offset="0.32" stop-color="#06061C"/>
<stop offset="0.44" stop-color="#06081E"/>
<stop offset="0.51" stop-color="#061124"/>
<stop offset="0.57" stop-color="#051F2E"/>
<stop offset="0.62" stop-color="#05333C"/>
<stop offset="0.66" stop-color="#044D4E"/>
<stop offset="0.71" stop-color="#036D65"/>
<stop offset="0.75" stop-color="#02937F"/>
<stop offset="0.79" stop-color="#01C09E"/>
<stop offset="0.82" stop-color="#00F0C1"/>
<stop offset="0.83" stop-color="#00F8C6"/>
</linearGradient>
<linearGradient id="paint26_linear_207_5691" x1="385.913" y1="574.113" x2="507.283" y2="544.386" gradientUnits="userSpaceOnUse">
<stop stop-color="#007288"/>
<stop offset="0.23" stop-color="#4799A9"/>
<stop offset="0.51" stop-color="#95C4CD"/>
<stop offset="0.74" stop-color="#CEE4E8"/>
<stop offset="0.91" stop-color="#F2F8F9"/>
<stop offset="1" stop-color="white"/>
</linearGradient>
<linearGradient id="paint27_linear_207_5691" x1="348.254" y1="650.868" x2="553.435" y2="619.413" gradientUnits="userSpaceOnUse">
<stop stop-color="#007288"/>
<stop offset="0.23" stop-color="#4799A9"/>
<stop offset="0.51" stop-color="#95C4CD"/>
<stop offset="0.74" stop-color="#CEE4E8"/>
<stop offset="0.91" stop-color="#F2F8F9"/>
<stop offset="1" stop-color="white"/>
</linearGradient>
<linearGradient id="paint28_linear_207_5691" x1="376.808" y1="669.383" x2="666.353" y2="628.693" gradientUnits="userSpaceOnUse">
<stop stop-color="#334299"/>
<stop offset="0.03" stop-color="#2A3680"/>
<stop offset="0.09" stop-color="#1D255C"/>
<stop offset="0.15" stop-color="#131740"/>
<stop offset="0.2" stop-color="#0C0E2C"/>
<stop offset="0.26" stop-color="#070820"/>
<stop offset="0.32" stop-color="#06061C"/>
<stop offset="0.46" stop-color="#06081E"/>
<stop offset="0.55" stop-color="#061124"/>
<stop offset="0.62" stop-color="#051F2E"/>
<stop offset="0.68" stop-color="#05333C"/>
<stop offset="0.74" stop-color="#044D4E"/>
<stop offset="0.79" stop-color="#036D65"/>
<stop offset="0.84" stop-color="#02937F"/>
<stop offset="0.88" stop-color="#01C09E"/>
<stop offset="0.93" stop-color="#00F8C6"/>
</linearGradient>
<linearGradient id="paint29_linear_207_5691" x1="543.264" y1="638.76" x2="345.684" y2="566.98" gradientUnits="userSpaceOnUse">
<stop stop-color="#263238"/>
<stop offset="0.03" stop-color="#455A64"/>
<stop offset="0.09" stop-color="#455A64"/>
<stop offset="0.15" stop-color="#455A64"/>
<stop offset="0.2" stop-color="#263238"/>
<stop offset="0.26" stop-color="#263238"/>
<stop offset="0.32" stop-color="#06061C"/>
<stop offset="0.46" stop-color="#06081E"/>
<stop offset="0.55" stop-color="#061124"/>
<stop offset="0.62" stop-color="#051F2E"/>
<stop offset="0.68" stop-color="#05333C"/>
<stop offset="0.74" stop-color="#044D4E"/>
<stop offset="0.79" stop-color="#036D65"/>
<stop offset="0.84" stop-color="#02937F"/>
<stop offset="0.88" stop-color="#01C09E"/>
<stop offset="0.93" stop-color="#00F8C6"/>
</linearGradient>
<linearGradient id="paint30_linear_207_5691" x1="428.043" y1="369.233" x2="519.612" y2="357.61" gradientUnits="userSpaceOnUse">
<stop stop-color="#007288"/>
<stop offset="0.23" stop-color="#4799A9"/>
<stop offset="0.51" stop-color="#95C4CD"/>
<stop offset="0.74" stop-color="#CEE4E8"/>
<stop offset="0.91" stop-color="#F2F8F9"/>
<stop offset="1" stop-color="white"/>
</linearGradient>
<linearGradient id="paint31_linear_207_5691" x1="315.444" y1="363.797" x2="539.02" y2="363.066" gradientUnits="userSpaceOnUse">
<stop stop-color="#334299"/>
<stop offset="0.03" stop-color="#2A3680"/>
<stop offset="0.09" stop-color="#1D255C"/>
<stop offset="0.15" stop-color="#131740"/>
<stop offset="0.2" stop-color="#0C0E2C"/>
<stop offset="0.26" stop-color="#070820"/>
<stop offset="0.32" stop-color="#06061C"/>
<stop offset="0.44" stop-color="#06081E"/>
<stop offset="0.51" stop-color="#061124"/>
<stop offset="0.57" stop-color="#051F2E"/>
<stop offset="0.62" stop-color="#05333C"/>
<stop offset="0.66" stop-color="#044D4E"/>
<stop offset="0.71" stop-color="#036D65"/>
<stop offset="0.75" stop-color="#02937F"/>
<stop offset="0.79" stop-color="#01C09E"/>
<stop offset="0.82" stop-color="#00F0C1"/>
<stop offset="0.83" stop-color="#00F8C6"/>
</linearGradient>
<linearGradient id="paint32_linear_207_5691" x1="366.224" y1="594.073" x2="655.77" y2="553.383" gradientUnits="userSpaceOnUse">
<stop stop-color="#334299"/>
<stop offset="0.03" stop-color="#2A3680"/>
<stop offset="0.09" stop-color="#1D255C"/>
<stop offset="0.15" stop-color="#131740"/>
<stop offset="0.2" stop-color="#0C0E2C"/>
<stop offset="0.26" stop-color="#070820"/>
<stop offset="0.32" stop-color="#06061C"/>
<stop offset="0.46" stop-color="#06081E"/>
<stop offset="0.55" stop-color="#061124"/>
<stop offset="0.62" stop-color="#051F2E"/>
<stop offset="0.68" stop-color="#05333C"/>
<stop offset="0.74" stop-color="#044D4E"/>
<stop offset="0.79" stop-color="#036D65"/>
<stop offset="0.84" stop-color="#02937F"/>
<stop offset="0.88" stop-color="#01C09E"/>
<stop offset="0.93" stop-color="#00F8C6"/>
</linearGradient>
<linearGradient id="paint33_linear_207_5691" x1="656.659" y1="580.066" x2="451.498" y2="512.395" gradientUnits="userSpaceOnUse">
<stop stop-color="#334299"/>
<stop offset="0.03" stop-color="#2A3680"/>
<stop offset="0.09" stop-color="#1D255C"/>
<stop offset="0.15" stop-color="#131740"/>
<stop offset="0.2" stop-color="#0C0E2C"/>
<stop offset="0.26" stop-color="#070820"/>
<stop offset="0.32" stop-color="#06061C"/>
<stop offset="0.46" stop-color="#06081E"/>
<stop offset="0.55" stop-color="#061124"/>
<stop offset="0.62" stop-color="#051F2E"/>
<stop offset="0.68" stop-color="#05333C"/>
<stop offset="0.74" stop-color="#044D4E"/>
<stop offset="0.79" stop-color="#036D65"/>
<stop offset="0.84" stop-color="#02937F"/>
<stop offset="0.88" stop-color="#01C09E"/>
<stop offset="0.93" stop-color="#00F8C6"/>
</linearGradient>
<linearGradient id="paint34_linear_207_5691" x1="192.771" y1="571.605" x2="522.141" y2="513.231" gradientUnits="userSpaceOnUse">
<stop stop-color="#334299"/>
<stop offset="0.03" stop-color="#2A3680"/>
<stop offset="0.09" stop-color="#1D255C"/>
<stop offset="0.15" stop-color="#131740"/>
<stop offset="0.2" stop-color="#0C0E2C"/>
<stop offset="0.26" stop-color="#070820"/>
<stop offset="0.32" stop-color="#06061C"/>
<stop offset="0.46" stop-color="#06081E"/>
<stop offset="0.55" stop-color="#061124"/>
<stop offset="0.62" stop-color="#051F2E"/>
<stop offset="0.68" stop-color="#05333C"/>
<stop offset="0.74" stop-color="#044D4E"/>
<stop offset="0.79" stop-color="#036D65"/>
<stop offset="0.84" stop-color="#02937F"/>
<stop offset="0.88" stop-color="#01C09E"/>
<stop offset="0.93" stop-color="#00F8C6"/>
</linearGradient>
<linearGradient id="paint35_linear_207_5691" x1="452.428" y1="428.025" x2="536.174" y2="432.642" gradientUnits="userSpaceOnUse">
<stop stop-color="#0B0D29"/>
<stop offset="0.03" stop-color="#263238"/>
<stop offset="0.09" stop-color="#263238"/>
<stop offset="0.15" stop-color="#455A64"/>
<stop offset="0.2" stop-color="#263238"/>
<stop offset="0.26" stop-color="#070820"/>
<stop offset="0.32" stop-color="#06061C"/>
<stop offset="0.46" stop-color="#06081E"/>
<stop offset="0.55" stop-color="#061124"/>
<stop offset="0.62" stop-color="#051F2E"/>
<stop offset="0.68" stop-color="#05333C"/>
<stop offset="0.74" stop-color="#044D4E"/>
<stop offset="0.79" stop-color="#036D65"/>
<stop offset="0.84" stop-color="#02937F"/>
<stop offset="0.88" stop-color="#01C09E"/>
<stop offset="0.93" stop-color="#00F8C6"/>
</linearGradient>
<linearGradient id="paint36_linear_207_5691" x1="481.56" y1="435.746" x2="555.729" y2="395.541" gradientUnits="userSpaceOnUse">
<stop stop-color="#0B0D29"/>
<stop offset="0.03" stop-color="#263238"/>
<stop offset="0.09" stop-color="#263238"/>
<stop offset="0.15" stop-color="#455A64"/>
<stop offset="0.2" stop-color="#263238"/>
<stop offset="0.26" stop-color="#070820"/>
<stop offset="0.32" stop-color="#06061C"/>
<stop offset="0.46" stop-color="#06081E"/>
<stop offset="0.55" stop-color="#061124"/>
<stop offset="0.62" stop-color="#051F2E"/>
<stop offset="0.68" stop-color="#05333C"/>
<stop offset="0.74" stop-color="#044D4E"/>
<stop offset="0.79" stop-color="#036D65"/>
<stop offset="0.84" stop-color="#02937F"/>
<stop offset="0.88" stop-color="#01C09E"/>
<stop offset="0.93" stop-color="#00F8C6"/>
</linearGradient>
<linearGradient id="paint37_linear_207_5691" x1="370.287" y1="623.027" x2="577.525" y2="591.716" gradientUnits="userSpaceOnUse">
<stop stop-color="#334299"/>
<stop offset="0.03" stop-color="#2A3680"/>
<stop offset="0.09" stop-color="#1D255C"/>
<stop offset="0.15" stop-color="#131740"/>
<stop offset="0.2" stop-color="#0C0E2C"/>
<stop offset="0.26" stop-color="#070820"/>
<stop offset="0.32" stop-color="#06061C"/>
<stop offset="0.46" stop-color="#06081E"/>
<stop offset="0.55" stop-color="#061124"/>
<stop offset="0.62" stop-color="#051F2E"/>
<stop offset="0.68" stop-color="#05333C"/>
<stop offset="0.74" stop-color="#044D4E"/>
<stop offset="0.79" stop-color="#036D65"/>
<stop offset="0.84" stop-color="#02937F"/>
<stop offset="0.88" stop-color="#01C09E"/>
<stop offset="0.93" stop-color="#00F8C6"/>
</linearGradient>
<linearGradient id="paint38_linear_207_5691" x1="650.152" y1="561.066" x2="596.982" y2="564.623" gradientUnits="userSpaceOnUse">
<stop stop-color="#94CA9D"/>
<stop offset="0.57" stop-color="#73B397"/>
<stop offset="0.65" stop-color="#529B91"/>
<stop offset="0.73" stop-color="#39898D"/>
<stop offset="0.81" stop-color="#267C8A"/>
<stop offset="0.9" stop-color="#1C7588"/>
<stop offset="1" stop-color="#187287"/>
</linearGradient>
<linearGradient id="paint39_linear_207_5691" x1="547.421" y1="495.01" x2="545.591" y2="517.072" gradientUnits="userSpaceOnUse">
<stop offset="0.23" stop-color="#93C99D"/>
<stop offset="0.41" stop-color="#67AA95"/>
<stop offset="0.58" stop-color="#45928F"/>
<stop offset="0.74" stop-color="#2C808B"/>
<stop offset="0.88" stop-color="#1D7688"/>
<stop offset="1" stop-color="#187287"/>
</linearGradient>
<linearGradient id="paint40_linear_207_5691" x1="542.922" y1="523.379" x2="545.37" y2="535.882" gradientUnits="userSpaceOnUse">
<stop offset="0.27" stop-color="#94CA9D"/>
<stop offset="1" stop-color="#187287"/>
</linearGradient>
<linearGradient id="paint41_linear_207_5691" x1="427.098" y1="422.975" x2="502.79" y2="460.067" gradientUnits="userSpaceOnUse">
<stop stop-color="#0B0D29"/>
<stop offset="0.03" stop-color="#263238"/>
<stop offset="0.09" stop-color="#263238"/>
<stop offset="0.15" stop-color="#455A64"/>
<stop offset="0.2" stop-color="#263238"/>
<stop offset="0.26" stop-color="#070820"/>
<stop offset="0.32" stop-color="#06061C"/>
<stop offset="0.46" stop-color="#06081E"/>
<stop offset="0.55" stop-color="#061124"/>
<stop offset="0.62" stop-color="#051F2E"/>
<stop offset="0.68" stop-color="#05333C"/>
<stop offset="0.74" stop-color="#044D4E"/>
<stop offset="0.79" stop-color="#036D65"/>
<stop offset="0.84" stop-color="#02937F"/>
<stop offset="0.88" stop-color="#01C09E"/>
<stop offset="0.93" stop-color="#00F8C6"/>
</linearGradient>
<linearGradient id="paint42_linear_207_5691" x1="450.126" y1="279.439" x2="676.245" y2="279.206" gradientUnits="userSpaceOnUse">
<stop stop-color="#141B1F"/>
<stop offset="0.03" stop-color="#263238"/>
<stop offset="0.09" stop-color="#455A64"/>
<stop offset="0.15" stop-color="#131740"/>
<stop offset="0.2" stop-color="#0C0E2C"/>
<stop offset="0.26" stop-color="#070820"/>
<stop offset="0.32" stop-color="#06061C"/>
<stop offset="0.41" stop-color="#06081E"/>
<stop offset="0.46" stop-color="#061124"/>
<stop offset="0.5" stop-color="#051F2E"/>
<stop offset="0.54" stop-color="#05333C"/>
<stop offset="0.58" stop-color="#044D4E"/>
<stop offset="0.61" stop-color="#036D65"/>
<stop offset="0.64" stop-color="#02937F"/>
<stop offset="0.67" stop-color="#01C09E"/>
<stop offset="0.7" stop-color="#00F8C6"/>
</linearGradient>
<linearGradient id="paint43_linear_207_5691" x1="479.201" y1="246.541" x2="480.372" y2="336.276" gradientUnits="userSpaceOnUse">
<stop offset="0.04" stop-color="#78F9C7"/>
<stop offset="0.1" stop-color="#6BDDB5"/>
<stop offset="0.26" stop-color="#4B9386"/>
<stop offset="0.41" stop-color="#315961"/>
<stop offset="0.598958" stop-color="#455A64"/>
<stop offset="0.765625" stop-color="#263238"/>
<stop offset="1" stop-color="#141B1F"/>
</linearGradient>
<linearGradient id="paint44_linear_207_5691" x1="436.493" y1="326.012" x2="494.714" y2="326.012" gradientUnits="userSpaceOnUse">
<stop stop-color="#007288"/>
<stop offset="0.23" stop-color="#4799A9"/>
<stop offset="0.51" stop-color="#95C4CD"/>
<stop offset="0.74" stop-color="#CEE4E8"/>
<stop offset="0.91" stop-color="#F2F8F9"/>
<stop offset="1" stop-color="white"/>
</linearGradient>
<linearGradient id="paint45_linear_207_5691" x1="415.96" y1="318.889" x2="421.141" y2="333.617" gradientUnits="userSpaceOnUse">
<stop stop-color="#94CA9D"/>
<stop offset="1" stop-color="#187287"/>
</linearGradient>
<linearGradient id="paint46_linear_207_5691" x1="412.925" y1="286.605" x2="414.54" y2="298.658" gradientUnits="userSpaceOnUse">
<stop stop-color="#94CA9D"/>
<stop offset="1" stop-color="#187287"/>
</linearGradient>
<linearGradient id="paint47_linear_207_5691" x1="414.502" y1="290.687" x2="418.399" y2="308.417" gradientUnits="userSpaceOnUse">
<stop stop-color="#94CA9D"/>
<stop offset="1" stop-color="#187287"/>
</linearGradient>
<linearGradient id="paint48_linear_207_5691" x1="382.519" y1="333.72" x2="351.234" y2="397.129" gradientUnits="userSpaceOnUse">
<stop stop-color="#94CA9D"/>
<stop offset="1" stop-color="#187287"/>
</linearGradient>
</defs>
</svg>
