<svg width="64" height="65" viewBox="0 0 64 65" fill="none" xmlns="http://www.w3.org/2000/svg">
<path d="M14.2311 52.1689C13.9086 51.8638 13.5831 51.5567 13.2575 51.2464C18.1074 46.4887 23.0464 40.6436 23.0464 32.715C23.0464 24.7864 18.1074 18.9413 13.2575 14.1825C13.5831 13.8723 13.9086 13.5652 14.2311 13.2601C18.4125 9.3101 22.0225 5.89868 22.0225 1.99991V0.976074H19.9749V1.99991C19.9749 2.67462 19.8008 3.35649 19.4998 4.04758H4.06854C3.76753 3.35649 3.59348 2.67462 3.59348 1.99991V0.976074H1.54581V1.99991C1.54581 5.89868 5.15586 9.3101 9.3372 13.2611C9.65971 13.5662 9.98529 13.8733 10.3109 14.1836C5.46096 18.9413 0.521973 24.7864 0.521973 32.715C0.521973 40.6436 5.46096 46.4887 10.3109 51.2475C9.98529 51.5577 9.65971 51.8648 9.3372 52.1699C5.15586 56.1199 1.54581 59.5313 1.54581 63.4301V64.4539H3.59348V63.4301C3.59348 62.7554 3.76753 62.0735 4.06854 61.3824H19.5008C19.8008 62.0735 19.9749 62.7554 19.9749 63.4301V64.4539H22.0225V63.4301C22.0225 59.5313 18.4125 56.1199 14.2311 52.1689ZM5.29305 6.09526H18.2753C17.7757 6.76382 17.1829 7.4457 16.5266 8.14293H7.04176C6.38548 7.4457 5.79166 6.76382 5.29305 6.09526ZM9.08124 10.1906H14.4861C13.9486 10.7087 13.3936 11.2339 12.8244 11.7724C12.4824 12.096 12.1343 12.4246 11.7842 12.7574C11.433 12.4246 11.0859 12.096 10.744 11.7724C10.1747 11.2339 9.61876 10.7087 9.08124 10.1906ZM11.7842 15.6036C13.023 16.8158 14.2475 18.0741 15.3789 19.4051H8.18948C9.32082 18.0741 10.5453 16.8158 11.7842 15.6036ZM4.15659 25.5481H13.8318V23.5005H5.23571C5.67494 22.7582 6.15205 22.0384 6.66499 21.3381V21.4528H16.9034V21.3381C17.4163 22.0374 17.8934 22.7582 18.3326 23.5005H15.8795V25.5481H19.4128C19.7128 26.2106 19.9656 26.8965 20.1878 27.5958H3.38155C3.60372 26.8965 3.85558 26.2106 4.15659 25.5481ZM2.85325 29.6435H20.7161C20.839 30.3069 20.9096 30.9929 20.9526 31.6912H2.61674C2.65872 30.9929 2.72936 30.3069 2.85325 29.6435ZM3.38052 37.8342H6.66499V35.7865H2.85222C2.72936 35.1231 2.65872 34.4371 2.61572 33.7388H20.9516C20.9096 34.4371 20.839 35.1231 20.7151 35.7865H8.71266V37.8342H20.1868C19.9646 38.5335 19.7128 39.2194 19.4118 39.8819H4.15557C3.85558 39.2194 3.6027 38.5335 3.38052 37.8342ZM6.66499 44.0919C6.15205 43.3916 5.67494 42.6718 5.23571 41.9295H18.3326C17.8944 42.6718 17.4163 43.3916 16.9034 44.0919V43.9772H6.66499V44.0919V44.0919ZM8.18948 46.0249H15.3789C14.2475 47.3559 13.023 48.6142 11.7842 49.8264C10.5453 48.6142 9.32082 47.3559 8.18948 46.0249ZM10.744 53.6576C11.0859 53.334 11.434 53.0054 11.7842 52.6726C12.1353 53.0064 12.4824 53.3351 12.8244 53.6576C13.3936 54.1961 13.9496 54.7213 14.4861 55.2394H9.08124C9.61876 54.7213 10.1747 54.1961 10.744 53.6576ZM5.29305 59.3347C5.79268 58.6662 6.38548 57.9843 7.04176 57.2871H16.5276C17.1839 57.9843 17.7767 58.6662 18.2763 59.3347H5.29305Z" fill="#5CA293"/>
<path d="M58.8807 56.2631H57.2292C59.6434 51.8923 60.9283 46.9533 60.9283 41.9294C60.9283 33.6639 57.4667 25.7794 51.4189 20.1667L54.1987 17.387L52.15 15.3383L55.8225 11.6678L56.8504 12.6947L61.3491 8.15607L53.7594 0.545898L49.2607 5.11118L50.2763 6.12683L46.6008 9.79012L44.5603 7.74961L30.2266 22.0833L28.1789 20.0356L23.6597 24.5549L37.3934 38.2886L41.9126 33.7694L39.8649 31.7217L45.6087 25.978C48.5624 28.6451 50.7391 32.0985 51.8561 35.8887C50.0214 36.2921 48.6423 37.9262 48.6423 39.8817C48.6423 42.1065 50.4279 43.9136 52.6393 43.9668C52.5585 44.8227 52.4233 45.6725 52.2411 46.511C51.4404 46.2018 50.5743 46.0247 49.6661 46.0247H34.3086C31.4859 46.0247 29.1894 48.3212 29.1894 51.1439V52.1677H42.5812C42.5331 52.5035 42.4993 52.8435 42.4993 53.1916V56.2631H28.1656C25.3429 56.2631 23.0464 58.5595 23.0464 61.3822V64.4538H63.9998V61.3822C63.9998 58.5595 61.7034 56.2631 58.8807 56.2631ZM53.7676 3.45359L58.4599 8.16017L56.8422 9.79319L52.1459 5.09992L53.7676 3.45359ZM51.7251 7.57351L54.3737 10.2201L50.7023 13.8896L48.0495 11.2368L51.7251 7.57351ZM37.3934 35.3922L26.5551 24.5538L28.1789 22.93L39.0172 33.7684L37.3934 35.3922ZM38.4172 30.273L31.6743 23.53L44.5603 10.644L51.3032 17.387L38.4172 30.273ZM47.0584 24.5282L49.9712 21.6154C55.6361 26.8442 58.8807 34.2076 58.8807 41.9294C58.8807 45.5599 58.166 49.1433 56.7961 52.4687C56.5965 50.4845 55.5808 48.7409 54.0952 47.5687C54.428 46.2172 54.6409 44.8319 54.73 43.4375C55.9781 42.7351 56.833 41.4133 56.833 39.8817C56.833 38.0715 55.6453 36.5501 54.0144 36.0106C52.8707 31.6204 50.432 27.6018 47.0584 24.5282ZM50.69 39.8817C50.69 38.7524 51.6083 37.834 52.7376 37.834C53.8669 37.834 54.7853 38.7524 54.7853 39.8817C54.7853 41.011 53.8669 41.9294 52.7376 41.9294C51.6083 41.9294 50.69 41.011 50.69 39.8817ZM31.4122 50.12C31.835 48.9283 32.9735 48.0724 34.3086 48.0724H44.6596C44.0586 48.6601 43.5661 49.3532 43.2006 50.12H31.4122ZM61.9522 62.4061H25.0941V61.3822C25.0941 59.6888 26.4721 58.3107 28.1656 58.3107H46.5946V56.2631H44.5469V53.1916C44.5469 50.3688 46.8434 48.0724 49.6661 48.0724C52.4888 48.0724 54.7853 50.3688 54.7853 53.1916V56.2631H48.6423V58.3107H58.8807C60.5741 58.3107 61.9522 59.6888 61.9522 61.3822V62.4061Z" fill="#5CA293"/>
</svg>
