<svg width="71" height="71" viewBox="0 0 71 71" fill="none" xmlns="http://www.w3.org/2000/svg">
<path d="M24.3838 55.4373C29.2479 55.4373 33.2052 51.4801 33.2052 46.616C33.2052 41.752 29.2479 37.7947 24.3838 37.7947C19.5198 37.7947 15.5625 41.752 15.5625 46.616C15.5625 51.4801 19.5198 55.4373 24.3838 55.4373ZM24.3838 39.8748C28.1009 39.8748 31.1251 42.8989 31.1251 46.616C31.1251 50.3333 28.1009 53.3573 24.3838 53.3573C20.6667 53.3573 17.6426 50.3331 17.6426 46.616C17.6426 42.8989 20.6667 39.8748 24.3838 39.8748Z" fill="#5CA293"/>
<path d="M47.6576 42.2515L43.6349 41.478C43.1842 39.7862 42.511 38.1645 41.6269 36.641L43.9272 33.2454C44.1759 32.8783 44.1645 32.3938 43.8987 32.0388C43.1028 30.9756 42.3806 30.1288 41.6258 29.3742C40.8713 28.6197 40.0246 27.8975 38.9611 27.1014C38.6061 26.8355 38.1216 26.8242 37.7545 27.0728L34.3589 29.3729C32.8356 28.4889 31.2138 27.8158 29.522 27.3651L28.7485 23.3424C28.6647 22.9068 28.314 22.5725 27.8751 22.5094C26.5604 22.3204 25.4509 22.2322 24.3838 22.2322C23.3167 22.2322 22.2073 22.3202 20.8924 22.5094C20.4535 22.5725 20.1028 22.907 20.0191 23.3424L19.2456 27.3651C17.5538 27.8158 15.932 28.4891 14.4087 29.3729L11.013 27.0728C10.6458 26.8242 10.1616 26.8355 9.8066 27.1012C8.74354 27.8969 7.89681 28.6191 7.14188 29.3741C6.38695 30.129 5.66475 30.9757 4.86891 32.0388C4.60321 32.3938 4.5917 32.8782 4.84048 33.2454L7.14077 36.641C6.25674 38.1645 5.58348 39.7862 5.1328 41.478L1.11007 42.2515C0.674639 42.3353 0.340162 42.686 0.277066 43.1249C0.0880566 44.4394 0 45.5489 0 46.6162C0 47.6836 0.0880566 48.793 0.277066 50.1076C0.340301 50.5465 0.674639 50.8972 1.11007 50.9808L5.1328 51.7544C5.58348 53.4462 6.25674 55.0679 7.14077 56.5913L4.84062 59.9868C4.59198 60.3539 4.60335 60.8384 4.86905 61.1934C5.66475 62.2565 6.38695 63.1031 7.14202 63.8581C7.89695 64.6131 8.74368 65.3353 9.80674 66.131C10.1617 66.3968 10.6461 66.4082 11.0133 66.1594L14.4088 63.8593C15.9323 64.7433 17.5541 65.4165 19.2459 65.8672L20.0194 69.8898C20.1031 70.3254 20.4537 70.6597 20.8926 70.723C22.2066 70.912 23.316 71 24.3839 71C25.4518 71 26.5614 70.912 27.8753 70.723C28.3142 70.6597 28.6647 70.3254 28.7485 69.8898L29.522 65.8672C31.2138 65.4165 32.8356 64.7433 34.359 63.8593L37.7545 66.1594C38.1216 66.408 38.606 66.3967 38.9611 66.131C40.0243 65.3353 40.871 64.6131 41.626 63.8581C42.3809 63.1032 43.1031 62.2564 43.8988 61.1934C44.1645 60.8383 44.176 60.3539 43.9272 59.9868L41.6271 56.5913C42.5111 55.0679 43.1842 53.4461 43.635 51.7544L47.6578 50.9808C48.0932 50.897 48.4277 50.5465 48.4908 50.1076C48.6798 48.793 48.7678 47.6836 48.7678 46.6162C48.7678 45.5489 48.6798 44.4395 48.4908 43.1249C48.4275 42.6859 48.0931 42.3353 47.6576 42.2515V42.2515ZM46.5286 49.0797L42.5893 49.8373C42.1848 49.9151 41.8643 50.2243 41.7721 50.6258C41.3298 52.5513 40.5693 54.3837 39.5115 56.0719C39.2928 56.4209 39.3007 56.8663 39.5317 57.2073L41.7845 60.5328C41.2234 61.2467 40.6963 61.846 40.1551 62.3874C39.6138 62.9286 39.0145 63.4556 38.3005 64.0168L34.975 61.7641C34.6339 61.533 34.1886 61.5251 33.8395 61.7438C32.1514 62.8015 30.3189 63.5621 28.3935 64.0044C27.992 64.0967 27.6828 64.4171 27.605 64.8216L26.8474 68.7609C25.9461 68.8689 25.1497 68.9199 24.3839 68.9199C23.6182 68.9199 22.8218 68.8689 21.9204 68.7609L21.1629 64.8216C21.0851 64.4171 20.7758 64.0967 20.3744 64.0044C18.4489 63.5621 16.6165 62.8015 14.9283 61.7438C14.5793 61.5251 14.1339 61.533 13.7929 61.7641L10.4674 64.0168C9.75349 63.4559 9.15429 62.9286 8.61291 62.3874C8.07154 61.846 7.54458 61.2468 6.98338 60.5328L9.2361 57.2073C9.46713 56.8663 9.47517 56.4209 9.25635 56.0719C8.1987 54.3837 7.43808 52.5513 6.99572 50.6258C6.9035 50.2243 6.58303 49.9151 6.17853 49.8373L2.23927 49.0797C2.13125 48.178 2.08022 47.3816 2.08022 46.6161C2.08022 45.8508 2.13125 45.0544 2.23927 44.1525L6.17853 43.395C6.58303 43.3172 6.9035 43.008 6.99572 42.6065C7.43808 40.6811 8.1987 38.8487 9.25635 37.1605C9.47517 36.8114 9.46713 36.366 9.2361 36.025L6.98324 32.6995C7.5443 31.9857 8.07154 31.3863 8.61277 30.8449C9.15401 30.3037 9.75335 29.7765 10.4672 29.2156L13.7927 31.4684C14.1339 31.6994 14.5791 31.7073 14.9282 31.4887C16.6164 30.431 18.4486 29.6704 20.3741 29.2282C20.7755 29.136 21.0848 28.8153 21.1626 28.4108L21.92 24.4716C22.8221 24.3634 23.6185 24.3124 24.3836 24.3124C25.1488 24.3124 25.9452 24.3634 26.8473 24.4716L27.6047 28.4108C27.6825 28.8153 27.9917 29.136 28.3932 29.2282C30.3187 29.6704 32.1511 30.431 33.8391 31.4887C34.1882 31.7073 34.6334 31.6994 34.9746 31.4684L38.3001 29.2156C39.0144 29.7769 39.6136 30.304 40.1547 30.8451C40.6958 31.3863 41.2229 31.9855 41.7841 32.6997L39.5312 36.0252C39.3002 36.3662 39.2921 36.8114 39.5109 37.1606C40.5686 38.849 41.3292 40.6814 41.7716 42.6067C41.8638 43.0083 42.1843 43.3174 42.5888 43.3952L46.528 44.1526C46.636 45.0544 46.6871 45.8509 46.6871 46.6162C46.6876 47.3816 46.6366 48.178 46.5286 49.0797V49.0797Z" fill="#5CA293"/>
<path d="M31.4995 36.6004C31.9674 36.9335 32.6168 36.8243 32.95 36.3564C33.2832 35.8886 33.1739 35.2392 32.7061 34.9061C29.9684 32.9566 26.608 32.027 23.2453 32.2884C19.8408 32.5531 16.6341 34.0305 14.2161 36.4485C11.7981 38.8665 10.3207 42.0732 10.056 45.4776C9.79455 48.8409 10.7242 52.2007 12.6735 54.9383C12.8764 55.2233 13.1965 55.3752 13.5216 55.3752C13.7303 55.3752 13.9411 55.3126 14.124 55.1823C14.5919 54.849 14.7012 54.1996 14.368 53.7318C10.8749 48.8265 11.4296 42.1765 15.6869 37.9193C19.9444 33.6621 26.5944 33.1072 31.4995 36.6004V36.6004Z" fill="#5CA293"/>
<path d="M34.6438 38.0501C34.1759 38.3833 34.0666 39.0327 34.3998 39.5006C37.8928 44.4057 37.3382 51.0558 33.0809 55.313C28.8237 59.5703 22.1736 60.125 17.2684 56.632C16.8006 56.2989 16.1512 56.408 15.8179 56.8759C15.4847 57.3438 15.594 57.9932 16.0619 58.3264C18.4967 60.0602 21.4235 60.9872 24.4074 60.9872C24.7785 60.9872 25.1507 60.9728 25.5226 60.944C28.9271 60.6792 32.1337 59.202 34.5517 56.7838C36.9697 54.3658 38.4471 51.1591 38.7118 47.7547C38.9732 44.3914 38.0437 41.0316 36.0943 38.294C35.761 37.8261 35.1116 37.717 34.6438 38.0501V38.0501Z" fill="#5CA293"/>
<path d="M26.0162 15.389C26.2992 16.4115 26.696 17.3688 27.1956 18.2344C27.6955 19.1001 28.3261 19.9223 29.07 20.6785C29.3615 20.9747 29.8014 21.0688 30.1884 20.9182L31.3412 20.4699C32.0703 21.031 32.8649 21.49 33.7146 21.8412L33.9025 23.0625C33.9657 23.4731 34.2672 23.8069 34.6693 23.9112C35.6962 24.1774 36.7238 24.3124 37.7232 24.3124C38.7227 24.3124 39.7503 24.1774 40.777 23.9112C41.1791 23.8069 41.4808 23.4733 41.5439 23.0625L41.7318 21.8412C42.5813 21.49 43.3759 21.0308 44.1051 20.4698L45.2579 20.9181C45.6451 21.0688 46.0848 20.9744 46.3763 20.6783C47.1203 19.9222 47.7509 19.1 48.2507 18.2342C48.7504 17.3688 49.1471 16.4115 49.4301 15.389C49.5409 14.9885 49.4028 14.5604 49.0786 14.3004L48.119 13.5302C48.1807 13.0689 48.2118 12.6087 48.2118 12.1561C48.2118 11.7035 48.1806 11.2434 48.119 10.782L49.0786 10.0118C49.4027 9.75182 49.5408 9.32374 49.43 8.92326C49.147 7.90055 48.7502 6.9433 48.2506 6.07785C47.7508 5.2124 47.1203 4.39007 46.3762 3.63376C46.0848 3.33755 45.6452 3.24326 45.2578 3.39386L44.105 3.84218C43.3758 3.28112 42.5814 2.82211 41.7318 2.47086L41.5439 1.24943C41.4806 0.838826 41.1791 0.505182 40.777 0.4009C39.7503 0.135066 38.7229 0 37.7233 0C36.7238 0 35.6963 0.135066 34.6695 0.401316C34.2673 0.505598 33.9657 0.839242 33.9026 1.24985L33.7147 2.47127C32.8652 2.82239 32.0706 3.28153 31.3415 3.8426L30.1887 3.39427C29.8014 3.24354 29.3617 3.33797 29.0703 3.63417C28.3262 4.39049 27.6957 5.21268 27.1959 6.07827C26.6963 6.94358 26.2995 7.90083 26.0165 8.92353C25.9057 9.32402 26.0438 9.7521 26.3679 10.0121L27.3275 10.7823C27.2658 11.2437 27.2347 11.7038 27.2347 12.1564C27.2347 12.6092 27.2659 13.0691 27.3275 13.5305L26.3679 14.3007C26.0437 14.5604 25.9054 14.9885 26.0162 15.389ZM29.4726 13.764C29.3678 13.2231 29.3147 12.6821 29.3147 12.1561C29.3147 11.6301 29.3678 11.0892 29.4726 10.5482C29.546 10.1694 29.4034 9.78094 29.1025 9.53938L28.2214 8.83229C28.4316 8.22213 28.6915 7.64775 28.9972 7.11817C29.3032 6.58844 29.6706 6.07605 30.0939 5.58903L31.1529 6.00089C31.513 6.14095 31.9211 6.06981 32.2126 5.81618C33.0308 5.10423 33.965 4.56452 34.9891 4.21202C35.3544 4.08624 35.6198 3.76855 35.6785 3.38664L35.851 2.2652C36.4843 2.1422 37.1116 2.08008 37.7234 2.08008C38.3353 2.08008 38.9626 2.1422 39.5959 2.2652L39.7686 3.38678C39.8272 3.76855 40.0927 4.08624 40.4579 4.21202C41.482 4.56452 42.4162 5.10437 43.2343 5.81618C43.5258 6.06981 43.9339 6.14095 44.294 6.00089L45.353 5.58889C45.7763 6.07605 46.1437 6.5883 46.4496 7.11803C46.7554 7.64762 47.0153 8.22199 47.2255 8.83215L46.3444 9.53924C46.0433 9.7808 45.9008 10.1692 45.9743 10.5481C46.079 11.089 46.1322 11.63 46.1322 12.156C46.1322 12.682 46.0791 13.2228 45.9743 13.7639C45.9009 14.1427 46.0435 14.5311 46.3444 14.7727L47.2255 15.4798C47.0153 16.09 46.7554 16.6643 46.4496 17.1939C46.1437 17.7238 45.7763 18.2362 45.353 18.7231L44.294 18.3112C43.9339 18.171 43.5258 18.2423 43.2343 18.4959C42.4161 19.2079 41.482 19.7476 40.4578 20.1002C40.0927 20.226 39.8271 20.5437 39.7684 20.9254L39.5958 22.047C38.9625 22.17 38.3351 22.2322 37.7233 22.2322C37.1115 22.2322 36.4841 22.17 35.8508 22.047L35.6783 20.9256C35.6197 20.5438 35.3542 20.2261 34.989 20.1004C33.9649 19.7478 33.0306 19.208 32.2125 18.4961C31.9209 18.2423 31.5126 18.1711 31.1528 18.3113L30.0937 18.7232C29.6706 18.2363 29.303 17.7239 28.9971 17.1942C28.6913 16.6645 28.4315 16.0901 28.2212 15.4799L29.1024 14.7729C29.4034 14.5313 29.546 14.1429 29.4726 13.764V13.764Z" fill="#5CA293"/>
<path d="M37.7234 17.6428C40.7486 17.6428 43.2099 15.1816 43.2099 12.1564C43.2099 11.6925 43.1517 11.2312 43.0369 10.7852C42.8936 10.2288 42.3264 9.89408 41.7704 10.0373C41.214 10.1806 40.8793 10.7476 41.0224 11.3038C41.0936 11.5805 41.1297 11.8672 41.1297 12.1562C41.1297 14.0345 39.6015 15.5626 37.7232 15.5626C35.8449 15.5626 34.3169 14.0344 34.3169 12.1562C34.3169 10.2781 35.8451 8.74989 37.7232 8.74989C38.0124 8.74989 38.2991 8.78595 38.5756 8.85709C39.132 9.00006 39.6989 8.66544 39.8421 8.10909C39.9854 7.55274 39.6505 6.98571 39.0941 6.8426C38.6483 6.72778 38.1871 6.66968 37.7232 6.66968C34.698 6.66968 32.2368 9.13097 32.2368 12.1561C32.2368 15.1816 34.6981 17.6428 37.7234 17.6428V17.6428Z" fill="#5CA293"/>
<path d="M70.3561 30.1744L69.2239 29.6763C69.1049 28.764 68.8678 27.8776 68.5154 27.0285L69.2462 26.032C69.4919 25.6968 69.5147 25.2478 69.304 24.8896C68.7661 23.9751 68.135 23.1532 67.4283 22.4465C66.7217 21.7397 65.8998 21.1087 64.9852 20.5708C64.6272 20.3602 64.178 20.3829 63.8428 20.6285L62.8463 21.3593C61.9973 21.0068 61.1109 20.7698 60.1985 20.6508L59.7004 19.5186C59.5331 19.1382 59.1613 18.8951 58.74 18.8975C57.679 18.9062 56.6516 19.0417 55.6863 19.3003C54.7211 19.5589 53.7636 19.9553 52.8405 20.4782C52.479 20.683 52.274 21.0834 52.3192 21.4965L52.4533 22.7196C52.0835 23.0022 51.7361 23.3056 51.416 23.6256C51.096 23.9457 50.7927 24.2931 50.5101 24.6629L49.287 24.5288C48.8731 24.4836 48.4736 24.6886 48.2689 25.0499C47.746 25.9731 47.3496 26.9306 47.0909 27.8959C46.8321 28.8615 46.6966 29.8889 46.688 30.9496C46.6847 31.3651 46.9289 31.7427 47.3093 31.91L48.4414 32.4081C48.5602 33.3205 48.7975 34.207 49.1499 35.0559L48.4191 36.0524C48.1733 36.3876 48.1506 36.8366 48.3612 37.1948C48.899 38.1092 49.5301 38.9311 50.2369 39.6379C50.9437 40.3447 51.7658 40.9757 52.68 41.5136C53.0382 41.7243 53.4874 41.7015 53.8224 41.4558L54.8188 40.725C55.6679 41.0775 56.5544 41.3146 57.4667 41.4335L57.9647 42.5656C58.1309 42.9435 58.5045 43.1868 58.9167 43.1868H58.9251C59.9858 43.1782 61.0132 43.0426 61.9788 42.784C62.9443 42.5254 63.9018 42.1289 64.8248 41.606C65.1863 41.4012 65.3911 41.0009 65.3459 40.5878L65.2118 39.3646C65.5817 39.082 65.929 38.7787 66.2491 38.4587C66.5693 38.1386 66.8725 37.7912 67.1552 37.4214L68.3784 37.5554C68.7912 37.6006 69.1917 37.3958 69.3967 37.0341C69.9196 36.111 70.3159 35.1534 70.5745 34.1883C70.8332 33.2231 70.9686 32.1957 70.9774 31.1346C70.9808 30.7193 70.7366 30.3417 70.3561 30.1744V30.1744ZM68.5653 33.6501C68.4071 34.2408 68.1847 34.8307 67.9019 35.4108L66.7788 35.2877C66.3959 35.2456 66.0197 35.4195 65.8037 35.7393C65.4953 36.1958 65.1504 36.616 64.7785 36.9879C64.4065 37.3598 63.9865 37.7047 63.53 38.0131C63.2102 38.2292 63.0363 38.6046 63.0783 38.9883L63.2015 40.1114C62.6216 40.3941 62.0315 40.6165 61.4408 40.7749C60.8498 40.9333 60.2277 41.0355 59.5841 41.0807L59.1266 40.0406C58.971 39.6869 58.6321 39.4487 58.2466 39.4219C57.1645 39.3467 56.1224 39.0679 55.1489 38.593C55.0043 38.5225 54.8484 38.4877 54.6931 38.4877C54.4757 38.4877 54.2596 38.5557 54.0778 38.689L53.1629 39.36C52.6282 38.9992 52.1405 38.5996 51.7079 38.1669C51.2754 37.7342 50.8758 37.2467 50.5148 36.712L51.1858 35.7969C51.4142 35.4854 51.4513 35.073 51.2819 34.7258C50.8071 33.7523 50.5283 32.7102 50.4531 31.6281C50.4263 31.2426 50.1881 30.9037 49.8344 30.7481L48.7943 30.2905C48.8394 29.6469 48.9417 29.025 49.1002 28.4339C49.2586 27.8431 49.481 27.253 49.7636 26.6732L50.8867 26.7962C51.2699 26.8384 51.6458 26.6644 51.8619 26.3446C52.1703 25.8881 52.5152 25.468 52.8871 25.0961C53.259 24.7242 53.679 24.3793 54.1357 24.0708C54.4554 23.8547 54.6295 23.4793 54.5873 23.0956L54.4642 21.9727C55.0443 21.6898 55.6342 21.4673 56.2249 21.3091C56.8156 21.1509 57.4377 21.0486 58.0814 21.0033L58.5391 22.0435C58.6946 22.3971 59.0334 22.6355 59.4189 22.6621C60.501 22.7373 61.5432 23.0162 62.5166 23.491C62.8637 23.6603 63.2762 23.6233 63.5875 23.395L64.5026 22.724C65.0374 23.0848 65.5251 23.4846 65.9576 23.9171C66.3902 24.3496 66.7899 24.8372 67.1507 25.3721L66.4797 26.2872C66.2513 26.5986 66.2143 27.011 66.3836 27.3581C66.8584 28.3315 67.1373 29.3737 67.2124 30.4558C67.2392 30.8413 67.4774 31.1801 67.8312 31.3357L68.8712 31.7933C68.826 32.4373 68.7235 33.0593 68.5653 33.6501V33.6501Z" fill="#5CA293"/>
<path d="M62.8851 28.9344C62.3285 29.076 61.992 29.6422 62.1336 30.1988C62.2032 30.4724 62.2386 30.7562 62.2386 31.0423C62.2386 32.9206 60.7104 34.4487 58.8323 34.4487C56.9541 34.4487 55.4259 32.9205 55.4259 31.0423C55.4259 29.1641 56.9541 27.6358 58.8323 27.6358C59.1243 27.6358 59.414 27.6727 59.6933 27.7454C60.2492 27.8902 60.8171 27.5565 60.9616 27.0007C61.1062 26.4448 60.7728 25.8769 60.2169 25.7324C59.7666 25.6153 59.3008 25.5559 58.8321 25.5559C55.8069 25.5559 53.3457 28.0172 53.3457 31.0425C53.3457 34.0677 55.807 36.5289 58.8321 36.5289C61.8572 36.5289 64.3185 34.0676 64.3185 31.0425C64.3185 30.5835 64.2615 30.1271 64.1494 29.686C64.0078 29.1292 63.4418 28.7926 62.8851 28.9344V28.9344Z" fill="#5CA293"/>
</svg>
