<svg width="61" height="61" viewBox="0 0 61 61" fill="none" xmlns="http://www.w3.org/2000/svg">
<path d="M34.5935 51.4688L21.6042 31.3896V15.25C21.6042 14.5481 21.0351 13.9791 20.3333 13.9791H13.9791C13.2773 13.9791 12.7082 14.5481 12.7082 15.25V31.4251L0.865325 51.5577C0.298807 52.5206 3.79564e-09 53.6175 3.79564e-09 54.7348C-0.000119138 58.1948 2.80495 60.9999 6.26506 61H29.4071C30.5965 60.9996 31.7604 60.656 32.7593 60.0104C35.6245 58.1581 36.4458 54.334 34.5935 51.4688ZM29.4071 58.4584H6.26506C5.59894 58.4594 4.94461 58.2818 4.37047 57.9439C2.59812 56.901 2.00682 54.6187 3.04978 52.8464L15.0746 32.4152C15.1895 32.2199 15.25 31.9975 15.25 31.7709V16.5209H19.0625V31.7709C19.0624 32.0157 19.1331 32.2553 19.2659 32.4609L32.4572 52.8489C32.8378 53.4368 33.0403 54.1221 33.0406 54.8226C33.0412 56.8298 31.4145 58.4577 29.4071 58.4584Z" fill="#5CA293"/>
<path d="M18.3066 36.9469L16.1157 35.6596L5.32496 54.0015C5.20987 54.1972 5.14923 54.4202 5.14947 54.6472C5.15018 55.349 5.7198 55.9174 6.42166 55.9166H15.2502V53.375H8.64187L18.3066 36.9469Z" fill="#5CA293"/>
<path d="M57.9327 29.2291H38.1254C35.318 29.2291 33.042 31.5051 33.042 34.3125V54.6459C33.0462 58.1535 35.8887 60.9958 39.3962 61H50.8338C54.3414 60.9958 57.1838 58.1534 57.1879 54.6459V37.3803L60.1032 34.4662C60.6771 33.8912 60.9995 33.1122 61 32.2999C61.0011 30.605 59.6277 29.2301 57.9327 29.2291ZM58.3051 32.6693L55.0187 35.9557C54.7805 36.194 54.6464 36.5172 54.6464 36.8541V54.6458C54.6464 56.7513 52.9395 58.4583 50.8339 58.4583H39.3963C37.2907 58.4583 35.5838 56.7513 35.5838 54.6458V34.3125C35.5838 32.9088 36.7217 31.7709 38.1254 31.7709H57.9328C58.0727 31.7708 58.207 31.8263 58.3058 31.9253C58.511 32.1309 58.5108 32.464 58.3051 32.6693Z" fill="#5CA293"/>
<path d="M49.5627 36.8541V53.375H45.7502V55.9166H50.8336C51.5355 55.9166 52.1045 55.3476 52.1045 54.6458V36.8541H49.5627Z" fill="#5CA293"/>
<path d="M35.5835 18.4068V1.27087C35.5835 0.569016 35.0146 0 34.3127 0H25.4168C24.7149 0 24.1459 0.569016 24.1459 1.27087V18.7677C22.5949 19.2453 21.1029 19.8962 19.698 20.7083L20.9688 22.9081C22.4619 22.046 24.0651 21.3906 25.7345 20.9599C26.2959 20.8149 26.6881 20.3084 26.6876 19.7285V2.54163H33.0418V19.4323C33.042 20.0423 33.4757 20.5662 34.075 20.6803C38.5311 21.5322 42.538 23.9439 45.3767 27.4831L47.3579 25.892C44.3673 22.1652 40.2271 19.5332 35.5835 18.4068Z" fill="#5CA293"/>
<path d="M54.0109 17.7916C51.5543 17.7916 49.563 19.7831 49.563 22.2395C49.563 24.6961 51.5545 26.6874 54.0109 26.6874C56.4675 26.6874 58.4588 24.6959 58.4588 22.2395C58.4588 19.7831 56.4675 17.7916 54.0109 17.7916ZM54.0109 24.1459C52.9581 24.1459 52.1047 23.2925 52.1047 22.2396C52.1047 21.1868 52.9581 20.3334 54.0109 20.3334C55.0638 20.3334 55.9172 21.1868 55.9172 22.2396C55.9172 23.2925 55.0638 24.1459 54.0109 24.1459Z" fill="#5CA293"/>
<path d="M49.5627 8.89588C47.4571 8.89588 45.7502 10.6028 45.7502 12.7084C45.7502 14.814 47.4571 16.5209 49.5627 16.5209C51.6683 16.5209 53.3752 14.814 53.3752 12.7084C53.3752 10.6028 51.6683 8.89588 49.5627 8.89588ZM49.5627 13.9791C48.8609 13.9791 48.2918 13.4101 48.2918 12.7083C48.2918 12.0064 48.8609 11.4375 49.5627 11.4375C50.2646 11.4375 50.8336 12.0065 50.8336 12.7084C50.8336 13.4102 50.2646 13.9791 49.5627 13.9791Z" fill="#5CA293"/>
<path d="M4.44791 10.1666C1.99133 10.1666 0 12.1581 0 14.6145C0 17.0711 1.99133 19.0625 4.44791 19.0625C6.90449 19.0625 8.89582 17.0711 8.89582 14.6146C8.89582 12.1581 6.90449 10.1666 4.44791 10.1666ZM4.44791 16.5209C3.39506 16.5209 2.54165 15.6675 2.54165 14.6146C2.54165 13.5618 3.39506 12.7084 4.44791 12.7084C5.50076 12.7084 6.35418 13.5618 6.35418 14.6146C6.35418 15.6675 5.50076 16.5209 4.44791 16.5209Z" fill="#5CA293"/>
<path d="M10.1668 1.27088C8.0612 1.27088 6.35426 2.9778 6.35426 5.08338C6.35426 7.18895 8.0612 8.89588 10.1668 8.89588C12.2724 8.89588 13.9793 7.18895 13.9793 5.08338C13.9793 2.9778 12.2724 1.27088 10.1668 1.27088ZM10.1668 6.35413C9.46492 6.35413 8.8959 5.78511 8.8959 5.08326C8.8959 4.38152 9.46492 3.8125 10.1668 3.8125C10.8686 3.8125 11.4377 4.38152 11.4377 5.08338C11.4377 5.78523 10.8686 6.35413 10.1668 6.35413Z" fill="#5CA293"/>
<path d="M41.9377 36.8541H38.1252V39.3958H41.9377V36.8541Z" fill="#5CA293"/>
<path d="M40.6669 41.9375H38.1252V44.4791H40.6669V41.9375Z" fill="#5CA293"/>
<path d="M41.9377 47.0209H38.1252V49.5625H41.9377V47.0209Z" fill="#5CA293"/>
<path d="M40.6669 52.1041H38.1252V54.6458H40.6669V52.1041Z" fill="#5CA293"/>
<path d="M5.08342 22.875H2.54177V25.4166H5.08342V22.875Z" fill="#5CA293"/>
<path d="M8.8959 29.2291H6.35426V31.7708H8.8959V29.2291Z" fill="#5CA293"/>
<path d="M30.5001 34.3125H27.9585V36.8541H30.5001V34.3125Z" fill="#5CA293"/>
<path d="M27.9583 29.2291H25.4167V31.7708H27.9583V29.2291Z" fill="#5CA293"/>
<path d="M26.6876 24.1459H24.146V26.6875H26.6876V24.1459Z" fill="#5CA293"/>
<path d="M27.9583 52.1041H25.4167V54.6458H27.9583V52.1041Z" fill="#5CA293"/>
<path d="M24.1459 47.0209H21.6042V49.5625H24.1459V47.0209Z" fill="#5CA293"/>
</svg>
