<svg width="63" height="65" viewBox="0 0 63 65" fill="none" xmlns="http://www.w3.org/2000/svg">
<path d="M54.0734 54.5939C53.5272 51.6909 50.9784 49.2674 49.5462 48.1061C50.8884 46.6391 51.7537 44.5067 51.947 42.0604C51.9633 41.8051 51.8785 41.5537 51.711 41.3604C51.5435 41.1671 51.3066 41.0474 51.0516 41.0273C50.7966 41.0072 50.544 41.0881 50.3482 41.2528C50.1524 41.4174 50.0292 41.6524 50.0052 41.9071C49.8137 44.3323 48.864 46.3411 47.4296 47.4133C47.4241 47.4177 47.4183 47.4218 47.4128 47.4258C47.265 47.5354 47.1105 47.6356 46.9503 47.7261C43.1809 49.8498 40.1178 50.0061 40.0899 50.0076C39.9302 50.0137 39.7745 50.0591 39.6365 50.1396C39.4984 50.2202 39.3823 50.3334 39.2984 50.4694C39.2144 50.6054 39.1652 50.76 39.1551 50.9195C39.145 51.079 39.1743 51.2385 39.2405 51.384L40.2051 53.5062H22.865C23.2404 53.2443 23.6511 53.037 24.0848 52.8906C28.4203 51.3085 31.8497 51.3855 31.8824 51.3873C32.1242 51.3948 32.3602 51.312 32.5443 51.1551C32.7284 50.9982 32.8476 50.7783 32.8786 50.5384C32.9095 50.2985 32.8501 50.0556 32.7118 49.8571C32.5736 49.6585 32.3664 49.5186 32.1306 49.4644C29.263 48.8056 21.877 46.2724 22.132 42.5128C22.2852 40.2528 23.8672 38.6832 26.8339 37.8478C29.2307 37.1729 31.6371 37.2523 31.6885 37.2545C31.9454 37.2629 32.1952 37.1694 32.3835 36.9944C32.5718 36.8193 32.6832 36.577 32.6936 36.3201C32.7039 36.0633 32.6123 35.8127 32.4387 35.6232C32.2651 35.4336 32.0235 35.3203 31.7668 35.3081C29.9396 35.2718 28.1162 35.4913 26.3499 35.9604C22.5317 37.0228 20.401 39.2426 20.1885 42.3811C19.9616 45.7253 23.211 48.012 25.9762 49.3412C26.4338 49.5611 26.8916 49.7626 27.3375 49.9457C26.0051 50.2216 24.6946 50.5942 23.4164 51.0607C21.9795 51.5851 21.0406 52.3053 20.6258 53.2011C20.3766 53.7033 20.3317 54.2826 20.5005 54.8172C20.5695 55.004 20.6941 55.1651 20.8574 55.279C21.0208 55.3928 21.2152 55.4538 21.4143 55.4538H41.7176C41.8806 55.4538 42.041 55.4129 42.1841 55.3349C42.3272 55.2568 42.4484 55.1441 42.5366 55.0071C42.6248 54.8701 42.6773 54.7131 42.6891 54.5505C42.7009 54.388 42.6718 54.2251 42.6043 54.0767L41.559 51.777C43.79 51.3473 45.9347 50.5519 47.9064 49.423C47.9376 49.4053 47.9681 49.3864 47.9992 49.3682C49.1141 50.2297 51.6916 52.4564 52.1593 54.9576C52.3629 56.0461 52.1358 57.0425 51.4652 58.0039C49.0474 61.4714 45.6132 61.0362 40.4159 60.3769C38.0918 60.0823 35.4575 59.7481 32.5392 59.7481C22.5887 59.7481 16.7119 62.1371 16.4664 62.2387C16.3471 62.2869 16.2385 62.3583 16.1469 62.4486C16.0553 62.539 15.9825 62.6467 15.9327 62.7653C15.883 62.884 15.8572 63.0114 15.8569 63.1401C15.8567 63.2687 15.8819 63.3962 15.9312 63.5151C15.9805 63.634 16.0528 63.7419 16.144 63.8326C16.2353 63.9234 16.3436 63.9952 16.4627 64.0439C16.5818 64.0925 16.7094 64.1171 16.8381 64.1162C16.9668 64.1152 17.094 64.0888 17.2124 64.0384C17.2689 64.0149 22.9724 61.6958 32.539 61.6958C35.3341 61.6958 37.9036 62.0215 40.1706 62.3097C42.8956 62.6553 45.2488 62.9537 47.3663 62.6494C49.8177 62.2971 51.6277 61.1752 53.0622 59.1185C54.0361 57.7245 54.3758 56.2021 54.0734 54.5939V54.5939Z" fill="#5CA293"/>
<path d="M19.4909 52.6346V44.4475C19.488 44.1911 19.3841 43.9461 19.2017 43.7658C19.0194 43.5855 18.7733 43.4844 18.5168 43.4844C18.2604 43.4844 18.0143 43.5855 17.8319 43.7658C17.6495 43.9461 17.5456 44.1911 17.5427 44.4475V52.6351C17.5425 52.866 17.4506 53.0874 17.2873 53.2507C17.124 53.414 16.9026 53.5059 16.6717 53.5061H12.5281C12.4664 53.5062 12.4063 53.4862 12.3568 53.4493C12.3073 53.4123 12.2712 53.3604 12.2537 53.3012C12.2362 53.242 12.2383 53.1787 12.2597 53.1208C12.2812 53.0629 12.3208 53.0135 12.3726 52.98L14.9079 51.3376C15.0443 51.2492 15.1564 51.1281 15.234 50.9854C15.3116 50.8426 15.3523 50.6827 15.3523 50.5202V35.709C15.3523 30.3015 11.7852 28.6424 8.9189 27.3092C8.38811 27.0621 7.88676 26.829 7.41698 26.5797C6.6837 26.2022 5.98349 25.7637 5.32375 25.2688C5.43496 25.1674 5.52116 25.0416 5.57557 24.9012C5.62999 24.7609 5.65114 24.6098 5.63738 24.4599C5.62362 24.31 5.57531 24.1654 5.49625 24.0373C5.41718 23.9092 5.30952 23.8012 5.18169 23.7217C5.16716 23.7127 3.71096 22.7847 2.97171 21.5087C2.49479 20.6853 2.21367 19.4765 2.0686 18.6762C4.19352 18.13 9.72944 16.7301 11.9017 16.3983C15.1282 15.9047 17.8773 15.9849 19.4449 16.6191C21.0706 17.2765 21.666 17.7492 21.7461 17.8163C21.8453 17.9224 21.968 18.0038 22.1044 18.0538C22.2407 18.1039 22.3869 18.1212 22.5312 18.1045C22.6804 18.087 22.8235 18.0349 22.949 17.9525C23.0746 17.87 23.1792 17.7594 23.2545 17.6294C23.2781 17.5912 25.6523 13.8129 28.4513 13.8129C29.4505 13.8129 30.2236 14.1366 30.7491 14.7751C30.9133 14.9746 31.1499 15.1007 31.407 15.1257C31.6642 15.1507 31.9207 15.0726 32.1202 14.9084C32.3196 14.7443 32.4457 14.5077 32.4707 14.2505C32.4957 13.9934 32.4176 13.7369 32.2534 13.5374C31.6256 12.7744 30.4562 11.8647 28.4513 11.8647C25.5449 11.8647 23.2202 14.4055 22.1818 15.7698C21.5363 15.4039 20.8658 15.0841 20.1753 14.8126C17.5975 13.7701 13.7008 14.152 11.6072 14.4721C8.80628 14.9004 1.05587 16.9245 0.727401 17.0111C0.501559 17.0701 0.304449 17.2083 0.17198 17.4006C0.0395099 17.5928 -0.0195038 17.8262 0.00568959 18.0582C0.0175907 18.1696 0.312238 20.8038 1.28613 22.4852C1.66749 23.1218 2.13648 23.7015 2.67932 24.2075C2.67355 24.2165 2.66792 24.2254 2.66253 24.2344C2.58942 24.3563 2.54387 24.4927 2.52907 24.6341C2.51426 24.7755 2.53057 24.9183 2.57684 25.0527C2.69197 25.3867 3.31496 26.6078 6.5036 28.3002C7.01873 28.5737 7.56706 28.8288 8.09735 29.0754C10.8265 30.3449 13.4043 31.5434 13.4043 35.709V49.9904L11.3134 51.3449C10.909 51.6071 10.6002 51.993 10.4332 52.4451C10.2661 52.8971 10.2496 53.3911 10.3863 53.8533C10.523 54.3154 10.8055 54.721 11.1915 55.0095C11.5776 55.298 12.0466 55.4539 12.5286 55.4539H16.6722C17.4196 55.4529 18.136 55.1556 18.6644 54.627C19.1928 54.0985 19.4901 53.382 19.4909 52.6346V52.6346Z" fill="#5CA293"/>
<path d="M29.6835 16.0227C26.0094 16.2839 22.3086 19.9247 22.1528 20.0794C21.9695 20.2615 21.8661 20.5089 21.8652 20.7672C21.8644 21.0256 21.9662 21.2737 22.1483 21.4569C22.3304 21.6402 22.5778 21.7436 22.8361 21.7445C23.0944 21.7453 23.3425 21.6435 23.5258 21.4614C24.1797 20.8384 24.8806 20.2668 25.6224 19.7516C27.1802 18.6679 28.6324 18.0504 29.8215 17.9659C31.4501 17.8496 32.9791 18.2987 33.914 19.1651C34.3939 19.6101 34.6595 20.1244 34.6618 20.6133C34.6743 23.193 32.1791 24.2929 30.7031 24.5362C29.1297 24.7951 26.353 24.2493 25.4158 24.0171C25.2917 23.9862 25.1627 23.9802 25.0362 23.9992C24.9097 24.0182 24.7882 24.062 24.6786 24.1279C24.569 24.1939 24.4735 24.2808 24.3975 24.3837C24.3216 24.4866 24.2666 24.6035 24.2357 24.7276C24.2049 24.8518 24.1988 24.9808 24.2179 25.1073C24.2369 25.2337 24.2806 25.3553 24.3466 25.4648C24.4126 25.5744 24.4995 25.6699 24.6024 25.7459C24.7053 25.8219 24.8222 25.8769 24.9463 25.9077C25.0728 25.9392 27.5678 26.5515 29.7243 26.5514C29.8393 26.5514 29.9533 26.5496 30.0662 26.546C30.9832 26.9564 31.9494 27.2463 32.9409 27.4086C37.502 28.1272 41.6207 29.5362 44.5381 31.3761C44.6463 31.4457 44.7672 31.4933 44.8939 31.5159C45.0205 31.5385 45.1504 31.5359 45.276 31.508C45.4016 31.4802 45.5205 31.4277 45.6257 31.3537C45.7309 31.2796 45.8205 31.1855 45.8891 31.0767C45.9577 30.9678 46.0041 30.8465 46.0256 30.7196C46.0471 30.5928 46.0432 30.4629 46.0142 30.3376C45.9852 30.2122 45.9317 30.0939 45.8567 29.9893C45.7817 29.8848 45.6867 29.7961 45.5773 29.7285C42.5214 27.8013 38.2849 26.321 33.6142 25.5443C33.9944 25.3288 34.3529 25.0771 34.6847 24.7926C35.2976 24.2821 35.7886 23.6409 36.1218 22.9161C36.4549 22.1913 36.6218 21.4012 36.6102 20.6036C36.6052 19.5698 36.1181 18.5514 35.2387 17.7361C33.8958 16.4913 31.871 15.868 29.6835 16.0227V16.0227Z" fill="#5CA293"/>
<path d="M14.7856 20.5403C14.6402 20.8047 14.5764 21.1062 14.6023 21.4069C14.6283 21.7075 14.7428 21.9937 14.9314 22.2293C15.12 22.4649 15.3742 22.6392 15.6619 22.7303C15.9496 22.8214 16.2578 22.8251 16.5476 22.741C16.8374 22.6569 17.0958 22.4888 17.29 22.2578C17.4843 22.0269 17.6057 21.7435 17.6389 21.4436C17.6721 21.1437 17.6156 20.8406 17.4766 20.5728C17.3375 20.305 17.1222 20.0844 16.8578 19.9389C16.5033 19.7439 16.0858 19.6977 15.6972 19.8105C15.3086 19.9232 14.9807 20.1857 14.7856 20.5403V20.5403Z" fill="#5CA293"/>
<path d="M60.9757 10.802H58.5722V4.9817H60.4542C61.1148 4.9817 61.7483 4.71927 62.2155 4.25215C62.6826 3.78502 62.945 3.15146 62.945 2.49085C62.945 1.83023 62.6826 1.19668 62.2155 0.729553C61.7483 0.262428 61.1148 0 60.4542 0L49.3159 0C48.6553 0 48.0218 0.262428 47.5546 0.729553C47.0875 1.19668 46.8251 1.83023 46.8251 2.49085C46.8251 3.15146 47.0875 3.78502 47.5546 4.25215C48.0218 4.71927 48.6553 4.9817 49.3159 4.9817H51.16V10.802H48.7937C48.2716 10.8025 47.771 11.01 47.4017 11.3792C47.0325 11.7483 46.8248 12.2488 46.8242 12.7709V15.8248C46.8242 16.0906 46.9298 16.3455 47.1178 16.5334C47.3057 16.7214 47.5606 16.827 47.8264 16.827C48.0922 16.827 48.3471 16.7214 48.5351 16.5334C48.723 16.3455 48.8286 16.0906 48.8286 15.8248V12.8064H60.9402V15.1468L59.3367 15.1479C59.0709 15.148 58.816 15.2537 58.6282 15.4417C58.4403 15.6297 58.3348 15.8847 58.3349 16.1505C58.335 16.4163 58.4407 16.6712 58.6287 16.859C58.8167 17.0469 59.0717 17.1524 59.3375 17.1523H59.3382L60.9397 17.1512V18.662H57.5395C57.2737 18.662 57.0188 18.7676 56.8309 18.9556C56.6429 19.1435 56.5373 19.3984 56.5373 19.6642C56.5373 19.93 56.6429 20.1849 56.8309 20.3729C57.0188 20.5608 57.2737 20.6664 57.5395 20.6664H60.9402V22.1787L59.3367 22.1799C59.2051 22.1799 59.0748 22.2059 58.9532 22.2563C58.8316 22.3067 58.7212 22.3806 58.6282 22.4737C58.4403 22.6617 58.3348 22.9166 58.3349 23.1825C58.335 23.4483 58.4407 23.7031 58.6287 23.891C58.8167 24.0789 59.0717 24.1844 59.3375 24.1843H59.3382L60.9397 24.1831V25.694H57.5395C57.2737 25.694 57.0188 25.7996 56.8309 25.9875C56.6429 26.1755 56.5373 26.4304 56.5373 26.6962C56.5373 26.962 56.6429 27.2169 56.8309 27.4048C57.0188 27.5928 57.2737 27.6984 57.5395 27.6984H60.9402V29.2107L59.3367 29.2118C59.0709 29.2119 58.816 29.3176 58.6282 29.5056C58.4403 29.6936 58.3348 29.9486 58.3349 30.2144C58.335 30.4802 58.4407 30.7351 58.6287 30.923C58.8167 31.1108 59.0717 31.2163 59.3375 31.2162H59.3382L60.9397 31.2151V32.7258H57.5395C57.2737 32.7258 57.0188 32.8314 56.8309 33.0193C56.6429 33.2073 56.5373 33.4622 56.5373 33.728C56.5373 33.9938 56.6429 34.2487 56.8309 34.4367C57.0188 34.6246 57.2737 34.7302 57.5395 34.7302H60.9402V36.7236H48.8286V18.6688C48.8286 18.403 48.723 18.1481 48.5351 17.9601C48.3471 17.7722 48.0922 17.6666 47.8264 17.6666C47.5606 17.6666 47.3057 17.7722 47.1178 17.9601C46.9298 18.1481 46.8242 18.403 46.8242 18.6688V36.7585C46.8248 37.2806 47.0325 37.781 47.4016 38.1501C47.7707 38.5193 48.2712 38.7269 48.7932 38.7275H51.9557V40.6587C51.9557 40.9245 52.0613 41.1794 52.2493 41.3674C52.4372 41.5553 52.6921 41.6609 52.9579 41.6609H53.882V48.845C53.882 49.1108 53.9876 49.3657 54.1755 49.5536C54.3635 49.7416 54.6184 49.8472 54.8842 49.8472C55.15 49.8472 55.4049 49.7416 55.5928 49.5536C55.7808 49.3657 55.8864 49.1108 55.8864 48.845V41.6614H56.8424C57.1082 41.6614 57.3631 41.5558 57.551 41.3679C57.739 41.1799 57.8446 40.925 57.8446 40.6592V38.728H60.9752C61.4972 38.7274 61.9977 38.5198 62.3668 38.1506C62.7359 37.7815 62.9435 37.2811 62.9441 36.759V12.7709C62.9435 12.249 62.736 11.7486 62.367 11.3795C61.998 11.0104 61.4976 10.8027 60.9757 10.802V10.802ZM52.1622 2.97729H49.3156C49.1866 2.97729 49.0628 2.92604 48.9716 2.83482C48.8804 2.74359 48.8291 2.61986 48.8291 2.49085C48.8291 2.36184 48.8804 2.23811 48.9716 2.14688C49.0628 2.05566 49.1866 2.00441 49.3156 2.00441H60.4542C60.5832 2.00441 60.7069 2.05566 60.7981 2.14688C60.8894 2.23811 60.9406 2.36184 60.9406 2.49085C60.9406 2.61986 60.8894 2.74359 60.7981 2.83482C60.7069 2.92604 60.5832 2.97729 60.4542 2.97729H55.2655C54.9997 2.97729 54.7448 3.08288 54.5569 3.27083C54.3689 3.45878 54.2633 3.7137 54.2633 3.9795C54.2633 4.2453 54.3689 4.50021 54.5569 4.68816C54.7448 4.87611 54.9997 4.9817 55.2655 4.9817H56.5678V10.802H53.1644V3.9795C53.1644 3.7137 53.0588 3.45878 52.8709 3.27083C52.6829 3.08288 52.428 2.97729 52.1622 2.97729V2.97729ZM55.8407 39.657H53.9607V38.728H55.8407V39.657Z" fill="#5CA293"/>
</svg>
