<svg width="59" height="60" viewBox="0 0 59 60" fill="none" xmlns="http://www.w3.org/2000/svg">
<path d="M17.6719 2.37012H19.6354V10.2244H17.6719V2.37012Z" fill="#5CA293"/>
<path d="M39.271 0.406738H41.2346V8.26098H39.271V0.406738Z" fill="#5CA293"/>
<path d="M39.271 10.2246H41.2346V13.17H39.271V10.2246Z" fill="#5CA293"/>
<path d="M26.7017 34.783L29.4533 39.736L32.2048 34.783C34.0294 31.4893 34.561 27.6339 33.6961 23.9694H41.4505L40.381 18.6217C40.2391 17.911 39.8399 17.2777 39.2599 16.8431L36.3257 14.6424V11.3457C36.3296 9.92693 36.052 8.52146 35.5091 7.21065C34.9662 5.89985 34.1686 4.70975 33.1626 3.70925L29.4533 0L25.7439 3.70924C24.7379 4.70975 23.9404 5.89984 23.3974 7.21065C22.8545 8.52145 22.5769 9.92693 22.5808 11.3457V14.6424L19.6465 16.8432C19.0665 17.2778 18.6674 17.9111 18.5256 18.6218L17.4561 23.9694H25.2105C24.3455 27.6339 24.8772 31.4893 26.7017 34.783V34.783ZM22.5808 22.0058H19.8513L20.451 19.0069C20.4983 18.77 20.6313 18.5589 20.8247 18.414L22.5808 17.0969V22.0058ZM30.4884 33.8295L29.4533 35.6926L28.4182 33.8295C26.7524 30.823 26.3281 27.2845 27.2357 23.9694H31.6708C32.5785 27.2845 32.1541 30.823 30.4884 33.8295ZM36.3257 17.0969L38.0817 18.4139C38.2751 18.5587 38.4082 18.7699 38.4555 19.0068L39.0552 22.0058H36.3257V17.0969ZM24.5444 22.0058V11.3457C24.5412 10.1849 24.7683 9.03497 25.2125 7.96251C25.6568 6.89004 26.3093 5.91635 27.1324 5.09778L29.4533 2.77684L31.7741 5.09778C32.5972 5.91635 33.2497 6.89004 33.694 7.96251C34.1382 9.03497 34.3653 10.1849 34.3622 11.3457V22.0058H24.5444Z" fill="#5CA293"/>
<path d="M17.6719 12.188H19.6354V14.1515H17.6719V12.188Z" fill="#5CA293"/>
<path d="M11.7812 9.24268H13.7448V19.0605H11.7812V9.24268Z" fill="#5CA293"/>
<path d="M11.7812 21.0239H13.7448V22.9875H11.7812V21.0239Z" fill="#5CA293"/>
<path d="M45.1616 4.33398H47.1252V17.0971H45.1616V4.33398Z" fill="#5CA293"/>
<path d="M45.1616 19.0605H47.1252V21.0241H45.1616V19.0605Z" fill="#5CA293"/>
<path d="M29.4536 14.1514C28.8711 14.1514 28.3017 14.3241 27.8173 14.6477C27.3329 14.9714 26.9554 15.4314 26.7325 15.9696C26.5096 16.5078 26.4512 17.1 26.5649 17.6713C26.6785 18.2427 26.9591 18.7675 27.371 19.1794C27.7829 19.5913 28.3077 19.8718 28.879 19.9855C29.4504 20.0991 30.0426 20.0408 30.5808 19.8179C31.119 19.5949 31.579 19.2174 31.9026 18.7331C32.2262 18.2487 32.399 17.6792 32.399 17.0967C32.3981 16.3158 32.0875 15.5672 31.5353 15.015C30.9832 14.4629 30.2345 14.1523 29.4536 14.1514V14.1514ZM29.4536 18.0785C29.2595 18.0785 29.0696 18.0209 28.9082 17.913C28.7467 17.8052 28.6209 17.6518 28.5466 17.4724C28.4723 17.293 28.4528 17.0956 28.4907 16.9052C28.5286 16.7147 28.6221 16.5398 28.7594 16.4025C28.8967 16.2652 29.0717 16.1717 29.2621 16.1338C29.4526 16.0959 29.65 16.1154 29.8294 16.1897C30.0088 16.264 30.1621 16.3898 30.27 16.5513C30.3778 16.7127 30.4354 16.9025 30.4354 17.0967C30.4351 17.357 30.3316 17.6065 30.1475 17.7906C29.9635 17.9747 29.7139 18.0782 29.4536 18.0785Z" fill="#5CA293"/>
<path d="M1.96358 51.4594C1.96358 49.8971 2.5842 48.3988 3.68892 47.2941C4.79364 46.1893 6.29196 45.5687 7.85426 45.5687C9.41657 45.5687 10.9149 46.1893 12.0196 47.2941C13.1243 48.3988 13.7449 49.8971 13.7449 51.4594H15.7085C15.7062 49.377 14.8779 47.3806 13.4055 45.9082C11.933 44.4357 9.93662 43.6075 7.85426 43.6052C7.66551 43.6052 7.47896 43.6142 7.2935 43.6274C6.82031 42.5582 6.74432 41.3553 7.0792 40.2351C7.41407 39.1149 8.13783 38.1511 9.12017 37.517C10.1025 36.883 11.2789 36.6205 12.4376 36.7767C13.5963 36.9329 14.6612 37.4977 15.4405 38.3692L16.9036 37.0597C16.2965 36.3828 15.5611 35.833 14.74 35.4422C14.8187 34.4578 15.265 33.539 15.9901 32.8685C16.7153 32.1981 17.6662 31.8251 18.6538 31.8238C19.4347 31.8229 20.1834 31.5123 20.7355 30.9601C21.2877 30.408 21.5983 29.6593 21.5992 28.8784V25.9331H19.6356V28.8784C19.6353 29.1387 19.5318 29.3883 19.3477 29.5723C19.1637 29.7564 18.9141 29.8599 18.6538 29.8602C17.2479 29.862 15.8889 30.3658 14.8215 31.2808C13.7541 32.1958 13.0485 33.4619 12.8319 34.851C11.6492 34.6681 10.4393 34.7971 9.32181 35.2254C8.20434 35.6536 7.21807 36.3663 6.46063 37.2928C5.70318 38.2193 5.2008 39.3276 5.00323 40.5079C4.80565 41.6882 4.91971 42.8996 5.33413 44.0223C3.57091 44.6194 2.07715 45.8235 1.1193 47.4198C0.16146 49.0161 -0.198177 50.9007 0.104544 52.7375C0.407266 54.5743 1.35266 56.2439 2.77209 57.4484C4.19152 58.6528 5.99267 59.3139 7.85426 59.3136H21.5992V57.3501H7.85426C6.29249 57.3483 4.79519 56.7272 3.69085 55.6228C2.58651 54.5185 1.96533 53.0212 1.96358 51.4594V51.4594Z" fill="#5CA293"/>
<path d="M11.7812 39.6777V41.6413C12.3018 41.6419 12.8009 41.849 13.169 42.2171C13.5372 42.5852 13.7442 43.0843 13.7448 43.6049H15.7084C15.7072 42.5637 15.2931 41.5655 14.5568 40.8293C13.8206 40.0931 12.8224 39.6789 11.7812 39.6777V39.6777Z" fill="#5CA293"/>
<path d="M7.85438 49.4958V47.5322C7.05906 47.5322 6.28248 47.7737 5.62741 48.2247C4.97233 48.6757 4.46962 49.315 4.18581 50.0579C3.902 50.8009 3.85045 51.6125 4.03799 52.3854C4.22554 53.1583 4.64333 53.856 5.23609 54.3862L6.54554 52.9232C6.24908 52.6581 6.0401 52.3092 5.94626 51.9227C5.85243 51.5363 5.87815 51.1304 6.02003 50.7589C6.1619 50.3873 6.41325 50.0677 6.74081 49.8421C7.06836 49.6166 7.45668 49.4958 7.85438 49.4958V49.4958Z" fill="#5CA293"/>
<path d="M53.5727 44.0223C53.9885 42.8996 54.1036 41.6877 53.9066 40.5068C53.7096 39.3258 53.2073 38.2169 52.4495 37.29C51.6918 36.3631 50.7048 35.6504 49.5867 35.2226C48.4685 34.7948 47.2579 34.6667 46.0749 34.851C45.8583 33.4619 45.1527 32.1958 44.0853 31.2808C43.0179 30.3658 41.6589 29.862 40.253 29.8602C39.9927 29.8599 39.7431 29.7564 39.5591 29.5723C39.375 29.3883 39.2715 29.1387 39.2712 28.8784V25.9331H37.3076V28.8784C37.3085 29.6593 37.6191 30.408 38.1713 30.9601C38.7234 31.5123 39.4721 31.8229 40.253 31.8238C41.2406 31.8251 42.1915 32.1981 42.9167 32.8685C43.6418 33.539 44.0881 34.4578 44.1668 35.4422C43.3457 35.833 42.6103 36.3828 42.0032 37.0597L43.4663 38.3692C44.2454 37.4969 45.3104 36.9316 46.4694 36.775C47.6284 36.6184 48.8052 36.8809 49.7879 37.5151C50.7706 38.1493 51.4944 39.1136 51.8291 40.2342C52.1638 41.3549 52.0872 42.5582 51.6133 43.6274C51.4278 43.6142 51.2413 43.6052 51.0525 43.6052C48.9963 43.6004 47.0211 44.4068 45.5557 45.8493L46.9301 47.2517C47.6202 46.5756 48.4661 46.0795 49.3931 45.8073C50.3202 45.5352 51.2999 45.4952 52.2461 45.691C53.1922 45.8867 54.0757 46.3122 54.8186 46.9299C55.5615 47.5476 56.1411 48.3385 56.5063 49.2331C56.8715 50.1276 57.011 51.0982 56.9126 52.0593C56.8142 53.0205 56.4809 53.9427 55.9421 54.7446C55.4032 55.5466 54.6754 56.2037 53.8227 56.6581C52.9701 57.1124 52.0187 57.3501 51.0525 57.3501H49.089V59.3136H51.0525C52.9141 59.3139 54.7153 58.6528 56.1347 57.4484C57.5541 56.2439 58.4995 54.5743 58.8023 52.7375C59.105 50.9007 58.7453 49.0161 57.7875 47.4198C56.8297 45.8235 55.3359 44.6194 53.5727 44.0223V44.0223Z" fill="#5CA293"/>
<path d="M50.0712 42.6234C50.07 41.5822 49.6558 40.5841 48.9196 39.8478C48.1834 39.1116 47.1852 38.6975 46.144 38.6963V40.6599C46.6646 40.6604 47.1637 40.8675 47.5318 41.2356C47.8999 41.6037 48.107 42.1028 48.1076 42.6234H50.0712Z" fill="#5CA293"/>
<path d="M53.0161 53.4227H54.9796C54.9793 52.7946 54.8283 52.1757 54.5395 51.6179C54.2506 51.0601 53.8322 50.5797 53.3194 50.217C52.8065 49.8542 52.2142 49.6197 51.5921 49.5331C50.9699 49.4465 50.3361 49.5103 49.7437 49.7192L50.3978 51.5706C50.694 51.4664 51.0109 51.4346 51.322 51.478C51.633 51.5214 51.9291 51.6387 52.1855 51.8201C52.4419 52.0015 52.6511 52.2416 52.7956 52.5204C52.9401 52.7993 53.0157 53.1087 53.0161 53.4227V53.4227Z" fill="#5CA293"/>
<path d="M51.0527 10.2246H53.0163V26.9149H51.0527V10.2246Z" fill="#5CA293"/>
<path d="M45.1616 24.9512H47.1252V27.8965H45.1616V24.9512Z" fill="#5CA293"/>
<path d="M51.0527 28.8784H53.0163V30.842H51.0527V28.8784Z" fill="#5CA293"/>
<path d="M11.7812 27.8965H13.7448V29.86H11.7812V27.8965Z" fill="#5CA293"/>
<path d="M5.89062 1.38867H7.85419V17.0972H5.89062V1.38867Z" fill="#5CA293"/>
<path d="M5.89062 20.0425H7.85419V23.9696H5.89062V20.0425Z" fill="#5CA293"/>
<path d="M38.2894 35.7505H40.253C40.2521 34.9696 39.9415 34.221 39.3893 33.6688C38.8371 33.1167 38.0885 32.8061 37.3076 32.8052V34.7687C37.5679 34.769 37.8175 34.8726 38.0015 35.0566C38.1856 35.2407 38.2891 35.4902 38.2894 35.7505V35.7505Z" fill="#5CA293"/>
<path d="M18.6538 35.7505H20.6174C20.6177 35.4902 20.7212 35.2407 20.9053 35.0566C21.0893 34.8726 21.3389 34.769 21.5992 34.7687V32.8052C20.8183 32.8061 20.0696 33.1167 19.5175 33.6688C18.9653 34.221 18.6547 34.9696 18.6538 35.7505V35.7505Z" fill="#5CA293"/>
<path d="M47.1853 49.244L44.0446 50.2909L41.8327 46.9731L40.1 48.7058C40.2021 47.9919 40.2532 47.2717 40.253 46.5505C40.253 43.437 39.296 40.4392 37.5582 38.1093L36.47 36.6504L34.7236 41.4563L31.1158 40.5544L28.6242 43.0459L26.9089 40.4731L24.1589 41.3897L22.4368 36.6504L21.3486 38.1093C19.6108 40.4392 18.6538 43.437 18.6538 46.5505C18.6538 53.5881 23.4985 59.3137 29.4534 59.3137C31.4782 59.3042 33.4477 58.6518 35.0777 57.4505C36.7082 58.648 38.6753 59.3 40.6983 59.3137C43.8006 59.3137 46.7546 57.7384 48.8033 54.9918L49.1199 54.5672L47.1853 49.244ZM32.5935 54.9918C32.8878 55.3864 33.2062 55.7625 33.5469 56.1179C32.3298 56.9148 30.9082 57.3427 29.4534 57.3501C26.1635 57.3501 23.2881 55.1409 21.7672 51.8728L23.2904 50.8573L25.3737 53.9822L29.1659 50.1901L27.7773 48.8016L25.6788 50.9002L23.835 48.1344L21.0731 49.9757C20.7689 48.8594 20.6156 47.7075 20.6174 46.5505C20.6082 44.6056 21.0493 42.685 21.906 40.939L22.9665 43.8571L26.1072 42.8101L28.3191 46.128L31.7181 42.7289L35.9645 43.7905L37.0008 40.939C37.8575 42.685 38.2986 44.6056 38.2894 46.5505C38.292 47.7876 38.1159 49.0186 37.7666 50.2054L34.1872 49.3106L32.2769 54.5672L32.5935 54.9918ZM40.6983 57.3501C38.377 57.3501 36.1397 56.2185 34.4896 54.2274L35.4281 51.6447L39.0359 52.5467L41.5275 50.0551L43.2428 52.6279L45.9928 51.7114L46.9072 54.2274C45.257 56.2185 43.0198 57.3501 40.6983 57.3501Z" fill="#5CA293"/>
</svg>
