<svg width="56" height="65" viewBox="0 0 56 65" fill="none" xmlns="http://www.w3.org/2000/svg">
<path d="M5.78192 46.7988C6.30125 46.7988 6.72205 46.3778 6.72205 45.8586V42.5369H19.6539V45.8586C19.6539 46.3778 20.0747 46.7988 20.594 46.7988C21.1133 46.7988 21.5341 46.3778 21.5341 45.8586V42.5369H34.4661V45.8586C34.4661 46.3778 34.8869 46.7988 35.4062 46.7988C35.9256 46.7988 36.3464 46.3778 36.3464 45.8586V42.5369H49.2783V45.8586C49.2783 46.3778 49.6991 46.7988 50.2185 46.7988C50.7378 46.7988 51.1586 46.3778 51.1586 45.8586V41.5967C51.1586 41.0775 50.7378 40.6566 50.2185 40.6566H28.9062V37.2613H41.408C42.4889 37.2613 43.3682 36.3819 43.3682 35.301V34.283C43.3682 33.7638 42.9474 33.3428 42.4281 33.3428C41.9088 33.3428 41.488 33.7638 41.488 34.283V35.301C41.488 35.3452 41.4521 35.381 41.408 35.381H38.6335V30.6899C38.6335 30.1707 38.2127 29.7498 37.6934 29.7498C37.1741 29.7498 36.7533 30.1707 36.7533 30.6899V35.381H28.9061V35.0376C29.6315 33.7397 30.6614 32.8824 31.9717 32.4899C33.299 32.0925 34.1803 31.3993 34.5912 30.4297C34.9755 29.5227 34.9007 28.4045 34.3846 27.2498C35.4105 26.6217 35.9856 25.7409 36.0687 24.726L39.0175 25.868C40.3096 26.4047 41.4878 27.887 41.4878 29.8956C41.4878 30.4148 41.9086 30.8357 42.428 30.8357C42.9473 30.8357 43.3681 30.4148 43.3681 29.8956C43.3681 27.1401 41.7545 24.9612 39.7247 24.1257C39.7185 24.1232 39.7125 24.1207 39.7064 24.1185L38.0969 23.4951C38.7439 22.7666 39.1342 21.8085 39.1922 20.7188C39.2762 19.1422 38.6513 17.7316 37.6371 17.2088C37.2434 17.0056 36.9786 16.8159 36.8039 16.6116C36.5172 16.2764 36.2987 15.7493 36.2032 15.1922C36.8207 14.6137 37.1726 13.8195 37.1726 12.9906C37.1726 12.3713 36.975 11.7721 36.6149 11.2643V8.6148C36.615 3.85451 32.7644 0 28.0007 0C27.979 0 27.9573 0 27.9358 0.00012535C23.2211 0.0345966 19.3853 3.94225 19.3853 8.71094V11.2643C19.025 11.7721 18.8275 12.3715 18.8275 12.9909C18.8275 13.7901 19.155 14.5569 19.7322 15.1294C19.526 16.4744 18.9052 16.89 18.287 17.2089C17.2721 17.732 16.6473 19.1433 16.732 20.7207C16.7904 21.8106 17.1811 22.7688 17.8288 23.4971L16.2254 24.1187C16.2194 24.1211 16.2134 24.1235 16.2074 24.1258C14.4525 24.848 12.5639 26.914 12.5639 29.7434V35.301C12.5639 36.3819 13.4432 37.2613 14.5241 37.2613H27.026V40.6566H5.78192C5.2626 40.6566 4.8418 41.0775 4.8418 41.5967V45.8586C4.8418 46.3778 5.2626 46.7988 5.78192 46.7988V46.7988ZM27.026 32.0763C26.2933 31.4403 25.4442 30.9717 24.4997 30.6889C23.7344 30.4597 23.2539 30.1257 23.0718 29.6961C22.7932 29.0386 23.1935 28.1368 23.3785 27.7797C23.758 27.0474 23.4727 26.1425 22.7349 25.762C22.1916 25.4819 21.5359 24.9997 21.7867 23.9793L22.7482 23.6065C23.3665 24.7072 26.3978 30.1032 27.026 31.2212V32.0763ZM23.374 14.9702V11.8328C24.0948 11.8328 25.3165 11.7872 25.9692 11.6004C26.7479 11.3774 27.4646 10.9242 28.0011 10.2852C29.2247 11.7394 30.7907 11.8328 32.626 11.8328V14.9161C32.626 17.3823 30.6109 19.5212 28.0602 19.5167C25.288 19.5076 23.374 17.4052 23.374 14.9702V14.9702ZM25.773 21.4024V21.012C27.1001 21.4776 28.6906 21.555 30.155 21.0461L30.1558 21.4081C30.1575 22.0336 30.5354 22.5835 31.1181 22.8088L31.4117 22.9225L31.0147 23.6292C29.1533 24.6313 26.8191 24.6528 24.9178 23.6293L24.5194 22.92C25.26 22.6327 25.773 22.2357 25.773 21.4024V21.4024ZM27.9661 29.0556L26.3092 26.1064C27.3911 26.3219 28.5408 26.3219 29.623 26.1064C29.2539 26.7631 28.3378 28.3941 27.9661 29.0556V29.0556ZM33.1971 25.762C32.4613 26.1415 32.173 27.0455 32.5534 27.7797C32.7385 28.1369 33.1388 29.0387 32.8601 29.6963C32.6781 30.1258 32.1977 30.4598 31.4323 30.689C30.4879 30.9718 29.6386 31.4403 28.9061 32.0763V31.2213C30.2595 28.8121 33.0523 23.8408 33.1828 23.6085C33.5823 23.7632 33.3597 23.677 34.1254 23.9737C34.3593 24.7661 34.0684 25.3128 33.1971 25.762V25.762ZM36.7756 18.8801C36.9963 18.9939 37.3652 19.6723 37.3148 20.6189C37.29 21.0841 37.1185 22.1587 36.1004 22.7221L32.0355 21.1478L32.0327 20.0092C33.2285 19.0581 34.1207 17.6742 34.4068 16.0417C34.426 16.039 34.4452 16.0363 34.4642 16.0333C34.6516 16.7248 34.9669 17.3567 35.3752 17.834C35.7134 18.2293 36.1583 18.5617 36.7756 18.8801V18.8801ZM35.2924 12.9909C35.2924 13.449 34.9994 13.8792 34.5064 14.0824V11.9388C34.9768 12.141 35.2924 12.4531 35.2924 12.9909ZM21.2656 8.71094C21.2656 4.9715 24.264 1.90732 27.9496 1.88037C27.9666 1.88025 27.9834 1.88025 28.0003 1.88025C31.7207 1.88025 34.7349 4.8899 34.7349 8.6148V10.0355C34.3292 9.93185 33.9043 9.90528 33.5084 9.95266C31.6306 9.95266 32.1896 9.97271 30.981 9.86955C30.0499 9.79058 29.2304 9.14754 29.005 8.21832C28.8921 7.75264 28.4789 7.42736 28.0003 7.42736C27.5279 7.42736 27.1083 7.74625 26.9928 8.22935C26.7582 9.16972 25.9263 9.80299 24.9968 9.87432H24.9967C24.9967 9.87432 24.0563 9.95053 23.8893 9.95253C21.9503 9.95253 21.8847 9.88121 21.2656 10.0463V8.71094ZM21.4938 11.9569V14.0829C21.4891 14.0811 21.4843 14.0797 21.4796 14.0777C21.0282 13.8849 20.7078 13.4755 20.7078 12.9909C20.7078 12.4533 21.0248 12.1651 21.4938 11.9569ZM19.1486 18.8801C20.1471 18.3651 21.025 17.6569 21.4642 16.0221C21.5034 16.029 21.5432 16.0353 21.5828 16.0408C21.852 17.6667 22.7265 19.0393 23.8927 19.9721V21.146L19.8256 22.7228C18.8065 22.16 18.6344 21.0852 18.6096 20.6199C18.5587 19.6728 18.9277 18.994 19.1486 18.8801V18.8801ZM19.2469 35.381V30.6899C19.2469 30.1707 18.8261 29.7498 18.3068 29.7498C17.7874 29.7498 17.3666 30.1707 17.3666 30.6899V35.381H14.524C14.4798 35.381 14.444 35.3452 14.444 35.301V29.7434C14.444 27.8029 15.7678 26.3448 16.9147 25.868L19.8605 24.7259C19.9544 25.7444 20.5312 26.6257 21.5473 27.2496C21.0311 28.4044 20.956 29.5227 21.3406 30.4297C21.7515 31.3993 22.633 32.0925 23.9602 32.4899C25.2706 32.8824 26.3004 33.7397 27.0258 35.0376V35.381H19.2469Z" fill="#5CA293"/>
<path d="M9.07277 54.2356C9.5387 53.578 9.81371 52.7761 9.81371 51.9105C9.81371 49.6872 8.00492 47.8784 5.78173 47.8784C3.55841 47.8784 1.74962 49.6872 1.74962 51.9105C1.74962 52.7761 2.02464 53.578 2.49069 54.2356C1.04729 54.7015 0 56.0573 0 57.6538V62.2556C0 63.3159 0.862653 64.1786 1.92298 64.1786H9.64036C10.7008 64.1786 11.5635 63.3159 11.5635 62.2556V57.6538C11.5636 56.0573 10.5163 54.7015 9.07277 54.2356V54.2356ZM5.78186 49.7587C6.96841 49.7587 7.9336 50.724 7.9336 51.9105C7.9336 53.0971 6.96841 54.0624 5.78186 54.0624C4.5953 54.0624 3.62999 53.0971 3.62999 51.9105C3.62999 50.724 4.5953 49.7587 5.78186 49.7587V49.7587ZM9.68335 62.2556C9.68335 62.2792 9.66417 62.2983 9.64048 62.2983H1.92298C1.89942 62.2983 1.88024 62.2792 1.88024 62.2556V57.6538C1.88024 56.7103 2.64775 55.9426 3.59125 55.9426H7.97196C8.91546 55.9426 9.6831 56.7103 9.6831 57.6538V62.2556H9.68335Z" fill="#5CA293"/>
<path d="M23.8853 54.2356C24.3513 53.578 24.6263 52.7761 24.6263 51.9105C24.6263 49.6872 22.8176 47.8784 20.5942 47.8784C18.371 47.8784 16.5622 49.6872 16.5622 51.9105C16.5622 52.7761 16.8373 53.578 17.3032 54.2356C15.8598 54.7015 14.8125 56.0573 14.8125 57.6538V62.2556C14.8125 63.3159 15.6752 64.1786 16.7356 64.1786H24.4529C25.5133 64.1786 26.376 63.3159 26.376 62.2556V57.6538C26.376 56.0573 25.3287 54.7015 23.8853 54.2356V54.2356ZM20.5942 49.7587C21.7808 49.7587 22.7461 50.724 22.7461 51.9105C22.7461 53.0971 21.7808 54.0624 20.5942 54.0624C19.4077 54.0624 18.4425 53.0971 18.4425 51.9105C18.4425 50.724 19.4077 49.7587 20.5942 49.7587V49.7587ZM24.4957 62.2556C24.4957 62.2792 24.4765 62.2983 24.4529 62.2983H16.7356C16.712 62.2983 16.6927 62.2792 16.6927 62.2556V57.6538C16.6927 56.7103 17.4604 55.9426 18.4039 55.9426H22.7845C23.728 55.9426 24.4956 56.7103 24.4956 57.6538V62.2556H24.4957Z" fill="#5CA293"/>
<path d="M53.5093 54.2356C53.9752 53.578 54.2502 52.7761 54.2502 51.9105C54.2502 49.6872 52.4414 47.8784 50.2183 47.8784C47.9949 47.8784 46.1861 49.6872 46.1861 51.9105C46.1861 52.7761 46.4612 53.578 46.9272 54.2356C45.4838 54.7015 44.4365 56.0573 44.4365 57.6538V62.2556C44.4365 63.3159 45.2992 64.1786 46.3595 64.1786H54.0769C55.1373 64.1786 56 63.3159 56 62.2556V57.6538C56.0001 56.0573 54.9528 54.7015 53.5093 54.2356V54.2356ZM50.2184 49.7587C51.4049 49.7587 52.3701 50.724 52.3701 51.9105C52.3701 53.0971 51.4049 54.0624 50.2184 54.0624C49.0318 54.0624 48.0665 53.0971 48.0665 51.9105C48.0665 50.724 49.0318 49.7587 50.2184 49.7587V49.7587ZM54.1199 62.2556C54.1199 62.2792 54.1007 62.2983 54.077 62.2983H46.3596C46.3361 62.2983 46.3169 62.2792 46.3169 62.2556V57.6538C46.3169 56.7103 47.0844 55.9426 48.0279 55.9426H52.4086C53.3521 55.9426 54.1197 56.7103 54.1197 57.6538V62.2556H54.1199Z" fill="#5CA293"/>
<path d="M38.6968 54.2356C39.1628 53.578 39.4379 52.7761 39.4379 51.9105C39.4379 49.6872 37.6291 47.8784 35.4058 47.8784C33.1824 47.8784 31.3736 49.6872 31.3736 51.9105C31.3736 52.7761 31.6487 53.578 32.1147 54.2356C30.6713 54.7015 29.624 56.0573 29.624 57.6538V62.2555C29.624 63.3158 30.4867 64.1786 31.5471 64.1786H33.2121C33.7315 64.1786 34.1523 63.7577 34.1523 63.2385C34.1523 62.7193 33.7315 62.2983 33.2121 62.2983H31.5471C31.5236 62.2983 31.5043 62.2792 31.5043 62.2555V57.6538C31.5043 56.7103 32.2719 55.9426 33.2154 55.9426H37.596C38.5395 55.9426 39.3071 56.7103 39.3071 57.6538V62.2555C39.3071 62.279 39.2879 62.2983 39.2643 62.2983H37.5992C37.0799 62.2983 36.6591 62.7193 36.6591 63.2385C36.6591 63.7577 37.0799 64.1786 37.5992 64.1786H39.2643C40.3247 64.1786 41.1874 63.3159 41.1874 62.2555V57.6538C41.1875 56.0573 40.1402 54.7015 38.6968 54.2356V54.2356ZM35.4058 54.0623C34.2192 54.0623 33.2539 53.097 33.2539 51.9104C33.2539 50.7238 34.2192 49.7585 35.4058 49.7585C36.5923 49.7585 37.5576 50.7238 37.5576 51.9104C37.5576 53.097 36.5922 54.0623 35.4058 54.0623Z" fill="#5CA293"/>
</svg>
