<svg width="62" height="47" viewBox="0 0 62 47" fill="none" xmlns="http://www.w3.org/2000/svg">
<path d="M4.70704 10.3755H14.2854C14.7869 10.3755 15.1936 9.96898 15.1936 9.46729C15.1936 8.9656 14.7869 8.55908 14.2854 8.55908H4.70704C4.20546 8.55908 3.79883 8.9656 3.79883 9.46729C3.79883 9.96898 4.20534 10.3755 4.70704 10.3755Z" fill="#187287"/>
<path d="M13.9566 14.748H10.1729C9.67128 14.748 9.26465 15.1546 9.26465 15.6563C9.26465 16.1579 9.67128 16.5645 10.1729 16.5645H13.9566C14.4581 16.5645 14.8648 16.1579 14.8648 15.6563C14.8648 15.1546 14.4581 14.748 13.9566 14.748Z" fill="#187287"/>
<path d="M0.908207 21.0459H10.1734C10.6749 21.0459 11.0816 20.6394 11.0816 20.1377C11.0816 19.636 10.6749 19.2295 10.1734 19.2295H0.908207C0.406635 19.2295 0 19.636 0 20.1377C0 20.6394 0.406635 21.0459 0.908207 21.0459Z" fill="#187287"/>
<path d="M15.1936 37.147C15.1936 36.6453 14.7869 36.2388 14.2854 36.2388H4.70704C4.20546 36.2388 3.79883 36.6453 3.79883 37.147C3.79883 37.6487 4.20546 38.0552 4.70704 38.0552H14.2854C14.7869 38.0552 15.1936 37.6487 15.1936 37.147Z" fill="#187287"/>
<path d="M13.9566 30.05H10.1729C9.67128 30.05 9.26465 30.4566 9.26465 30.9583C9.26465 31.4599 9.67128 31.8665 10.1729 31.8665H13.9566C14.4581 31.8665 14.8648 31.4599 14.8648 30.9583C14.8648 30.4566 14.4581 30.05 13.9566 30.05Z" fill="#187287"/>
<path d="M11.0816 26.4768C11.0816 25.9751 10.6749 25.5686 10.1734 25.5686H0.908207C0.406635 25.5686 0 25.9751 0 26.4768C0 26.9785 0.406635 27.385 0.908207 27.385H10.1734C10.6749 27.385 11.0816 26.9785 11.0816 26.4768Z" fill="#187287"/>
<path d="M38.6934 12.3882C39.1951 12.3882 39.6016 11.9817 39.6016 11.48V10.0938C39.6016 9.59206 39.1951 9.18555 38.6934 9.18555C38.1917 9.18555 37.7852 9.59206 37.7852 10.0938V11.48C37.7852 11.9817 38.1917 12.3882 38.6934 12.3882Z" fill="#187287"/>
<path d="M48.6782 13.3216C48.3234 12.967 47.7484 12.967 47.3937 13.3216L46.4135 14.3018C46.0588 14.6567 46.0588 15.2316 46.4135 15.5863C46.7684 15.941 47.3432 15.9409 47.6979 15.5863L48.6782 14.606C49.0327 14.2514 49.0327 13.6764 48.6782 13.3216Z" fill="#187287"/>
<path d="M50.5195 22.3989C50.0178 22.3989 49.6113 22.8054 49.6113 23.3071C49.6113 23.8088 50.0178 24.2153 50.5195 24.2153H51.9057C52.4074 24.2153 52.8139 23.8088 52.8139 23.3071C52.8139 22.8054 52.4074 22.3989 51.9057 22.3989H50.5195Z" fill="#187287"/>
<path d="M47.6979 31.0281C47.3431 30.6736 46.7682 30.6736 46.4135 31.0281C46.0588 31.3829 46.0588 31.9579 46.4135 32.3126L47.3937 33.2928C47.7487 33.6475 48.3235 33.6474 48.6782 33.2928C49.0329 32.938 49.0329 32.3631 48.6782 32.0084L47.6979 31.0281Z" fill="#187287"/>
<path d="M37.7852 35.1343V36.5204C37.7852 37.0221 38.1917 37.4287 38.6934 37.4287C39.1951 37.4287 39.6016 37.0221 39.6016 36.5204V35.1343C39.6016 34.6326 39.1951 34.2261 38.6934 34.2261C38.1917 34.2261 37.7852 34.6327 37.7852 35.1343Z" fill="#187287"/>
<path d="M29.6887 31.0281L28.7084 32.0084C28.3537 32.3632 28.3537 32.9381 28.7084 33.2928C29.0632 33.6475 29.6382 33.6474 29.9927 33.2928L30.973 32.3126C31.3277 31.9578 31.3277 31.3828 30.973 31.0281C30.6184 30.6736 30.0433 30.6736 29.6887 31.0281Z" fill="#187287"/>
<path d="M25.4795 22.3989C24.9779 22.3989 24.5713 22.8054 24.5713 23.3071C24.5713 23.8088 24.9779 24.2153 25.4795 24.2153H26.8658C27.3674 24.2153 27.774 23.8088 27.774 23.3071C27.774 22.8054 27.3674 22.3989 26.8658 22.3989H25.4795Z" fill="#187287"/>
<path d="M30.973 14.3018L29.9927 13.3216C29.638 12.967 29.063 12.967 28.7084 13.3216C28.3537 13.6764 28.3537 14.2514 28.7084 14.606L29.6887 15.5863C30.0435 15.941 30.6184 15.9409 30.973 15.5863C31.3277 15.2316 31.3277 14.6567 30.973 14.3018Z" fill="#187287"/>
<path d="M43.5771 23.307C43.5771 22.8053 43.1706 22.3988 42.6689 22.3988H39.6016V15.6558C39.6016 15.1541 39.1951 14.7476 38.6934 14.7476C38.1917 14.7476 37.7852 15.1541 37.7852 15.6558V23.307C37.7852 23.8087 38.1917 24.2152 38.6934 24.2152H42.6689C43.1705 24.2152 43.5771 23.8087 43.5771 23.307Z" fill="#187287"/>
<path d="M55.9146 23.1573C56.4153 23.1269 56.7965 22.6964 56.7661 22.1958C56.1884 12.6653 48.2499 5.19971 38.6934 5.19971C28.7089 5.19971 20.5859 13.3227 20.5859 23.3073C20.5859 33.2918 28.7089 41.4148 38.6934 41.4148C47.6385 41.4148 55.2712 34.8609 56.599 26.0168C56.6735 25.5208 56.3318 25.0583 55.8356 24.9839C55.3408 24.9096 54.8772 25.251 54.8027 25.7472C53.6099 33.6927 46.7492 39.5985 38.6934 39.5985C29.7105 39.5985 22.4024 32.2903 22.4024 23.3074C22.4024 14.3245 29.7105 7.01624 38.6934 7.01624C47.2912 7.01624 54.4332 13.7323 54.953 22.306C54.9833 22.8063 55.4134 23.1863 55.9146 23.1573Z" fill="#187287"/>
<path d="M38.6925 0C35.4979 0 32.368 0.662749 29.4872 1.90215H13.4629C12.9613 1.90215 12.5547 2.30866 12.5547 2.81036C12.5547 3.31205 12.9613 3.71856 13.4629 3.71856H26.0704C24.3657 4.81568 22.7965 6.139 21.4129 7.66672C21.0762 8.03836 21.1046 8.61271 21.4763 8.94947C21.8482 9.28624 22.4223 9.25778 22.7592 8.88602C26.8282 4.39318 32.6358 1.81641 38.6925 1.81641C50.5426 1.81641 60.1834 11.4571 60.1834 23.3071C60.1834 35.1571 50.5427 44.7979 38.6925 44.7979C26.8425 44.7979 17.2018 35.1572 17.2018 23.3071C17.2018 19.1575 18.3872 15.1299 20.6296 11.6596C20.9018 11.2383 20.781 10.6762 20.3597 10.4039C19.9384 10.1318 19.3763 10.2524 19.104 10.6739C16.6712 14.4384 15.3854 18.8069 15.3854 23.3071C15.3854 31.5132 19.6486 38.7416 26.0762 42.8957H13.463C12.9614 42.8957 12.5548 43.3022 12.5548 43.8039C12.5548 44.3056 12.9614 44.7121 13.463 44.7121H29.4747C32.3035 45.9351 35.4201 46.6143 38.6926 46.6143C51.5441 46.6143 61.9998 36.1588 61.9998 23.3071C61.9998 10.4555 51.5441 0 38.6925 0Z" fill="#187287"/>
</svg>
