<svg width="372" height="377" viewBox="0 0 372 377" fill="none" xmlns="http://www.w3.org/2000/svg">
    <path d="M1.18457 179.058L143.965 1L335.838 117.266L1.18457 179.058Z" fill="url(#paint0_linear_293_932)" stroke="#263238" stroke-linecap="round" stroke-linejoin="round" />
    <path d="M335.093 108.653L1 169.381L30.4292 340.733L364.523 280.005L335.093 108.653Z" fill="#263238" />
    <path d="M300.42 49.7983L11.9639 101.915L45.6643 296.956L334.12 244.839L300.42 49.7983Z" fill="white" stroke="#263238" stroke-linecap="round" stroke-linejoin="round" />
    <path d="M183.537 349.785L37.7259 375.755L1.10449 166.728L168.588 256.809L183.537 349.785Z" fill="url(#paint1_linear_293_932)" />
    <path d="M183.537 349.785L37.7259 375.755L1.10449 166.728L168.588 256.809L183.537 349.785Z" stroke="#263238" stroke-linecap="round" stroke-linejoin="round" />
    <path d="M223.93 342.683L370.649 316.886L333.778 109.245L206.261 250.759L223.93 342.683Z" fill="url(#paint2_linear_293_932)" />
    <path d="M223.93 342.683L370.649 316.886L333.778 109.245L206.261 250.759L223.93 342.683Z" stroke="#263238" stroke-linecap="round" stroke-linejoin="round" />
    <path d="M36.1406 376.002L176.16 183.985L371 314.504L36.1406 376.002Z" fill="url(#paint3_linear_293_932)" stroke="#263238" stroke-linecap="round" stroke-linejoin="round" />
    <path d="M249.826 111.236L63.2667 149.514C61.1443 149.949 59.7223 152.337 60.0904 154.848L62.3223 170.065C62.6905 172.576 64.7095 174.258 66.8318 173.822L253.392 135.545C255.514 135.109 256.936 132.721 256.568 130.211L254.336 114.993C253.968 112.483 251.949 110.801 249.826 111.236Z" fill="white" />
    <path d="M261.78 111.297L74.3644 150.35C72.2323 150.794 70.8093 153.193 71.186 155.707L73.4697 170.951C73.8464 173.465 75.8802 175.143 78.0123 174.699L265.428 135.646C267.56 135.202 268.983 132.803 268.607 130.289L266.323 115.045C265.946 112.531 263.912 110.853 261.78 111.297Z" fill="#C2E5F4" stroke="#263238" stroke-miterlimit="10" />
    <path d="M256.817 83.1486L69.4005 122.202C67.2684 122.646 65.8454 125.044 66.2221 127.559L68.5059 142.802C68.8826 145.317 70.9164 146.995 73.0485 146.551L260.464 107.498C262.597 107.053 264.02 104.655 263.643 102.14L261.359 86.897C260.982 84.3825 258.949 82.7043 256.817 83.1486Z" fill="#C2E5F4" stroke="#263238" stroke-miterlimit="10" />
    <path d="M267.07 139.491L79.6545 178.544C77.5224 178.988 76.0993 181.387 76.476 183.902L78.7598 199.145C79.1365 201.659 81.1703 203.338 83.3024 202.893L270.718 163.84C272.85 163.396 274.273 160.998 273.897 158.483L271.613 143.24C271.236 140.725 269.203 139.047 267.07 139.491Z" fill="#C2E5F4" stroke="#263238" stroke-miterlimit="10" />
    <defs>
        <linearGradient id="paint0_linear_293_932" x1="145.871" y1="15.8969" x2="166.484" y2="142.448" gradientUnits="userSpaceOnUse">
            <stop offset="0.239583" stop-color="#187287" />
            <stop offset="0.828125" stop-color="#20C7A9" />
        </linearGradient>
        <linearGradient id="paint1_linear_293_932" x1="79.9788" y1="184.216" x2="127.61" y2="320.012" gradientUnits="userSpaceOnUse">
            <stop offset="0.239583" stop-color="#187287" />
            <stop offset="0.828125" stop-color="#20C7A9" />
        </linearGradient>
        <linearGradient id="paint2_linear_293_932" x1="206.261" y1="225.964" x2="370.649" y2="225.964" gradientUnits="userSpaceOnUse">
            <stop offset="0.47" stop-color="#187287" />
            <stop offset="1" stop-color="#20C7A9" />
        </linearGradient>
        <linearGradient id="paint3_linear_293_932" x1="180.916" y1="200.05" x2="204.773" y2="335.955" gradientUnits="userSpaceOnUse">
            <stop offset="0.239583" stop-color="#187287" />
            <stop offset="0.828125" stop-color="#20C7A9" />
        </linearGradient>
    </defs>
</svg>
    