<svg width="168" height="247" viewBox="0 0 168 247" fill="none" xmlns="http://www.w3.org/2000/svg">
    <path d="M164.928 11.573C164.965 11.4937 164.972 11.4037 164.946 11.32C164.921 11.2364 164.865 11.1651 164.79 11.1199L149.491 1.78301C148.8 1.17237 147.636 1.29055 146.431 2.29516L140.766 7.0621C140.47 7.27878 112.873 30.0498 82.4131 24.4752C81.7583 24.3831 81.0938 24.3831 80.439 24.4752C76.7533 25.1407 73.4198 27.0793 71.0228 29.9513C70.3136 30.7229 69.6542 31.5388 69.0487 32.3938C39.7736 72.0855 11.9 81.6391 10.7156 82.0724L5.06985 83.9044C4.01659 84.3881 3.1139 85.1469 2.45716 86.1004C1.80043 87.0539 1.41403 88.1668 1.33887 89.3213L1.45731 95.9202C2.79966 181.252 26.6067 214.463 46.3867 227.326L64.8835 238.613L66.1469 234.969C68.3409 235.303 70.5638 235.409 72.7797 235.284C75.045 234.901 77.0973 233.72 78.5637 231.955C81.1299 229.237 135.811 169.906 147.655 49.7282L155.907 31.7241L164.928 11.573Z" fill="white" />
    <path d="M65.5741 240.603L45.7152 228.488C25.6786 215.389 1.53597 181.902 0.173874 96.0187L0.0751953 89.4198C0.108411 87.969 0.554827 86.5576 1.36235 85.3506C2.16988 84.1437 3.30512 83.1911 4.63524 82.6043L10.281 80.7723C11.4259 80.3981 38.9639 70.9233 68.0022 31.5271C68.6512 30.6297 69.3567 29.7744 70.1144 28.9664C72.7015 25.8355 76.331 23.7379 80.34 23.0569C81.106 22.9484 81.8836 22.9484 82.6496 23.0569C112.122 28.4739 138.831 6.84539 139.897 5.91958L145.563 1.17234C146.135 0.538526 146.917 0.131854 147.765 0.0269275C148.614 -0.0779988 149.472 0.125855 150.182 0.601097L165.382 9.8789C165.702 10.0814 165.942 10.3883 166.061 10.7475C166.18 11.1067 166.17 11.4959 166.033 11.8487L157.209 32.1968L149.037 49.9251C137.015 170.537 81.9192 230.202 79.6096 232.684C77.9189 234.701 75.5576 236.043 72.9571 236.466C70.9818 236.594 68.9989 236.535 67.0349 236.289L65.5741 240.603ZM81.1493 25.6177H80.5769C77.2086 26.2637 74.1677 28.0523 71.97 30.6801C71.2627 31.4188 70.6034 32.2017 69.996 33.0242C40.5037 73.031 12.2353 82.7619 11.0311 83.1558L5.38533 84.9877C4.58305 85.4033 3.90501 86.0228 3.41972 86.7838C2.93443 87.5448 2.65911 88.4201 2.62168 89.3213L2.72041 95.9202C4.06277 180.622 27.5737 213.597 47.0773 226.282L64.212 236.742L65.278 233.59L66.3243 233.728C68.4255 234.062 70.5567 234.168 72.6807 234.043C74.6501 233.668 76.4286 232.624 77.7145 231.088C80.0834 228.567 134.646 169.453 146.55 49.5509L146.648 49.1372L154.9 31.1331L163.447 11.7305L148.662 2.6497C148.504 2.51181 147.951 2.6497 147.241 3.18155L141.575 7.94848C140.391 8.91369 112.793 31.2513 82.1759 25.6768C81.8361 25.6274 81.4926 25.6076 81.1493 25.6177Z" fill="white" />
    <path d="M94.3363 241.607C92.8745 243.338 90.8598 244.514 88.6313 244.936C85.8084 245.192 19.5395 249.565 17.2891 105.592L17.1904 98.9931C17.2249 97.8107 17.586 96.6607 18.2339 95.6701C18.8818 94.6794 19.7914 93.8866 20.8622 93.3791L26.5079 91.5669C27.6924 91.1729 55.5857 81.58 84.8608 41.8686C85.466 41.0132 86.1253 40.1974 86.8349 39.426C89.2487 36.5678 92.5854 34.6384 96.2708 33.9697C96.9263 33.8873 97.5895 33.8873 98.2449 33.9697C128.724 39.5639 156.321 16.7929 156.598 16.5566L162.283 11.7896C164.257 10.1941 166.014 10.8441 165.975 13.1291L165.876 19.9052C163.606 166.498 97.3368 238.554 94.5337 241.469L94.3363 241.607ZM32.7459 109.748C37.2073 203.098 70.7464 223.761 86.0453 227.188C88.5721 227.76 93.2111 223.249 95.7379 219.861C111.076 198.902 145.76 141.068 150.202 42.105C150.202 40.1352 148.998 39.4261 147.418 40.3716C135.16 47.6599 115.301 56.524 93.9809 54.1602C93.0097 54.1963 92.0623 54.4703 91.2223 54.9581C90.3823 55.4459 89.6754 56.1325 89.1642 56.9574C68.1801 83.8255 48.0448 97.9491 35.6478 104.824C34.7961 105.344 34.0858 106.065 33.5797 106.924C33.0735 107.783 32.7872 108.753 32.7459 109.748Z" fill="#187287" />
    <path d="M86.6576 246.276C81.5843 246.276 67.9437 244.956 53.849 232.31C37.3064 217.359 17.1119 183.242 15.888 105.612L15.7695 99.0128C15.8078 97.5582 16.2584 96.1441 17.0689 94.9344C17.8795 93.7247 19.0168 92.7688 20.3493 92.1776L25.9951 90.3654C27.14 89.9911 54.678 80.5163 83.6966 41.1201C84.3555 40.2305 85.0606 39.3757 85.8088 38.5594C88.4073 35.442 92.0315 33.3476 96.0344 32.65C96.8053 32.5836 97.5816 32.6167 98.344 32.7485C127.817 38.1457 154.525 16.5369 155.591 15.6111L161.257 10.8442C161.776 10.3137 162.439 9.94562 163.165 9.78472C163.891 9.62383 164.647 9.67711 165.343 9.93807C165.914 10.2505 166.381 10.7229 166.686 11.2969C166.991 11.871 167.122 12.5216 167.061 13.1686L166.942 19.9447C164.672 167.03 98.0874 239.342 95.2448 242.356C93.5579 244.346 91.2115 245.667 88.6317 246.079C88.3751 246.217 87.7039 246.276 86.6576 246.276ZM96.7648 35.2107H96.212C92.836 35.851 89.7871 37.6402 87.5854 40.2731C86.8829 41.0092 86.2238 41.7853 85.6114 42.5975C56.1191 82.6043 27.8507 92.3549 26.6663 92.7488L21.0007 94.5611C20.1903 94.9859 19.5053 95.6148 19.0136 96.3853C18.5219 97.1558 18.2406 98.0413 18.1976 98.9537L18.2963 105.553C19.5202 182.257 39.2015 215.862 55.4874 230.419C71.7733 244.976 87.5854 243.715 88.2566 243.656C90.2245 243.289 92.0036 242.251 93.2904 240.721C96.0936 237.747 162.027 166.124 164.356 20.1023L164.455 13.3261C164.455 12.7943 164.336 12.4791 164.198 12.42C164.06 12.3609 163.507 12.42 162.836 12.9913L157.151 17.7385C155.986 18.7037 128.389 41.0414 97.7715 35.4668C97.4696 35.3571 97.1593 35.2715 96.8437 35.2107H96.7648ZM86.3615 228.508C86.119 228.538 85.8737 228.538 85.6312 228.508C74.1225 225.908 36.2799 209.677 31.404 109.886C31.4216 108.654 31.7488 107.445 32.3558 106.371C32.9628 105.297 33.8301 104.393 34.8783 103.74C47.7689 96.59 67.4699 82.5452 88.0197 56.2089C88.6595 55.2167 89.5346 54.3974 90.5677 53.8236C91.6007 53.2497 92.7597 52.9391 93.9419 52.9193C114.669 55.3028 133.995 46.8523 146.59 39.367C147.067 39.0317 147.628 38.8357 148.21 38.8009C148.792 38.7661 149.373 38.8939 149.886 39.17C150.38 39.505 150.771 39.9687 151.018 40.5106C151.266 41.0525 151.359 41.6518 151.288 42.2429C146.827 141.974 111.531 200.241 96.5673 220.668C94.5538 223.465 89.9543 228.508 86.4405 228.508H86.3615ZM34.0295 109.689C38.708 207.687 75.2082 223.465 86.2826 225.908C87.7434 226.223 91.8296 222.914 94.6525 219.053C109.478 198.803 144.438 141.029 148.88 42.0066C148.926 41.7246 148.862 41.4358 148.702 41.1989C148.702 41.1989 148.426 41.1989 148.011 41.3959C135.081 49.0782 115.163 57.7453 93.7839 55.3028C92.8759 55.1846 91.4546 55.8937 90.1122 57.6271C69.286 84.3575 49.2889 98.5992 36.201 105.868C35.5618 106.288 35.0317 106.853 34.6542 107.518C34.2767 108.182 34.0626 108.926 34.0295 109.689Z" fill="white" />
    <path d="M147.359 40.3715C135.101 47.6598 115.242 56.524 93.9219 54.1602C92.9506 54.1962 92.0032 54.4702 91.1632 54.9581C90.3232 55.4459 89.6164 56.1325 89.1052 56.9573C68.121 83.8255 47.9858 97.949 35.5887 104.824C34.7398 105.356 34.0361 106.09 33.5401 106.959C33.0441 107.829 32.7714 108.807 32.7461 109.807C37.2074 203.157 70.7465 223.82 86.0454 227.247C88.5722 227.819 93.2112 223.308 95.738 219.92C111.076 198.961 145.76 141.127 150.202 42.164C150.222 40.2336 148.939 39.426 147.359 40.3715Z" fill="url(#paint0_linear_293_101)" />
    <path d="M86.44 228.508C86.1975 228.538 85.9521 228.538 85.7096 228.508C74.2008 225.908 36.3583 209.677 31.4824 109.886C31.5 108.654 31.8273 107.445 32.4343 106.371C33.0413 105.297 33.9086 104.393 34.9568 103.74C47.8473 96.59 67.5483 82.5452 88.0982 56.2089C88.7379 55.2167 89.6131 54.3974 90.6461 53.8235C91.6792 53.2497 92.8382 52.9391 94.0203 52.9193C114.748 55.3028 134.074 46.8523 146.668 39.367C147.145 39.0317 147.706 38.8357 148.288 38.8009C148.871 38.7661 149.451 38.8939 149.965 39.17C150.458 39.505 150.85 39.9687 151.097 40.5106C151.344 41.0525 151.437 41.6518 151.366 42.2429C146.905 141.974 111.609 200.261 96.6458 220.688C94.5533 223.465 89.9538 228.508 86.44 228.508ZM93.6058 55.3422C92.8912 55.4665 92.2108 55.7395 91.6089 56.1434C91.0069 56.5472 90.4968 57.0729 90.1117 57.6862C69.2657 84.3575 49.2884 98.6189 36.2004 105.868C35.5613 106.288 35.0312 106.853 34.6537 107.518C34.2762 108.182 34.0621 108.926 34.029 109.689C38.7075 207.687 75.2076 223.465 86.282 225.908C87.7428 226.243 91.8291 222.914 94.652 219.053C109.477 198.803 144.438 141.049 148.879 42.0066C148.925 41.7246 148.861 41.4358 148.701 41.1989C148.701 41.1989 148.425 41.1989 148.011 41.3959C135.081 49.0782 115.162 57.7453 93.7834 55.3028L93.6058 55.3422Z" fill="white" />
    <path d="M147.36 40.3715C145.109 41.711 142.602 43.0899 139.878 44.4687C134.666 140.852 100.772 197.326 85.6508 217.97C83.7746 220.6 81.417 222.852 78.7021 224.608C81.0278 225.732 83.4706 226.598 85.9864 227.188C88.5132 227.76 93.1522 223.249 95.679 219.861C111.017 198.902 145.701 141.068 150.143 42.105C150.222 40.2337 148.939 39.426 147.36 40.3715Z" fill="#187287" />
    <path d="M86.4403 228.508C86.1977 228.538 85.9523 228.538 85.7098 228.508C83.0968 227.892 80.5608 226.987 78.1492 225.809L75.958 224.765L78.09 223.584C80.628 221.905 82.8415 219.783 84.6241 217.32C99.1136 197.523 133.383 141.088 138.614 44.4688V43.74L139.266 43.4051C141.773 42.1445 144.26 40.7853 146.668 39.4655C147.145 39.1302 147.706 38.9342 148.289 38.8994C148.871 38.8646 149.452 38.9924 149.965 39.2685C150.458 39.6035 150.85 40.0673 151.097 40.6091C151.344 41.151 151.438 41.7503 151.367 42.3414C146.905 142.073 111.609 200.36 96.6461 220.786C94.5536 223.465 89.9541 228.508 86.4403 228.508ZM81.288 224.372C82.9079 225.034 84.5779 225.568 86.2823 225.967C87.7431 226.302 91.8294 222.973 94.6523 219.112C109.477 198.862 144.438 141.108 148.879 42.0657C148.925 41.7837 148.862 41.4949 148.702 41.258C148.702 41.258 148.425 41.2581 148.011 41.455C145.76 42.7945 143.451 44.0749 141.102 45.2568C135.712 142.093 101.265 198.902 86.6771 218.718C85.1236 220.819 83.3132 222.718 81.288 224.372Z" fill="white" />
    <path d="M1.9478 111.058L0.65625 113.225L17.6231 123.294L18.9147 121.127L1.9478 111.058Z" fill="white" />
    <path d="M22.4117 199.175L21.123 201.343L38.0999 211.389L39.3885 209.221L22.4117 199.175Z" fill="white" />
    <path d="M87.9844 213.347L86.6533 215.49L94.7912 220.523L96.1223 218.38L87.9844 213.347Z" fill="white" />
    <path d="M139.52 51.1293L138.181 53.2725L148.131 59.4634L149.47 57.3202L139.52 51.1293Z" fill="white" />
    <path d="M138.037 65.1647L136.698 67.3079L146.648 73.4988L147.988 71.3556L138.037 65.1647Z" fill="white" />
    <path d="M73.5897 136.597L98.5022 122.257V102.558C98.5022 94.6792 92.8959 91.4094 86.0065 95.3687C82.3605 97.7429 79.3282 100.943 77.1567 104.709C74.9852 108.474 73.736 112.698 73.5107 117.037L73.5897 136.597Z" fill="white" />
    <path d="M72.3252 138.842V116.899C72.5793 112.355 73.8997 107.934 76.1799 103.992C78.4601 100.051 81.6364 96.6987 85.4527 94.2065C89.2034 92.0594 92.7764 91.7443 95.5598 93.3398C98.3432 94.9353 99.8434 98.2052 99.8434 102.499V122.985L72.3252 138.842ZM91.6512 94.8369C89.9003 94.9125 88.1994 95.4421 86.716 96.3733C83.253 98.6183 80.37 101.647 78.3016 105.214C76.2331 108.781 75.0377 112.784 74.8125 116.899V134.509L97.2574 121.567V102.46C97.2574 99.0916 96.1717 96.5506 94.2174 95.5066C93.4363 95.0611 92.5508 94.83 91.6512 94.8369Z" fill="#5CA293" />
    <path d="M96.2508 155.783L75.9379 167.483C70.1736 170.812 65.4951 167.286 65.4951 159.604V131.633C65.4938 130.475 65.771 129.334 66.3035 128.306C66.8359 127.278 67.608 126.392 68.5549 125.723L103.634 105.612C105.312 104.646 106.674 105.612 106.674 107.897V135.888C106.674 143.55 102.015 152.454 96.2508 155.783Z" fill="white" />
    <path d="M71.7723 170.083C70.6161 170.089 69.479 169.79 68.4756 169.217C65.7712 167.661 64.2314 164.194 64.2314 159.703V131.633C64.2634 130.283 64.6121 128.96 65.2499 127.769C65.8876 126.579 66.7964 125.554 67.9031 124.778L103.002 104.568C103.48 104.25 104.035 104.068 104.609 104.04C105.182 104.012 105.752 104.14 106.259 104.41C106.828 104.801 107.284 105.334 107.582 105.957C107.88 106.579 108.009 107.268 107.957 107.956V135.947C107.957 144.003 102.982 153.419 96.8822 156.925L76.5693 168.646C75.1245 169.537 73.47 170.033 71.7723 170.083ZM104.838 106.577C104.635 106.6 104.439 106.667 104.265 106.774L69.1863 126.925C68.4481 127.472 67.8454 128.182 67.4245 128.998C67.0036 129.814 66.7757 130.715 66.7582 131.633V159.624C66.7582 163.189 67.8439 165.848 69.739 166.952C70.6277 167.367 71.6123 167.534 72.5886 167.437C73.565 167.34 74.4969 166.982 75.2861 166.4L95.6188 154.68C101.028 151.567 105.489 143.137 105.489 135.888V107.897C105.489 107.128 105.272 106.656 105.074 106.537L104.838 106.577Z" fill="#5CA293" />
    <path d="M84.585 150.878V136.38H87.1117V146.505L89.145 145.343L90.4084 147.529L84.585 150.878Z" fill="#5CA293" />
    <path d="M90.3683 131.771C90.2955 133.348 89.8475 134.885 89.0614 136.255C88.2753 137.625 87.1738 138.789 85.8477 139.65C83.3604 141.088 81.3271 139.926 81.3271 137.05C81.4047 135.474 81.8548 133.939 82.6404 132.569C83.426 131.2 84.525 130.035 85.8477 129.171C88.3548 127.733 90.3683 128.895 90.3683 131.771Z" fill="white" />
    <path d="M83.8344 141.482C83.1978 141.487 82.5713 141.324 82.0182 141.009C81.3693 140.586 80.8447 139.998 80.4979 139.305C80.151 138.613 79.9945 137.842 80.0442 137.07C80.1287 135.283 80.6405 133.542 81.5369 131.994C82.4332 130.445 83.688 129.132 85.1965 128.166C85.8157 127.645 86.5805 127.327 87.3872 127.254C88.1939 127.182 89.0034 127.358 89.706 127.76C90.4086 128.163 90.9703 128.771 91.3148 129.502C91.6593 130.234 91.7699 131.053 91.6318 131.85C91.545 133.641 91.0303 135.385 90.1306 136.937C89.2309 138.489 87.9723 139.805 86.4598 140.773C85.6582 141.225 84.7553 141.469 83.8344 141.482ZM87.7825 129.821C87.2913 129.855 86.8163 130.01 86.4006 130.274C85.2662 131.012 84.3192 132.003 83.6341 133.168C82.9489 134.334 82.5444 135.643 82.4525 136.991C82.4525 137.897 82.6894 138.567 83.1237 138.803C83.451 138.931 83.8066 138.969 84.1537 138.913C84.5007 138.858 84.8266 138.711 85.0977 138.488C86.2353 137.753 87.1848 136.763 87.8704 135.597C88.5559 134.43 88.9584 133.12 89.0458 131.771C89.0971 131.435 89.0604 131.091 88.9393 130.774C88.8182 130.456 88.6169 130.176 88.3549 129.959C88.2051 129.871 88.0351 129.823 87.8614 129.821H87.7825Z" fill="#5CA293" />
    <defs>
        <linearGradient id="paint0_linear_293_101" x1="83.528" y1="55.6475" x2="137.408" y2="166.009" gradientUnits="userSpaceOnUse">
            <stop offset="0.239583" stop-color="#187287" />
            <stop offset="0.828125" stop-color="#20C7A9" />
        </linearGradient>
    </defs>
</svg>
    