<svg width="441" height="267" viewBox="0 0 441 267" fill="none" xmlns="http://www.w3.org/2000/svg">
    <path d="M5.22487 101.571C7.59263 104.893 10.6904 107.629 14.2802 109.567L271.617 258.101C285.536 266.24 306.597 266.993 318.644 260.136L431.317 195.025C436.425 192.095 439.05 188.209 439.457 184.119C440.125 179.29 439.898 174.379 438.786 169.632L431.277 170.039C430.221 169.25 429.12 168.524 427.98 167.862L170.644 19.3277C156.725 11.2905 135.663 10.436 123.617 17.3947L10.943 82.5055L2.37599 82.0579C1.46736 85.1871 1.20803 88.469 1.61395 91.7021C2.01988 94.9351 3.0825 98.0511 4.73651 100.859L4.83823 101.001L5.22487 101.591V101.571Z" fill="white"/>
    <path d="M298.214 265.996C288.701 266.085 279.323 263.746 270.966 259.2L13.5485 110.706C9.78772 108.665 6.54399 105.791 4.0657 102.303L3.90294 102.079L3.59765 101.591C1.80598 98.6061 0.651515 95.2828 0.206752 91.8301C-0.23801 88.3774 0.0365804 84.8701 1.01332 81.5287L1.33891 80.6334L10.4961 81.1217L122.844 16.2347C135.237 9.0725 156.929 9.94743 171.194 18.2694L428.51 166.804C429.543 167.428 430.541 168.107 431.501 168.838L439.641 168.391L439.906 169.428C441.075 174.36 441.31 179.467 440.597 184.485V184.404C440.129 189.043 437.118 193.072 431.888 196.103L319.214 261.214C312.734 264.565 305.506 266.21 298.214 265.996ZM6.28376 100.818C8.54688 103.969 11.4974 106.564 14.9119 108.407L272.248 256.941C285.781 264.755 306.293 265.63 317.973 258.976L430.647 193.865C435.185 191.24 437.769 187.761 438.074 183.976L438.217 183.224C438.694 179.152 438.516 175.03 437.688 171.015L432.193 171.321L431.929 172.196L430.443 171.137C429.283 170.303 428.286 169.632 427.269 169.103L169.932 20.5686C156.4 12.7553 135.888 11.8804 124.208 18.5339L11.1879 83.8075L3.29242 83.4006C1.95436 89.1038 2.84996 95.1028 5.7954 100.167L6.1413 100.696L5.20526 101.632L6.28376 100.818Z" fill="white"/>
    <path d="M10.4154 71.1313L123.109 6.02046C135.156 -0.958608 156.218 -0.083681 170.137 8.05518L427.473 156.589C441.392 164.626 442.898 176.794 430.851 183.753L318.177 248.864C306.11 255.822 285.049 254.968 271.13 246.829L13.8138 98.2947C-0.125454 90.2373 -1.63132 78.09 10.4154 71.1313Z" fill="white"/>
    <path d="M297.747 254.703C288.228 254.79 278.843 252.452 270.479 247.907L13.1627 99.3732C5.40961 94.8969 0.953125 88.8945 0.953125 82.8717C0.953125 77.8053 4.08692 73.2271 9.74401 69.9513L122.438 4.84041C134.831 -2.32179 156.503 -1.44686 170.767 6.87512L428.104 155.409C435.837 159.865 440.313 165.888 440.313 171.89C440.313 176.957 437.2 181.555 431.522 184.811L318.849 249.922C312.338 253.289 305.073 254.935 297.747 254.703ZM143.54 2.64291C136.668 2.44141 129.858 4.00352 123.761 7.18031L11.0871 72.2912C6.24395 75.0787 3.5985 78.8633 3.5985 82.9531C3.5985 88.0195 7.54631 93.1266 14.465 97.1961L271.781 245.73C285.334 253.544 305.846 254.418 317.526 247.663L430.2 182.552C435.023 179.765 437.688 175.98 437.688 171.89C437.688 166.844 433.72 161.717 426.822 157.647L169.485 9.11332C161.527 4.78691 152.598 2.56 143.54 2.64291Z" fill="white"/>
    <path d="M124.249 14.8511L115.906 19.592C113.22 21.1587 113.22 23.6614 115.906 25.2485C118.612 26.8152 118.612 29.3179 115.906 30.9253L53.2506 67.245C51.7261 68.0125 50.043 68.4122 48.3362 68.4122C46.6294 68.4122 44.9464 68.0125 43.4219 67.245C41.901 66.4776 40.2212 66.0779 38.5177 66.0779C36.8142 66.0779 35.1344 66.4776 33.6135 67.245L16.0522 77.4185C9.94744 80.9386 9.94744 86.6561 16.0522 90.1558L276.522 239.87C287.674 246.3 305.907 246.259 317.058 239.87L425.214 177.16C431.319 173.661 431.319 167.923 425.214 164.423L164.744 14.7087C153.613 8.36035 135.38 8.38068 124.249 14.8511Z" fill="url(#paint0_linear_151_1731)"/>
    <path d="M296.688 246.096C289.433 246.237 282.262 244.529 275.85 241.132L15.38 91.4175C13.8506 90.8451 12.5325 89.8195 11.602 88.4778C10.6714 87.136 10.1729 85.5422 10.1729 83.9094C10.1729 82.2766 10.6714 80.6828 11.602 79.341C12.5325 77.9993 13.8506 76.9737 15.38 76.4013L32.9414 66.2277C34.6613 65.349 36.5652 64.8908 38.4967 64.8908C40.4282 64.8908 42.3321 65.349 44.052 66.2277C45.3733 66.8854 46.8291 67.2276 48.305 67.2276C49.7809 67.2276 51.2368 66.8854 52.558 66.2277L115.295 29.8674C116.17 29.3791 116.678 28.7483 116.678 28.1786C116.678 27.6089 116.17 26.9781 115.295 26.4694C114.534 26.1079 113.883 25.5493 113.411 24.8517C112.938 24.154 112.661 23.3426 112.609 22.5017C112.648 21.647 112.916 20.8185 113.385 20.1027C113.854 19.3869 114.506 18.81 115.274 18.4323L123.597 13.61C135.135 6.93616 153.897 6.89547 165.456 13.61L425.926 163.324C427.457 163.892 428.778 164.915 429.711 166.255C430.643 167.595 431.144 169.189 431.144 170.822C431.144 172.455 430.643 174.049 429.711 175.389C428.778 176.73 427.457 177.753 425.926 178.32L317.77 241.01C311.297 244.49 304.036 246.242 296.688 246.096ZM38.5578 67.4892C37.0699 67.4586 35.5988 67.8088 34.2844 68.5066L16.723 78.6802C15.5948 79.0137 14.6046 79.7032 13.9005 80.6457C13.1963 81.5881 12.8158 82.733 12.8158 83.9094C12.8158 85.0858 13.1963 86.2307 13.9005 87.1731C14.6046 88.1156 15.5948 88.805 16.723 89.1386L277.193 238.873C288.019 245.099 305.682 244.977 316.406 238.873L424.603 176.102C425.728 175.762 426.714 175.069 427.415 174.126C428.115 173.182 428.494 172.038 428.494 170.863C428.494 169.688 428.115 168.544 427.415 167.6C426.714 166.657 425.728 165.963 424.603 165.624L164.133 15.9093C153.287 9.68304 135.644 9.70338 124.9 15.9093L116.577 20.7315C115.702 21.2402 115.193 21.871 115.193 22.4407C115.193 23.0104 115.702 23.6412 116.577 24.1499C117.364 24.4702 118.037 25.0178 118.511 25.7227C118.986 26.4276 119.239 27.2578 119.239 28.1074C119.239 28.9569 118.986 29.7872 118.511 30.4921C118.037 31.197 117.364 31.7446 116.577 32.0649L53.9214 68.4252C52.1988 69.3073 50.2913 69.7673 48.3559 69.7673C46.4206 69.7673 44.5129 69.3073 42.7904 68.4252C41.4831 67.7556 40.0256 67.4333 38.5578 67.4892Z" fill="url(#paint1_linear_151_1731)"/>
    <path d="M94.3767 33.2656C94.0439 33.1513 93.7551 32.9359 93.5507 32.6495C93.3462 32.3632 93.2363 32.0201 93.2363 31.6683C93.2363 31.3165 93.3462 30.9734 93.5507 30.687C93.7551 30.4007 94.0439 30.1853 94.3767 30.071C95.2367 29.6317 96.1887 29.4026 97.1544 29.4026C98.1201 29.4026 99.0721 29.6317 99.9321 30.071C100.265 30.1853 100.554 30.4007 100.758 30.687C100.963 30.9734 101.072 31.3165 101.072 31.6683C101.072 32.0201 100.963 32.3632 100.758 32.6495C100.554 32.9359 100.265 33.1513 99.9321 33.2656C99.0721 33.7049 98.1201 33.934 97.1544 33.934C96.1887 33.934 95.2367 33.7049 94.3767 33.2656Z" fill="#187287"/>
    <path d="M53.3111 53.7756L85.8699 34.9138C86.6907 34.5406 87.5875 34.3646 88.4885 34.3999C89.3896 34.4353 90.2698 34.6809 91.0589 35.1173C92.6054 36.0126 92.7682 37.3555 91.4252 38.1083L58.7647 56.9701C57.9474 57.3431 57.0538 57.5191 56.1561 57.4837C55.2583 57.4484 54.3814 57.2028 53.596 56.7666C52.2122 55.8714 51.9884 54.5285 53.3111 53.7756Z" fill="#187287"/>
    <path d="M293.329 254.321L293.227 264.087L294.732 264.102L294.835 254.336L293.329 254.321Z" fill="white"/>
    <path d="M432.844 193.784L431.399 193.336C432.311 190.076 432.311 186.627 431.399 183.366L432.844 182.919C433.841 186.472 433.841 190.231 432.844 193.784Z" fill="white"/>
    <path d="M428.348 196.409L426.903 195.961C427.803 192.699 427.803 189.254 426.903 185.991L428.348 185.543C429.344 189.097 429.344 192.856 428.348 196.409Z" fill="white"/>
    <path d="M14.22 110.117C13.5842 106.573 13.3386 102.97 13.4875 99.3733H14.9933C14.8585 102.84 15.0904 106.312 15.6852 109.73L14.22 110.117Z" fill="white"/>
    <path d="M9.25587 107.268C8.63409 103.722 8.3953 100.121 8.54363 96.5244H10.0495C9.9152 99.9846 10.1471 103.449 10.7413 106.861L9.25587 107.268Z" fill="white"/>
    <path d="M88.5968 150.221C88.0144 150.203 87.4466 150.034 86.9485 149.732L71.1575 140.617C70.342 140.121 69.654 139.442 69.1487 138.633C68.6433 137.824 68.3347 136.907 68.2475 135.957V135.571C68.2086 135.172 68.2812 134.771 68.4573 134.412C68.6334 134.053 68.906 133.749 69.2446 133.536C69.671 133.338 70.1423 133.256 70.6104 133.299C71.0786 133.342 71.527 133.508 71.9104 133.78L87.7014 142.896C88.5208 143.381 89.2123 144.056 89.7184 144.863C90.2246 145.67 90.5307 146.586 90.6113 147.535V147.921C90.6656 148.321 90.5998 148.728 90.4222 149.09C90.2447 149.453 89.9635 149.754 89.6142 149.956C89.3041 150.132 88.9532 150.223 88.5968 150.221ZM70.2825 134.879C70.1958 134.856 70.1045 134.856 70.0179 134.879C69.8144 135.001 69.7737 135.327 69.7737 135.53V135.896C69.8536 136.583 70.0895 137.243 70.4633 137.825C70.8371 138.407 71.3391 138.895 71.9307 139.254L87.7218 148.369C88.2915 148.695 88.6985 148.695 88.8816 148.593C89.0648 148.491 89.1259 148.125 89.1259 147.942V147.555C89.049 146.87 88.8142 146.212 88.4399 145.633C88.0656 145.054 87.562 144.57 86.9688 144.218L71.1778 135.103C70.8996 134.944 70.5823 134.866 70.2621 134.879H70.2825Z" fill="#187287"/>
    <path d="M113.932 164.83C113.35 164.812 112.782 164.644 112.284 164.342L96.4929 155.246C95.6775 154.751 94.9894 154.072 94.4841 153.263C93.9787 152.453 93.6701 151.537 93.5829 150.587V150.2C93.5287 149.801 93.5945 149.394 93.772 149.031C93.9496 148.669 94.2309 148.368 94.5801 148.166C95.0058 147.969 95.4752 147.886 95.9425 147.925C96.4098 147.964 96.859 148.124 97.2458 148.39L113.037 157.505C113.852 158 114.54 158.68 115.046 159.489C115.551 160.298 115.86 161.215 115.947 162.165V162.531C115.972 162.813 115.939 163.097 115.848 163.366C115.757 163.634 115.611 163.881 115.42 164.089C115.228 164.298 114.995 164.465 114.735 164.578C114.476 164.692 114.195 164.75 113.912 164.749L113.932 164.83ZM95.6179 149.488C95.5315 149.463 95.4397 149.463 95.3534 149.488C95.1295 149.61 95.1091 149.956 95.1091 150.139V150.526C95.1905 151.21 95.4272 151.866 95.801 152.444C96.1749 153.023 96.6761 153.508 97.2662 153.863L113.057 162.978C113.219 163.105 113.408 163.193 113.609 163.235C113.81 163.278 114.018 163.273 114.217 163.223C114.441 163.1 114.461 162.755 114.461 162.551V162.185C114.381 161.498 114.146 160.838 113.772 160.256C113.398 159.675 112.896 159.186 112.304 158.828L96.4929 149.814C96.2244 149.636 95.9176 149.524 95.5976 149.488H95.6179Z" fill="#187287"/>
    <path d="M363.657 230.612C363.308 230.41 363.027 230.109 362.849 229.747C362.672 229.384 362.606 228.977 362.66 228.578V228.211C362.747 227.261 363.056 226.345 363.561 225.536C364.067 224.727 364.755 224.047 365.57 223.552L381.361 214.436C381.748 214.162 382.201 213.996 382.673 213.957C383.146 213.917 383.62 214.006 384.047 214.212C384.393 214.417 384.67 214.72 384.844 215.082C385.017 215.444 385.08 215.85 385.024 216.247V216.613C384.948 217.566 384.644 218.487 384.138 219.298C383.631 220.109 382.937 220.786 382.114 221.273L366.323 230.388C365.827 230.696 365.258 230.865 364.675 230.877C364.318 230.879 363.967 230.788 363.657 230.612ZM382.114 215.82L366.323 224.935C365.731 225.294 365.229 225.782 364.856 226.364C364.482 226.946 364.246 227.606 364.166 228.293V228.659C364.166 228.862 364.166 229.188 364.41 229.31C364.654 229.432 365 229.412 365.57 229.086L381.361 219.971C381.956 219.616 382.46 219.128 382.834 218.546C383.209 217.963 383.443 217.302 383.518 216.613V216.247C383.518 216.044 383.518 215.718 383.294 215.596C383.201 215.573 383.103 215.573 383.009 215.596C382.698 215.601 382.391 215.678 382.114 215.82Z" fill="#187287"/>
    <path d="M58.7245 132.987C58.1406 132.961 57.5731 132.786 57.0762 132.478L48.1429 127.432C47.3236 126.939 46.6316 126.261 46.1227 125.451C45.6137 124.642 45.302 123.724 45.2126 122.773V122.386C45.1712 121.987 45.2428 121.585 45.4191 121.225C45.5954 120.866 45.8694 120.563 46.2097 120.351C46.6389 120.155 47.1116 120.072 47.5821 120.111C48.0526 120.15 48.505 120.31 48.8958 120.575L57.7681 125.702C58.5835 126.198 59.2715 126.877 59.7769 127.686C60.2822 128.496 60.5908 129.412 60.678 130.362V130.749C60.7323 131.148 60.6664 131.555 60.4889 131.918C60.3114 132.28 60.0301 132.581 59.6809 132.783C59.3819 132.923 59.0547 132.993 58.7245 132.987ZM47.3085 121.613C47.2154 121.587 47.1169 121.587 47.0237 121.613C46.8202 121.735 46.7794 122.081 46.7794 122.264V122.65C46.86 123.337 47.0986 123.996 47.4764 124.574C47.8542 125.153 48.3608 125.637 48.9568 125.987L57.8291 131.115C57.9909 131.242 58.1795 131.329 58.3806 131.372C58.5817 131.414 58.7898 131.41 58.989 131.359C59.2128 131.237 59.2332 130.891 59.2332 130.708V130.321C59.1504 129.635 58.9133 128.977 58.5397 128.395C58.1662 127.814 57.6659 127.325 57.0762 126.964L48.1429 121.918C47.8926 121.752 47.6067 121.648 47.3085 121.613Z" fill="#187287"/>
    <path d="M52.9443 126.699V126.313C52.9443 124.909 54.0839 124.441 55.488 125.234L57.5229 126.374C58.2388 126.802 58.8427 127.395 59.2849 128.102C59.7271 128.81 59.995 129.612 60.0666 130.443V130.83C60.0666 132.234 58.927 132.702 57.5229 131.888L55.488 130.748C54.7714 130.326 54.1666 129.737 53.7241 129.033C53.2815 128.328 53.0141 127.528 52.9443 126.699Z" fill="#5CA293"/>
    <path d="M58.724 132.987C58.1401 132.961 57.5726 132.786 57.0757 132.478L55.0408 131.359C54.2253 130.864 53.5373 130.184 53.0319 129.375C52.5266 128.566 52.218 127.65 52.1308 126.7V126.313C52.0765 125.913 52.1423 125.506 52.3199 125.144C52.4974 124.782 52.7787 124.48 53.128 124.278C53.5536 124.081 54.0231 123.999 54.4904 124.038C54.9577 124.077 55.4068 124.237 55.7937 124.502L57.8286 125.641C58.6441 126.137 59.332 126.816 59.8374 127.625C60.3427 128.435 60.6514 129.351 60.7385 130.301V130.688C60.7928 131.087 60.727 131.494 60.5494 131.857C60.3719 132.219 60.0907 132.52 59.7415 132.722C59.4293 132.893 59.0798 132.984 58.724 132.987ZM53.6977 126.7C53.7791 127.383 54.0157 128.04 54.3896 128.618C54.7634 129.196 55.2646 129.681 55.8547 130.036L57.8897 131.176C58.0514 131.303 58.2401 131.391 58.4412 131.433C58.6423 131.475 58.8504 131.471 59.0495 131.42C59.2734 131.298 59.2938 130.952 59.2938 130.769V130.382C59.211 129.696 58.9739 129.038 58.6003 128.456C58.2267 127.875 57.7264 127.386 57.1368 127.025L55.1018 125.906C54.5321 125.56 54.1047 125.56 53.9419 125.662C53.7791 125.764 53.6977 126.13 53.6977 126.313V126.7Z" fill="#187287"/>
    <path d="M299.996 254.354L298.49 254.373L298.619 264.464L300.125 264.445L299.996 254.354Z" fill="white"/>
    <path d="M318.472 249.723L316.966 249.742L317.094 259.834L318.6 259.815L318.472 249.723Z" fill="white"/>
    <path d="M279.161 251.647L279.059 261.413L280.564 261.428L280.667 251.662L279.161 251.647Z" fill="white"/>
    <path d="M256.107 239.166L256.007 248.933L257.513 248.948L257.613 239.182L256.107 239.166Z" fill="white"/>
    <path d="M326.565 187.766L325.558 189.511L328.166 191.016L329.173 189.272L326.565 187.766Z" fill="white"/>
    <path d="M355.986 207.111L351.346 204.446L352.363 202.696L356.983 205.382L355.986 207.111ZM346.727 201.76L342.087 199.094L343.105 197.344L347.724 200.03L346.727 201.76ZM337.468 196.408L332.828 193.743L333.846 191.993L338.465 194.679L337.468 196.408Z" fill="white"/>
    <path d="M363.375 203.718L362.368 205.47L364.988 206.976L365.996 205.224L363.375 203.718Z" fill="white"/>
    <path d="M363.718 168.574L286.859 212.605L258.899 196.328L335.758 152.317L363.718 168.574ZM286.859 210.693L360.422 168.574L335.758 154.209L262.196 196.328L286.859 210.693Z" fill="white"/>
    <path d="M362.071 162.673L286.86 205.748L260.528 190.427L335.759 147.352L362.071 162.673Z" fill="white"/>
    <path d="M99.1182 121.328C97.5685 121.337 96.042 120.952 94.6821 120.209L60.353 100.513C59.7412 100.233 59.215 99.7951 58.8288 99.2444C58.4425 98.6936 58.21 98.0499 58.1553 97.3794C58.1764 96.8283 58.3465 96.2932 58.6475 95.831C58.9485 95.3689 59.3691 94.9969 59.8646 94.7546L165.457 33.8353C166.715 33.25 168.093 32.9707 169.479 33.0202C170.866 33.0698 172.221 33.4467 173.434 34.1201L207.681 53.8976C208.293 54.1774 208.819 54.6153 209.206 55.166C209.592 55.7168 209.824 56.3605 209.879 57.031C209.858 57.5821 209.688 58.1172 209.387 58.5794C209.086 59.0416 208.665 59.4135 208.17 59.6558L102.659 120.575C101.561 121.12 100.343 121.379 99.1182 121.328ZM168.977 34.934C168.101 34.9052 167.232 35.1014 166.454 35.5038L60.9431 96.4027C60.6786 96.5655 60.2512 96.8707 60.2512 97.298C60.2512 97.7253 60.5565 98.1933 61.4518 98.702L95.6792 118.459C96.5843 118.961 97.5931 119.249 98.6271 119.298C99.6612 119.347 100.693 119.158 101.642 118.744L207.173 57.8245C207.437 57.6821 207.885 57.3769 207.885 56.9496C207.885 56.5223 207.559 56.0543 206.664 55.5457L172.437 35.87C171.375 35.2949 170.184 35.0008 168.977 35.0154V34.934Z" fill="white"/>
    <path d="M121.014 134.045C119.458 134.051 117.925 133.666 116.557 132.926L109.191 128.632C108.579 128.35 108.052 127.912 107.663 127.362C107.273 126.812 107.035 126.17 106.973 125.499C106.994 124.948 107.164 124.413 107.465 123.951C107.766 123.488 108.186 123.116 108.682 122.874L214.213 61.9548C215.47 61.3647 216.849 61.0827 218.236 61.1323C219.623 61.1818 220.979 61.5615 222.19 62.2397L229.597 66.5329C230.209 66.8152 230.736 67.2532 231.125 67.8031C231.514 68.353 231.752 68.9956 231.815 69.6664C231.794 70.2175 231.624 70.7526 231.323 71.2147C231.022 71.6769 230.601 72.0489 230.106 72.2912L124.595 133.211C123.491 133.788 122.259 134.075 121.014 134.045ZM217.693 63.1349C216.817 63.1043 215.947 63.3005 215.169 63.7047L109.659 124.604C109.394 124.766 108.947 125.072 108.947 125.499C108.947 125.926 109.272 126.394 110.147 126.903L117.575 131.176C118.478 131.683 119.487 131.972 120.522 132.022C121.557 132.071 122.589 131.879 123.537 131.461L229.068 70.5617C229.333 70.3989 229.76 70.0937 229.76 69.6664C229.76 69.2391 229.455 68.7711 228.559 68.2624L221.152 63.9896C220.091 63.4145 218.9 63.1203 217.693 63.1349Z" fill="white"/>
    <path d="M191.177 174.556C189.627 174.563 188.101 174.178 186.74 173.437L179.333 169.144C178.72 168.863 178.192 168.426 177.803 167.875C177.413 167.325 177.176 166.682 177.115 166.01C177.136 165.459 177.306 164.924 177.607 164.462C177.908 164 178.329 163.628 178.825 163.385L284.335 102.466C285.597 101.881 286.978 101.601 288.368 101.651C289.758 101.7 291.116 102.077 292.333 102.751L299.74 107.044C300.352 107.326 300.878 107.764 301.268 108.314C301.657 108.864 301.895 109.507 301.958 110.178C301.937 110.729 301.766 111.264 301.465 111.726C301.165 112.188 300.744 112.56 300.248 112.802L194.656 173.722C193.585 174.287 192.388 174.574 191.177 174.556ZM287.876 103.646C287 103.616 286.131 103.812 285.353 104.216L179.822 165.115C179.557 165.278 179.13 165.583 179.13 166.01C179.13 166.438 179.435 166.905 180.33 167.414L187.738 171.687C188.645 172.193 189.656 172.484 190.693 172.537C191.731 172.59 192.766 172.403 193.72 171.992L299.231 111.154C299.496 110.992 299.943 110.686 299.943 110.279C299.943 109.872 299.618 109.364 298.743 108.855L291.315 104.582C290.269 103.979 289.084 103.656 287.876 103.646Z" fill="white"/>
    <path d="M212.829 187.049C211.273 187.058 209.74 186.673 208.373 185.93L185.012 172.664C184.395 172.383 183.864 171.943 183.474 171.389C183.084 170.834 182.849 170.185 182.794 169.51C182.81 168.96 182.978 168.426 183.28 167.966C183.582 167.506 184.005 167.139 184.503 166.905L290.014 105.986C291.269 105.391 292.649 105.106 294.037 105.156C295.425 105.205 296.781 105.588 297.991 106.271L321.372 119.517C321.986 119.803 322.513 120.244 322.902 120.798C323.292 121.351 323.529 121.997 323.59 122.671C323.569 123.222 323.399 123.757 323.098 124.219C322.797 124.681 322.376 125.053 321.881 125.296L216.35 186.215C215.266 186.788 214.055 187.075 212.829 187.049ZM293.534 107.085C292.659 107.066 291.793 107.262 291.011 107.655L185.5 168.635C185.236 168.777 184.788 169.103 184.788 169.51C184.788 169.917 185.114 170.405 186.009 170.914L209.37 184.18C210.279 184.683 211.291 184.97 212.328 185.019C213.365 185.069 214.4 184.879 215.353 184.465L320.823 123.566C321.087 123.403 321.535 123.098 321.535 122.671C321.535 122.243 321.23 121.775 320.334 121.267L296.953 108.021C295.911 107.425 294.735 107.103 293.534 107.085Z" fill="white"/>
    <path d="M169.079 161.798C167.529 161.808 166.003 161.422 164.643 160.679L131.942 141.797C131.327 141.513 130.798 141.072 130.409 140.518C130.019 139.964 129.783 139.318 129.724 138.643C129.747 138.093 129.918 137.559 130.219 137.097C130.519 136.635 130.939 136.263 131.433 136.018L177.076 109.669C178.334 109.082 179.714 108.803 181.102 108.856C182.489 108.91 183.844 109.293 185.053 109.974L217.775 128.836C218.386 129.123 218.91 129.565 219.296 130.119C219.682 130.672 219.915 131.318 219.972 131.99C219.951 132.541 219.781 133.076 219.48 133.538C219.179 134 218.759 134.372 218.263 134.615L172.62 160.964C171.53 161.54 170.311 161.827 169.079 161.798ZM180.597 110.93C179.727 110.9 178.864 111.096 178.094 111.5L132.43 137.951C132.186 138.094 131.738 138.419 131.738 138.826C131.738 139.233 132.043 139.722 132.939 140.23L165.64 159.113C166.547 159.62 167.56 159.909 168.598 159.959C169.636 160.008 170.671 159.816 171.623 159.397L217.266 132.946C217.531 132.804 217.978 132.478 217.978 132.071C217.978 131.664 217.653 131.176 216.757 130.667L184.056 111.785C183.002 111.182 181.811 110.859 180.597 110.849V110.93Z" fill="white"/>
    <path d="M228.966 127.228C227.409 127.238 225.876 126.853 224.509 126.109L191.808 107.227C191.193 106.943 190.664 106.502 190.275 105.948C189.886 105.395 189.649 104.748 189.59 104.073C189.612 103.525 189.783 102.994 190.084 102.535C190.385 102.076 190.805 101.708 191.299 101.469L236.942 75.0177C238.201 74.4226 239.584 74.1378 240.976 74.1874C242.367 74.237 243.727 74.6194 244.94 75.3026L277.641 94.1847C278.256 94.4687 278.784 94.9098 279.174 95.4636C279.563 96.0174 279.8 96.6642 279.859 97.3386C279.836 97.8867 279.666 98.4184 279.364 98.8771C279.063 99.3357 278.644 99.7041 278.15 99.943L232.506 126.394C231.418 126.974 230.198 127.262 228.966 127.228ZM240.483 76.3606C239.607 76.33 238.738 76.5262 237.96 76.9303L192.317 103.382C192.052 103.544 191.604 103.85 191.604 104.257C191.604 104.664 191.93 105.152 192.805 105.681L225.527 124.563C226.433 125.061 227.442 125.346 228.475 125.395C229.508 125.444 230.539 125.257 231.489 124.848L277.132 98.4983C277.397 98.3355 277.844 98.0304 277.844 97.6234C277.844 97.2165 277.519 96.7078 276.644 96.1991L243.922 77.3169C242.881 76.6878 241.699 76.331 240.483 76.2792V76.3606Z" fill="white"/>
    <path d="M192.714 115.836L140.346 145.929L141.353 147.682L193.721 117.588L192.714 115.836Z" fill="white"/>
    <path d="M249.659 78.6608L197.541 108.772L198.549 110.517L250.667 80.405L249.659 78.6608Z" fill="white"/>
    <path d="M371.798 191.363C373.71 192.909 372.123 195.107 371.798 195.432C374.133 194.775 376.605 194.775 378.94 195.432C377.027 193.866 378.635 191.668 378.94 191.363C376.587 192.044 374.089 192.044 371.737 191.363C371.737 191.363 371.696 191.342 371.798 191.363Z" fill="#187287"/>
    <path d="M382.155 185.381C384.068 186.927 382.48 189.124 382.155 189.45C384.488 188.779 386.964 188.779 389.297 189.45C387.385 187.883 388.992 185.686 389.297 185.381C386.945 186.062 384.447 186.062 382.094 185.381C382.094 185.381 382.114 185.36 382.155 185.381Z" fill="#187287"/>
    <path d="M392.512 179.398C394.425 180.965 392.838 183.163 392.512 183.468C394.846 182.797 397.321 182.797 399.655 183.468C397.742 181.901 399.35 179.704 399.655 179.398C397.299 180.059 394.807 180.059 392.451 179.398C392.451 179.398 392.472 179.378 392.512 179.398Z" fill="#187287"/>
    <path d="M402.87 173.417C404.782 174.983 403.195 177.181 402.87 177.486C405.203 176.815 407.679 176.815 410.012 177.486C408.099 175.919 409.707 173.722 410.012 173.417C407.656 174.077 405.164 174.077 402.809 173.417C402.809 173.417 402.829 173.396 402.87 173.417Z" fill="#187287"/>
    <path d="M413.227 167.435C415.14 169.001 413.553 171.199 413.227 171.504C415.56 170.825 418.037 170.825 420.37 171.504C418.457 169.958 420.064 167.74 420.37 167.435C418.014 168.095 415.522 168.095 413.166 167.435C413.166 167.435 413.186 167.414 413.227 167.435Z" fill="#187287"/>
    <path d="M371.696 179.378C373.609 180.925 372.022 183.122 371.696 183.448C374.03 182.777 376.505 182.777 378.839 183.448C376.926 181.881 378.533 179.683 378.839 179.378C376.493 180.06 374.001 180.06 371.655 179.378C371.655 179.378 371.696 179.358 371.696 179.378Z" fill="#187287"/>
    <path d="M382.113 173.396C384.026 174.963 382.439 177.14 382.113 177.465C384.447 176.794 386.922 176.794 389.256 177.465C387.343 175.899 388.95 173.701 389.256 173.396C386.909 174.07 384.419 174.07 382.072 173.396C382.072 173.396 382.072 173.376 382.113 173.396Z" fill="#187287"/>
    <path d="M392.471 167.414C394.384 168.981 392.797 171.179 392.471 171.484C394.805 170.813 397.28 170.813 399.614 171.484C397.701 169.917 399.309 167.72 399.614 167.414C397.265 168.075 394.78 168.075 392.431 167.414C392.431 167.414 392.431 167.394 392.471 167.414Z" fill="#187287"/>
    <path d="M402.829 161.432C404.742 162.999 403.154 165.196 402.829 165.501C405.162 164.83 407.638 164.83 409.971 165.501C408.059 163.935 409.666 161.737 409.971 161.432C407.622 162.092 405.137 162.092 402.788 161.432C402.788 161.432 402.788 161.412 402.829 161.432Z" fill="#187287"/>
    <path d="M58.4395 97.6252L168.965 33.5823L210.283 56.8236L98.7245 120.35L58.4395 97.6252Z" fill="#01C09E"/>
    <defs>
    <linearGradient id="paint0_linear_151_1731" x1="192.333" y1="29.6087" x2="220.901" y2="195.939" gradientUnits="userSpaceOnUse">
    <stop offset="0.239583" stop-color="#187287"/>
    <stop offset="0.828125" stop-color="#20C7A9"/>
    </linearGradient>
    <linearGradient id="paint1_linear_151_1731" x1="192.179" y1="28.4606" x2="221.242" y2="196.729" gradientUnits="userSpaceOnUse">
    <stop offset="0.239583" stop-color="#187287"/>
    <stop offset="0.828125" stop-color="#20C7A9"/>
    </linearGradient>
    </defs>
    </svg>
    