<svg width="77" height="38" viewBox="0 0 77 38" fill="none" xmlns="http://www.w3.org/2000/svg">
<path d="M24.2315 37.9846H23.0293C19.6786 37.9846 16.3312 37.9743 12.9805 38C12.4051 38 12.0496 37.829 11.7268 37.3433C9.52327 33.9744 7.26997 30.6415 5.08022 27.264C4.78825 26.8143 4.48598 26.58 4.06177 26.4962H0V18.2741C0.352077 18.2741 0.712742 18.2741 1.07341 18.2741C3.61523 18.2211 6.16908 18.286 8.69889 18.0671C10.4163 17.9184 11.7903 16.9333 12.2918 15.1788C12.7796 13.4687 12.6473 11.8014 11.2699 10.4983C10.0832 9.37473 8.5426 9.10795 6.97629 9.07888C4.97374 9.04126 2.96947 9.06691 0.965207 9.0652H0V0.0427401H2.84238C5.9441 -0.00856276 9.04753 -0.0735462 12.1269 0.465134C15.6597 1.08248 18.6979 2.58907 20.8619 5.54925C22.7665 8.15714 23.1925 11.1395 22.9709 14.2553C22.6274 19.0128 20.156 22.327 15.9294 24.4321C15.7284 24.5313 15.5258 24.6271 15.2063 24.7827L24.2315 37.9846Z" fill="white"/>
<path d="M71.0855 36.0642C70.5551 36.3461 70.0086 36.5968 69.4487 36.8149C69.3972 36.832 69.3422 36.8543 69.277 36.8782C69.1602 36.9244 69.0417 36.9671 68.9215 37.0082C68.2655 37.2003 67.5985 37.3528 66.9241 37.4648L66.8193 37.4836C66.5428 37.5315 66.2663 37.5776 65.9984 37.6204H65.9623C64.2998 37.8461 62.0809 37.9231 62.0809 37.9231H60.9473C59.8722 37.9231 58.4691 37.8256 58.4691 37.8256L58.2509 37.8068L57.1758 37.7059V29.0032C58.378 29.1742 59.5579 29.3829 60.7292 29.5163H60.7498C63.5132 29.913 64.9868 29.3863 65.6738 28.9759L65.6892 28.9673C65.8179 28.896 65.9378 28.8099 66.0465 28.7108L66.0825 28.6783L66.1134 28.6492L66.1546 28.6065C66.1635 28.5981 66.1715 28.5889 66.1787 28.5791L66.2165 28.5364C66.4863 28.2076 66.6497 27.8052 66.6853 27.3821C66.8056 26.315 66.4398 25.4633 65.4831 25.0598C64.1117 24.5029 62.7124 24.0166 61.2908 23.6027C60.2277 23.2813 59.132 23.0726 58.0603 22.7802C57.906 22.7389 57.7576 22.6779 57.6189 22.5989L57.5914 22.5818L57.533 22.5459L57.4729 22.5032L57.4609 22.4929C57.3067 22.3582 57.2086 22.1709 57.1861 21.9679V12.1776C58.6356 13.4585 60.3222 13.7406 61.9349 14.2092C64.8116 15.0471 67.7364 15.7585 70.5324 16.8103C73.2804 17.8466 75.5354 19.6678 76.4559 22.6092C77.8505 27.0999 76.7376 33.0715 71.0855 36.0642Z" fill="white"/>
<path d="M58.428 37.8137L58.124 37.7914C58.0422 37.7859 57.9608 37.7762 57.8801 37.7624L58.428 37.8137Z" fill="white"/>
<path d="M75.97 4.82931L70.9001 11.9895C68.8718 10.6214 66.7782 9.50641 64.4562 8.93866C63.2628 8.6488 62.0451 8.46906 60.8186 8.4017C59.5254 8.32816 58.2425 8.51627 57.1742 9.6381V0.18127C57.2309 0.18127 58.4503 0.0666937 61.8285 0C66.883 0.0923451 71.618 1.50659 75.97 4.82931Z" fill="white"/>
<path d="M66.9964 37.4852C66.7525 37.5365 66.4726 37.581 66.1755 37.622C66.4434 37.5793 66.7199 37.5314 66.9964 37.4852Z" fill="white"/>
<path d="M54.4054 0.0102643V37.9299H44.2123V15.738L34.2511 31.0929L25.4149 17.4122V0.311243L34.3267 14.7872L34.4984 14.505C34.5208 14.4674 34.5448 14.4298 34.5689 14.3922L34.6479 14.2639C35.7402 12.5111 39.3107 6.76685 41.5469 3.17223L42.9363 1.00041L42.9861 0.923454C43.5013 0.141941 43.8448 0.0684069 43.8448 0.0684069C43.9571 0.0388435 44.0723 0.0216416 44.1883 0.0171061L54.4054 0.0102643Z" fill="white"/>
</svg>
