<svg width="136" height="100" viewBox="0 0 136 100" fill="none" xmlns="http://www.w3.org/2000/svg">
<path d="M74.5382 64.7084C75.3854 58.3943 76.667 52.7466 78.3829 47.7651C80.2704 42.8067 82.6266 38.2586 85.4516 34.1208C88.4481 30.0061 91.9476 26.0457 95.9503 22.2397C99.9529 18.4337 104.482 14.6114 109.536 10.7728L127.372 22.2863C125.817 23.4674 124.313 24.916 122.86 26.632C121.625 28.0298 120.247 29.8427 118.726 32.0707C117.205 34.2988 115.735 36.7943 114.317 39.5573C121.337 41.889 126.87 46.1927 130.917 52.4685C134.964 58.7443 136.495 65.5512 135.51 72.8892C134.938 77.1555 133.542 81.0507 131.324 84.5749C129.299 87.9514 126.732 90.8208 123.621 93.183C120.511 95.5453 116.954 97.3265 112.952 98.5267C109.144 99.5793 105.096 99.818 100.809 99.2427C96.6924 98.6904 92.8507 97.3932 89.2835 95.351C85.9107 93.1613 83.0354 90.5171 80.6576 87.4185C78.2798 84.3199 76.4737 80.8637 75.2394 77.0499C74.1995 73.0885 73.9658 68.9747 74.5382 64.7084ZM-0.497457 52.0348C0.452541 46.2557 1.84838 41.0576 3.69007 36.4404C5.55465 31.6527 7.88797 27.2752 10.69 23.3081C13.6865 19.1934 17.0774 15.3921 20.8627 11.9044C24.8425 8.26903 29.2739 4.52054 34.157 0.65893L51.9926 12.1724C50.4374 13.3535 48.9335 14.8021 47.4811 16.5182C46.246 17.916 44.8678 19.7289 43.3467 21.9569C41.8256 24.1849 40.3558 26.6804 38.9375 29.4434C45.9578 31.7751 51.4913 36.0789 55.5381 42.3547C59.5848 48.6305 61.1159 55.4374 60.1313 62.7754C59.5589 67.0416 58.1633 70.9369 55.9444 74.4611C53.92 77.8376 51.3525 80.707 48.242 83.0692C45.1315 85.4314 41.5751 87.2126 37.5729 88.4129C33.7651 89.4655 29.7173 89.7041 25.4295 89.1288C21.3132 88.5765 17.4715 87.2793 13.9043 85.2372C10.5316 83.0475 7.66772 80.3179 5.31279 77.0487C2.95786 73.7794 1.18615 70.0673 -0.00234255 65.9122C-0.996422 61.6095 -1.16146 56.9837 -0.497457 52.0348Z" fill="white"/>
</svg>
